<mxfile host="Electron" modified="2025-06-08T04:47:32.363Z" agent="Mozilla/5.0 (Windows NT 10.0; Win64; x64) AppleWebKit/537.36 (KHTML, like Gecko) draw.io/24.6.4 Chrome/124.0.6367.207 Electron/30.0.6 Safari/537.36" etag="b0u6yz0LJJ-5pCmCQR_w" version="24.6.4" type="device">
  <diagram name="Page-1" id="eXz8nxAxH2Z5V-Q5GkXC">
    <mxGraphModel dx="1434" dy="844" grid="1" gridSize="10" guides="1" tooltips="1" connect="1" arrows="1" fold="1" page="1" pageScale="1" pageWidth="1700" pageHeight="1100" math="0" shadow="0">
      <root>
        <mxCell id="0" />
        <mxCell id="1" parent="0" />
        <mxCell id="1rrXc0P4a3_NibfVCA2N-1" value="" style="rounded=0;whiteSpace=wrap;html=1;imageWidth=86;imageHeight=54;rotation=90;strokeColor=#CCCCCC;fillColor=#17191a;" parent="1" vertex="1">
          <mxGeometry x="220" y="100" width="338.582" height="212.59799999999998" as="geometry" />
        </mxCell>
        <mxCell id="RNJNpa67RIgomQQY6Ot4-1" value="" style="rounded=0;whiteSpace=wrap;html=1;imageWidth=86;imageHeight=54;rotation=90;strokeColor=#CCCCCC;fillColor=#17191a;" parent="1" vertex="1">
          <mxGeometry x="-20" y="100" width="338.582" height="212.59799999999998" as="geometry" />
        </mxCell>
        <mxCell id="RNJNpa67RIgomQQY6Ot4-3" value="" style="shape=image;verticalLabelPosition=bottom;labelBackgroundColor=default;verticalAlign=top;aspect=fixed;imageAspect=0;image=data:image/png,iVBORw0KGgoAAAANSUhEUgAAAX4AAAFMCAYAAADMaNdaAAAAAXNSR0IArs4c6QAAAARnQU1BAACxjwv8YQUAAAAJcEhZcwAADsMAAA7DAcdvqGQAAO5rSURBVHhe7J0HgJ9Fmf+fZHvLpvcKKUASeu+9qigqiohnbyin97eeeHrnqVf09OwNVCx40hQsgAiCSlF6JwES0nt2s71l/8/nO+/89pfNJtmETbK7me9m8nvLvPNO/T7PPDPvzJBxEyZ2WkJCQkLCPoOh2W9CQkJCwj6CRPwJCQkJ+xgS8SckJCTsY0jEn5CQkLCPIRF/QkJCwj6GRPwJCQkJ+xgS8SckJCTsY0jEn5CQkLCPIRF/QkJCwj6GRPwJCQkJ+xgS8SckJCTsY0hr9ewiOj3XhgzB+X+6wL8ts3Lz5s3yN3QofnDhfnym0292up8hQ7clf4foWfxv7iCszTa0oMCvuX8ParOfd272MPx3s8LqtPaONisqKrbi4mIrLCy0AvfPb1FRkY49NIXHu1vbWq2lpcXa29uz8AmrM4SbHUf//iNwLYDr2ZEfDB3icfLzzR6HkO7NIbk86vcVRkJCQr9AIv5dBPwHlw0dWhDOI9lF+M22tnZxXxGE6+cdkLw/CHkPcUKHIDvcD4SMf6gR//kFwr0CJ3rImXcUZgQOUbdv7oBpwzN6v1nVsAobXj3Cho8YYRUVlVZaVuq/5TZs2DArKy311wwNcenosLq6OqutrbXGxkYJgMamxuzaJquvr5cfRBJxzcXP35EfP64hiAo9Tvy2E68OBInHDY948GcLClLnMiGhvyAR/y5CGq5DmjF/aN5Ovjk4CULYECJETSa3O8m3t7eJCNHCcZBwa2urFRQGf4SLxt3e3qHrHW1tTvCbrbKy0kpci29qbraGhkZr93tFJSVO6FVW5fdKndRHjBxh/3jFP9rYsWOtqqrKysrKpPlzr6Kywp8v8lj4+zzM1tY2vbvQBRfxqKuvs+eff97+9re/2V/+8hd74onH9S4EQmtLaxA69BxKihXHNk9Ha3NLEG5IAyV5iHoW6m34L0Km04UTaenodEGQkJDQL5CIfxeA7ju0oNC1WtdsMYs46YcbmDxQcTkOP2jmHa6tdzg5ithdGITrHbonrd+PC4qcVCUM8EMvIgRAcGjcDfUN0voRAKNGj7KpU6barFmz7IADDrD999/fxo8fb5VVlVZcVCINv7S0REIHYw2EXOAOoldMEVYcEDbn/j+9lTYXCE1O5g2NTVazYaP9+uZf24svvmgLFy60RS8usnXr1onky7wXUemCBYFC3Fv8GX49NSE85YGH6WkjnR2eP0XFQcglJCTsfSTi30VAYtizITeRs2u3IvWsJ+A3ZNLhPpp7uxNgod8f6sTOs0OdGKO9Ho049BqiuQjTSIG05xInVzToObNni+THjBljEyZOsDGjx9pI1/BHjBhp1dXDrNzJmGd4D785ovfSpYDlMkEDeQ8tCL2RyMUdHZ3uut6Pv2XLltnKVSvthRdesGefedaeW/CcLVmyxNatXWsNTd7rcEFE3EqKS90/BO+OMPxZQA+BXkqRO8xIXeMDCQkJexOJ+HcRMvF4zkm3hcidwGUFF9lmBEtPwC8Fki0MJO/E3OaCgOchaMi3qalZJpSK8nIn8WobPXq0jRs3ziZMmCBNfvjw4TZp0iSbOHGiH1dbZUWFlZSU5gQNGr0Ggf0vkrqf5kA8KWTiFXsnxJmeREe7X3NN3TqDoAiCIKTDPcvcs6m21tY42S9ZstSeffZZe/rppyUMVq1ZpZ5Ihwsu/BMfxclfyHgGAoAe0FAXAAiGhISE/oFE/LsCzzGIHeIMZOkuI93gAsHSI4CBZc9Hu/a/Dt1z5/6YzVNeVuba/ByZTkaPHiWih+QnT54sN3bsGBs2rFr+/T/vBRTy41EIggfA1fC0v0zXuwRBz4jPEUpbW+htQNiMSRAOA7TEvVjvCp5Jb0Njo61atcoWvbjYFj6/0FasWGFPPfWkPffcAhcQTRo3KCAvPBxmGWEKowdAHhB2QkJC/0Ai/l2BSC1vaqUDYpSW6/cgXGm/fh9g/8acw+yekaNGavB1xIgRspGjzb/pTW+yctf20eSx4ZdXlGsGTlFxiUw2gPAlSOKxCxBmyiBQeBd3/LIAecuF0xxiQSsc/1dQ0OUjCCy/5+ESV2zzxE/X3L+ECf79Qmtru9VuqrW6unp76KGH7C9//YstXbrUFi1abLUbN1qz92g0q8fBoDW9HQaDoxBJSEjYu0jEvytwAssRv5MaGn4HA71OmGj/xU7Y2L5hXvxwzoDoKCf9g+fPt2OPPc4OO+wwm+IaPRq8NGUPp6AwmGgCP/p/HlaOeAkrEwI9AX8MohbmkXk+CBLBEIIOwgni55xjzbxxDwiRIifrfATbP/5DjyAixNM0BfRZ1/rvu+8+e/SxR+25Z5+zZUuXWU1tjWbzMAZAOsmbhISEvY9E/LsANFfIUIOoOeLv0C/XKitca3cN/pBDDrFjjjnG5s2bZ7Nmz7LSkmIn1SLX5N0VhamV2MeLiwtF8ijinOM6h2yWpgwJQ5gymTjifHj59XeGQWXXxrtxKoW6PZpFCED0DMgWDCEdQ3LEjJkmhB0Hif2iO4ie92LGwsyFjIkDurwfAVbrQuDJJ560v/71rxIEjAnUbKyxsoqyXPgJCQl7F/2a+APBdjipDBWhyqzi5BHMEpldw8GcdsBUSH0FC0O5v4KhBfLXxnRKDwciFfLMzVBRCJ/B1yHW0NAgQsTMATkrDk7E0bwC6UF2TU1NVlFeoQ+jmF45edLk3PTKKVMmW1XVMJlxGKyV+cYFQXeNnWgSfrxOQYS0hSKBKOP00PxrEeGan4d/Ow0eJwyC3DJcd/6nUYJuYWfREHgkmrcwOYE2J/9GzxtMQYwBPL/weVu4cIH97ve/tw3rN1hjY4O+I6Asi4tcEHoeUzZtba3KXwLlHYTNtFbKE7/EgTgxPsI7KUt6WcyYIp58p0AG8m56L5iYELIJCQlbo98TfzBzMFiJmSFQEBHWlMGMhbgczBDhi1Tmo0PUGlR1h9DoTpiQDH4x2XAew4+Oa4TDlEVNSywpkSOsYdXD7JSTTxHpQ+4jR2K3H6NZN+PHT9B1CE2CapCDfAIxf/lmQXnpjo+/NmzYIPs/M4GYCspsID4UW758ub4aBuSpyskdM5KY+QSpq6A9WH1trAOIPwhe/COQKSPqR3lFhcoUoQLhI/QRAAkJCVuj35t6IJZIxJEIwvXsP3fYj9GaIfLoIplDKrG3EEmKXw3GQvwIEAf3RVgZ8eN4Dm2daZXMsGGKpTT8USPtuOOO19exuNg7wPFMDD+GuS8B4lf+ZeludyJmNhB5wgdgEP+TTz6ZmxK6Zs0aLQ+B5o6JyTNMzw1xkmcmUCg3k4BmgJjeW7HnM707lIKYz6xP1NLa7GW6WQPj9OD4qjghIWFrDAgbP6Sh+ecZMUAsOXjDZ1CUHoDWs3E/UcsH+eQeEYkZ4A//DMbiIHHIHi0eop86ZYrNnDVLX8dC/szGgeAhK8w3PBPIKYRJ3DjmvYQd47GvgDxQPvgx5E9RobHH66wLtH79epmBFi1aJAGAe+mll2z12jVajoL8hNghc4Q6oGzpQbS0tmgpCoQC1QHQ2ysoKLKmJtYcatU5z8Z1lBISErZE/yd+CBVzDMdo4d7gIQa6/th86d4XekOPA6zY6yHySMAA/zjuA57jefxB9BUVwVbP8cknn6xB2VGjRulDKq5Hgt9C4DjyzyOx5RN9d/+DETGPldIsvUzljEJY0zkLi6yluVllQP4w04nyavZrixe/ZE899ZTMP0/yTcCCBRpnYaE47nd2ugB1Amftn0J6dkMKnNybPK8RtOHdRUVBSGDyaaVX0NrmV+mxZWM6CQkJW6B/E39G+s4YOoVINdjp/4KG7RTuvx3tDPBZTmvnWlxxEsQeAISCfX78uPE2depUafGzZ8+WmzFjhoieQUr8sswA74sOoRE/vCLDIonlk7vuKV74C0JgsGudWovHHfmAjb57foD8a8pHvx6EcVj2oqUlLDz30pIl9tTTT2ltoIcffsiefuZZW7VqtQuRVhfKJVZVOUxCGq2fMDDraBwGO7+HVV5eqZ4CA8XBvr9vmdkSEnqLfk78TizewCEOCJ+IQqiYfcIxmrtrfN7YGfhDy2TAD2COQQjEQVbs9HwohZmAmTZxUFYzb1yrL3OtHr9Rc+c9cXCQxdMiqUViJ8wIrvdEeCD/+mCE0uoupjg/X3pCft7kgzzFzr+prs5Wr1ltzz33nD373LP2wvMvuEB4yVYsX25r1qyzZhfopeWl6kVQXp7B0vBb/FnWBaLMw7LQCN6k8Sck9IR+b+pBIwxLCXSRLo5zuv98DbuZJX/9HjNCmCIImaPNH3jggTZ9+vTclErOIQscvYD4q+UECN/D5RfwrkhSCJ1gr+6KA9p8vB/9cj8Sffzdl6B88LwhVxAAMb+65w3gWtT+ucw9zHQ8i0Zft6nONm3aZCtWrbTnn19oTzzxpD315FO2ZOkSTaWl90Y5yASElt/aLrOSenx+XVNw+3XNTkjYe+j/Gj+NW9p2WKce0wJkgRZe5t1+ZnCMGzvGJk2amFvUjAFYjqdNm6ZflkIgkSKXbWikkaAgjTh3PII4gEhc0S9nXMvPwOgn/g52qAfmGRDzi1k9nvgtiJ/8y537cSwLrisfPasUhh8M0XhNyF+eYQG7DRvW2zLX+JkOunLVKnv0kUe0RhDXGMyF7OO0XMYByPlgBlSUEhISumGniV+E5k/oYxsaKNfchY9tQkPnInfyj/HFo/E3kmkghEAakEiETDv+PFPysLsXl5RaeXmZVVVV2vDq4TZy9GiZaiorK2zO7FlatjgSfTTZENcuguld1x9zEc+g0QPisGVcQ7w0z9zTkn8tIr63J+Cv+738uPYW3cMhjDh4jaCM2FGY+eHENGzrPB/xHqtuchjfGfOq+zPxXPd5Z5ZvEbnnmJab+aFOaUzHQX1jKidE//e//01jAPQCGBxe74Jh44aN1tzc5GGGsQM+8GKmT/iyOPQI/aZ6Fbn0ZXU0nGf1072F+pqQMHixU8RPI4HoaBfxA5tIAPHjJn3J6dpW1M61SmPWuHBqeB4EjXiIPxoHQAmFGRw0QM3i8G47BF5aVibtHi0eYsdcM3fuXJs1a6aT/ESrqAhT+/Y0uggjkBYuCq7wFXAUZsEfvzGvYl4AmSU8n5jpEq/lI/9a/js1X97fwXuxjTO9FNMIZi5c9BcFU08gPN4dSTsSJHHhmOe2Jdg4j2QN4hhMfJc0e57x8yhE+wq8t6mlWR+GPfbYY9o17NFHH7WVK1dYQ0OTlr2mThUWFlszO4i5QCAujNPIeZqU9kxoISikuPgf8ZZS48lQWvx+SFd4d0LCYMBOEX97a/giFmIoKS3R9EdIHq08NBIaE43Gj/ndDhAU7ZvbrbGh0Zq9O0+4JSXFGmTlHqQPyX/84x9XVx4bvQZiq9k7tiQLZe9ApOHEG8k6kl1PiAQpE5X/RaHAM/E6dmoA2dLj4DohQphhC8Otw8cPBLdu/XrNgoEAV65cae9+97u1rHMwjwXizofIOEOMQ/TDMfeJA0KEKa3cC2nomr3DwGp+nCBLnpEw9+uUV1+TfT7qGeD1d0SBhc3/hUUvSgD86U9/svvuu1+zgbRLmseNmGg8hymfHi/yvNUFB2sLsYYQacRURJlK+DmIPzO7eIfK29OfkDBYsFPET/eZT+KZPkeDoDFxTKPvhAgyUhni2pOfhHP/xy0anLR7uuKFQ622plaNknnymGdmzpxpBznRz54zRx9NoeFj2qlwwmeONkKBdzJnnwD90ZxWyQc7aG17ErwXkgukGIRcJMOgNRIvejMeXz+OmRy8dPljOiLry5CXkTBzKXHPaPNMS1Veez6zK9Yzzzxjjz/+uLZF5MtXlkWoqanRjKUf//jHGtjWR06EFeOUF994HO/lg/iwlMLixYt1ny+TKQvKifgBrjO4ypRZrrHnL70PwgVRkJA+iBRlAH89vW9X0OYkrLCytPALcSMAmBG0wgXgvX+9z/7whzs8bzbamrWrbVPdJuvs6PR6FPYfrixnM5sS5RtfBHsgHma2K5nHnxld9Cr4/oAeAktlJyQMFuwc8TvxYmNFs2M2DWROo4NgImiIrLUiMvRjmjrPFTtx0+hK3fE15pFHHmXTp0+z4U4qrE/PV7JomGj1cfNwCB1NU4Ot2IccEKq+4vWGH7keEugjTtlpRCIFOWLjmn4CwUatGVKFCDGLkHdxHIM0RbJE68Q8gekGQl+7dq1++cAJ0mcJ5NWrV8vMwXXCJP8RDOThd7/7XS0WRw8pv1x4L+cxroC4xThGIGjYbOXvf/+7/epXv9I4CkJ5jgtkZkjFZSsID0FEvClfIKJ3R3i8i/SpvNzlx+XlIuSusllnnhK9C5AfEPbKFSttwXPPaxYQgpJtI5cvW66VQpv9PuYcr1WB0D0ILavtcccRLjPEWEW1xJUO0sAzCQmDBTs3uItZxxs7DZtuMI0Ecg49gbCdIHZSGh5zqqurhoWlD8azjSALmI23sWPGyi4/e84Bfn28VbhmimaPRihBQiPG5urvYKCvOzRbA8ebhiBcQiONDX9PIRJmT0Qar0U/OeJ3UuUOceUahBKJG0JHe8dcw3IGOI4hYbRSSB+i13MQrBMvYXJO+sHoUaPt6quvFknzoRP3AP4i8ROffMS4Au5B/Cygdscdd9i///u/S6BgOuIDNwQAQoUeBb00BDVac4R6Ou48IL2b8Dgnjfjr/u5dBfP0CQuFgAzVe/0vDgaTJKZz8uXvRs+7lStX5TaNX7BggdYI4tuADes2qGeknqQrI+QP8W115Yb84jr3qYdMMU1IGCzYKeLXx1HeqiADGkkTJghvHATAjAoayZTJU2z8xPFak37sGFasnGRTpkyR45hVLNkYnF4BjVeDahkf8EujDacQaHYxQzzkusifAWT3V0iD34umnu7gWrweCZDzYOc3mW4gc4geYsdkwgJmaPGsWQPxouljZ+cexBnyqmugNpYB1zTjxf2MHDHSfvazn2lshLKI4N30JLp/WQtiPPnlHlo87//9739v//Ef/yGTTiRATD4IAb505h0Mtu+3334SAgjunOZPmO4IWUTqwkQE2u3duwpMM5BxrhfY0UX8TBgIgjGYAYkT19VTWrPaBUBYH+iZp5/JrRra0NigfCRPWdmTmEP+5GmnR5l8ZrJBQsJgwc5p/A7Z6L2RoGWx9V5xKV9K0m0e4mRwgF34qgvt/AvOd42/xEqd4MtKyzQQDDEEogqN36lQv1htcFzVZiC66kLGL6Ld613egHluW7TRR3yy0yBecR47iMTMdchHpOy/aJ6YbqLTKpUvvqANS9ioBG0eYRCXmYgmFBGRO47Ju0jMECm/aKXcI29xEPD3v/99afyYyiLy4wMiAYf4hzwmLK7jb6X3Nlg//xvf+IYIEwLEcQ8i5YO4uH3kscceq/WNePcYF/S8l/B4A+HRi+Md8Z19gVyFJf46o/cX6gc9TwZt+ZJ3c0enlTFO5PUwgu8C1m/Y6IJ1jQvfWvu///uFyB9hxzmhlFeWa2ZZmys6In8vY3q2CQmDBTtF/Ax+xeYLUTAbh7Vv6HqPGjXaLn796+1tb3ubjRk9JtOSIMLsgTzwQnoPaGXBvj0kEFyeX/z4rdw1zhEEzj1bAYGR/+yeAGTWnu0ji0ZJeuN11p5pbGwSSULmLD9w//332wMPPCCSx17c3tYugYBGzS/PRwKPYUG0kXQZuCRsTDg4wo73uM455IuNH208Ej/38kk3Ejwu3sNtQfwrV9rvfvc7++QnPykBg7ZOvLjPOX4A55hw6AUcffTRduqpp2qqLSY9nkEA8A6eoXzx31eA8DE7YpvH5MNMo4K8+tkdDNZSfzwSQXnJ6gz16tFHH7M77vij3X333d4TeNrWbVivWTyFBUUyWSIE6FEkJAwW7BTxqyudNS2RUmuLSGita7CQ/Qc+8H778Ic/7MSFduT+8OqhxyYTG2Wu/TspREAKbW3M+w9ddoXh91u9cRcMZTYPBBUaaj4IgusxyD2JfALEjFPn2jxflz7xxBOyIzNAColCjmjp2Ogx30CGkRRxkDZh4OK1GG50Qz0PQND06RGEa37L4xGmWrLI3DXXXKNdwCiXGB6/EZr/n4VJ/DH/6Hoe8a/yOP/+1lvtS1/6kgQO1zDNoUm3toQZMKQJR1wQgAia4SOH2+yZs+2oo45ST+Cggw7yejFaxBx7G30BTD1xcDxXIYi7el+et37c2UmZbNa7tam8/PFfqEcR3inQDm7MrFq9eq1r/0/aPX/+s7aNXLJkqXpgCOKk8ScMJhRUVlV9NjveMdSYvKVkZIKdHZL29uYaYZEdfvjhduKJJ6qR07hoX/rt7riue13EBvhlj1eZdbLrBbrW1XPQj79fpIsfXcye1/9bIjT1LsCpXAMxTMA10sY13guB0NVvcbJz9hCZcA+tERLkHKJAW7z9D3+w62+4wX7xi/+zm399s/abferpZ+ylpUtt48aNtqm+zjX7RmvRADjBeXoyR/7hQmT8vYqTIpH75ZrHLIt71/Xgx6/p0hCrrKyyC1/9Gi1hgYaeM4QQBr/ZMQ7/ueO867gGJ8Enn3xavRSZTHhvFm99EUvvzDVs8oXrlEWr92C0525tnS1csMCF3kP2uAvANWvXSbhUDRvm73fyjO/RW0O+RxAOvcD8D/LIb7/k4Dld8mfQ1oPLxRsf/OeZgXaPKRK7fKhL4V7wqyBy4Bx/bO5SUVHuvabxdvDB8+3oo460GdOnW6VfQ7g1e540ee+NNf95L6uFslwIz3a64A0rhAYTKMKVjOEefgibWDO4jzDie4Io3Ol9EC/O44woZr3F+wkJuwM7Z+PvpGIH0qfCoukxx54KXVZeau969zvtE5/4uCp8X4DKT0OidYZGG1qtrruL5/ySCNpKmOpJ7yT6Df45QGvDX4cTfLwG5Bey8XMoJAQbGqLMA04mtbUbNRjI4ODSZcus3skcm3CchcNALfPf0ewhAD7UEvEiFfsERApCDHEOv1zrOsfGfvVVV9u8uQdZWVmp97R4v0v3LH9CjnQhPw+B8sSxavUau+666+2r//tVmarIlfgW8ofjeE7YQ/w5eh3BvFco0xWmrKphVbb/fvvZAQceaPOdTNmXmOWwJ0+eZCOGD8+VEcQexko8VA+vEAL160pdFqcYT31IxSbwfhqjnnnROcf44VY0mW0PCBvVH9LgAp2gMEtRjpQtPbc4E4jeHNNqmU4bTW+hrAtypjV6Tpjf+AXkR4wH/lXDXNCTX0DE73/UNeJNfSdf1EOKCUxI6GPsnMZPc/KWQUPB0Wio1DQYtJQjjujS+PsMtOSsAahx+jtBPmHlH0fGiNc4hbvRtNpdE4vPB2Se3alRuuM55tGvc02Vxs42gY8+9pjd59rvXXf9Sdo9Ux3/fM9f9BEVu0ixoxREADBBSJvnhLj3GcjTENeA7r8m886FF16omVPSGrPraKigy2cXtsi7DPUNDRrwvP+B+0Vi4cnoAiAwwPOUd3wHaVb6/Zxn161bbwsWLrDnnn1WecXAtno/TqwoDCDf1BXWbaKc3RGW/0WtHdqkF6YeINf0dABpVWn6Re73tg7GMsc/vyAKAwav2XWNmUtMYeU7hjiFlfvUJwREJHkQw+opvHiNush7FeEM8uv/Qo/BBZcrKfH5hIS+Rr8mfr0nNhZ/F04NJr/FZAhxcpLLCCESRyBfiD0s98svfoLNtlMNt861d4h+tWu6rPuOqeK++x+w3/7ud3bd9dfZzTffYn/+8z3aIWr5iuX6ClSNF4nikNmBxq74kkeZIOkhnrsOUoXbNrYifr0+2LxBT0+Tb92xbeLvQiT+IFXplYUpo/jnuwJmdBU7QVIO9frobJVW0+SLYObUM22Vr2oxD6mH6JElLrmF9LwHQPmpvP1Viiev8uv6elsX9U/lzgHv4pCTHpLVI0K9yZ7KjjHbRLKmfrMDG+MnbKYP+SMIEAhcQ9MnzczWinU0PsdsNoQEU0QBAkIfN4Ykaeyr088pJuqNlvPQWFaoR/wmJOwO9GtTT4CahQhg64YAMfA/jSQ0JvwxSIw2BvEyI0NauOIcegw0QDTOmppNmsaHZk8XHpMNhEdXnrQ1NDZZQ11o0CwZwfIRzFbBFACixkf6afz4AzmNT66vGm9GdkL3IuO8B1MP5hPyYEhYBG+r3OuWpyJZR8+mni2fdnrz//2qP0PMSCak1tzS5OfYwMM0XuoJ+Y3wIaz6+gblG3k5ddpUmz9vns1zxzcBTEOdqeUmwoJ/jH20dbSLIcN5eCeFjbmOqEdBDySDuO4RkhCON7aDSNTd65ZImjrk96k/+bOSEHC1m0LdwQzEOknM3OIDMQbwEQIMCuM/f9tOwsSkQ1nq3I87qDeeh6SPL4X5xcvmzWHryoSE3YF+buMP5pm4sFkEDQLHoBuDgSxkRoPJb7qx0fCNQVM2j57NPaLdFq1z2dKltnrNGg3A1tTWiJRqazaqYVdWDrPhI6qltdJg2eUJcw5TWKXVEp+M2EUy/i6936/FmO4LxE+sKO3Y24F8Q7mEj/24PtTrAzkUy5B7rPm0ub1Dg6Qs21E9vFqzkY464kibwbiAH0+ePFGkCah3LAZIWZZ7z4aw4/z67mW/s6DHqnEBr9OYnSJifijsLJ+Ie8w3fhH8fIyHssAicdo57Nln5ahr3Gf5DNY8QggQZKPXITaNUZr8PnU8TGv2tLhj3asg5BISdg/6vcYfBkdDI0D7IrK8PxAWjb/rnGMaEGYY5soz4IpG9uSTT8m+zKwMri1bsdw1s/V+3iQNkRlJ+qrVGx3bOBIGBN/SHD6mglhYa0irNcoUwVx91+jUUOlRoOMGaEDYyUHav18M8ewL7ArxQ/sQf9dgaT76gvjR+IcgYDy95BMmHgg0TPNEY/b3e542uFBVPjIv3n/xD5FrsNZBXvLsqJEjbfr0GVqwj+8R9t9/Pw0Kjxo9SjNkyFee591EV2lUOphx1D2FvQPPR6dzf4fyy/MmvCv4gZijn5hvnEsxcEGmr7FdALzodY31gSB/lIw1a1ZrIgCD3gzssrcEApGwiTd1PEwkCLkaeqgKPiFht6DfD+7GBiYidcR3g/gRFKSIRv/8Cy9qSd5bb73Vbr39Nrvzj3+0e+75sz3gmhjd8Wefe8aWL1shmz4h8HUxGj0NjU/0G5saeYHSGO28CARMFlETpIHzdSiEH/wGwsBvaLzMzIhk1BXXlw/C2X5YW9n45T30SMLR1ugpfjtj45em7y/SjBS0Yb+G4NUHel4+1A3yAtKmXkD2aMFxvZ0c+fkf15kttW7tWlv04iJb+PxCW/LSUtvgPTKUDKZFBpt6+LI5rlEUxnO8rPwayeHcX9lj2rpDZOv+CC/6V0+t+zX/zXe5Mvf0AeoHmj0DwnxIx1gA6xtxzGqgPCNB6H4RftRd6gtxDj3aECa/+b2OhITdgX5P/DSGCMLlHC2UbvRTTz1lDz/8sN1//wN273332b333utEf4/ddffd9oCT1rPPPie7fU1tbTDTeC8AksJeC4no4yURBR8ohTEBXsc7aO74Y0VRbefn12nkNF78a+49meF+g9aZxdX/gZBHOggXXjYUWDjcBnb/rJ4uROLPEu75Qfm4Ju+n5BN5pBP8kReYgSBoFxDxQyu/qjKlDrHmE/FUWXge86HbmrVrNJi+fPkydyv8eIU+qipx8qenSRpZRpl3EF6O+LOEx3RvD4oH8cvzy3EkfZWpg3Pihot+uZe7nz1DncKkgwBgJVO+ap46ZaqmsSIMho8YrllNQYFo03OaaOC/cYonXyGHnm5Cwu7BXjX1xEYTGxiNAW0nkE3QjNACWS+GOfKQAY4FzJgd8vQzT9tLi1/S3HrspphjIAF6Aa1tLdLKCYNZFWiVbMqONoqggugZjOS9kAdmHDZqj6QVGzdAM+MjHZiUxg3BdXhY+JHzv+6A3PoWCNP4nu5Fxvnunse/5dPR1NPp+Ympp6goLFuh/CW//C6kpvDdNTTWa6wBIUoeEjHqEqDHRblTHpS9Pnjy8mrznhUO/+WlZeZKiuz7r3bhdsCcA2za9KnSqFnKu7y8ImfqYZ0nwMeApCmmMz+tgHgqLg78xN6JzH6Z36jR4y8SP3HtHlZEzEMQ/XCNpTmox08//YzddvvtrpCs1HchbBsZF+OjF0DYbEbEe/UhmIOeDWEoDll8QnlsWX4JCb3FXiV+dX29QqNZ06CYEUF3GS2dhkCDZuAVO/2DDz6oefNMA0QIaPOMXJ3PJ8XBiv5J/MQKQ02Iw55Bc2OzFombO2+uHXPMMXIHHnSQC4cwfZI0IehZqkFCyAVTOMesFNJBWqm/gcQDoeKX++oJZn7y86cvQK+HPS021my0Rx551O666071VhmDYkyp1OOPabG9rUN5T08J8xaKCnsD0HMNEwYokyAMEhJ2FnuV+NHuaFxo5Wg4VHS09euuu85uu+22nJbPNe6h/aNJx/cDng/ENNiRiD8fLKVBb4O9HCZOmmgHHnCg1gg67rjjbPasma5AVIjI49TbfOSnG60a8sSun4/Q82P1064F+PoSxKGhodlWrlqZ+yKYcSjMlc88/aQNqx6pHJbN39PAxIQi79EybkJ86CWBvu9ZJuwL2Ks2fmlj7giUcNC+aKh//vOf7XbvDtMY6AXQTaZ3wOvRdviD7kX6GN/VREJDHrzYcRr3ho1/6zu7HxWYdbLZV2jJ9AqXLl+qGTRPebwfeeQRfU3N/swQOIpFfp2lvmK+A5pB4/WVdEqx8OvRlAPpx+f6CioTVdkhGtcYVlVpE8aPs8mTJtmIkSNF5M2eJmaNMQYgkvf4McuMnohmkNEGiJO7KKwTEnYGe5X4YzjUXSowjZlzBmiZE01jpJuLMIiNkR4H7wW8h+vEa/DX/x1T7NZf7oZMGWzETw8QRQATDXWGeoDpDxs6S0RgKsQxKLx0yVJdp84wbZe6hP/omA0GIsHG31AvQ8+gpzzaVcSQGIegx0wJ8XEgJs7hw6tt9OgxGghmSui69es8LmGWD0KJMSgEVZi1NOgrfMJuRO8Yejchv6Fp7rQaQ7vsmBBOJHtARY+Dgd4U9SdwKbWB7WDwZU4kYwSa6pA7mR7b2q3BiZwBU8aDbrzhRvu///s/u/baa+2mm26yP/7xTplTEAoID4WRkXwMR3PqZeZx5WJ3katXXX9l9t5wgqAePXqUHXroIXb2OWeHfZMrKuUHDZ+ZP/xKiHu8ULZCbzkhYeex14hfRO4u1/hodNk9yJ/Gxz0EQDwHzNRBIPAMjZMucfwIKKEnZAJyEIHypx5Qf6gD1BvMMlH75zpjE0z55UOqO++80375y1/aj370IwkBzIiYg/h6W/WMQKmP/hO0aQaEvW5SLyHaPkSIM4OyQ9QD0bRifw9Am6fXxljN3IMO0oyluM5P0PRDvDwUxXnwlWzCnsJe1fiBGlhG/gB7rKZgeoNghkbc/Slei6QPaLSyy3YkzadHiLQGHz1gitJc+NawFzH1pNzrCd9ccB6nRTKXnnrDBAGWUrjrrrs0ceCaa66xH//4x/bzn/9cu6IxNZivblEwQh0L5iAQiLbvQHCBwKHvcJ6Dn6DJmwuGgw8+2KZNnZqZUjdLCPFRIXHkGY1NZB+wJSTsLPZazYmaVNCAwvxoTDxUbLR8NHlc1HLiNc3RzwbhCooKrLS81FgSIGHfQVVllVVWhQXzIHgN8roQYBctBEJ9Xb1tqq3VrDCUg/hFLdo0PQE+/Lvlllvse9/7nn32s5+1b33723anCwVti+n1C0DArV7fmLFGXesroOmzLAgWHoJtd5KPwdMm6AVUVVXYQQcd6Jr/WMU/mD2LlE7Og6zIM3cmJOwk9hrx05ggcCo12hWaTbT305hxQ5iHnU1X6z7oFjUxbLupAexbgPxQEFg6IyoDfOhF3UAYjBjJom/Dpe3jl1lh+KPOoNFznfqHEOAbkV//+tf2n//5n/bxj3/cvvKVr2jbRVZv5aM+XNT++wL5Wj7BFmK3918uSRC0b5YQY8eyQlds+Nq8lWnT9HS9DXgi9SztIs5MSkjYWexcjc7j104/3spl93oDGqkI3huinuPcj2lkNIzQOLD7O9FnjhbCIldDaABqjPjlXkJ/BwIa0wxmC9amibbr2PPTWI7fNwl6vhLolFbM2vvFXk+KKHO/1+YEzhe6LLGNP1zY+tCJ34+LClmsjcHerL6gMPjzXnG8juID0uQ0XEfjrvUewrLlK+yxx56wX998i33+i1+0T37qU3bNNT+1x594Uqu2dodI2tMS19fPByvGavtHv84vZM6xxg/08uCPnyz5ueMwiwd7Ps+zJDTnQz3efu5p5tyGejikX3mQkLDz2HlVJquo+dhZ0gc0eGn5IvAABuio/SJ+XVFz0HHu3O8zjQ8X7yX0f8ReGuUlUlY5+zn2ay/LsrJyY89bSI+PqlrQ4l3r5jhHgv4MppB4nbpT4hp5aQnLbTDgG1YFZaG3hkbIOtQVzcdXPcurWx4W17UWkwsASJmxg6VLl9kD9//NbrjhRvvhj39s3/3e9+0nP/mp/eGOP9qDDz4kAdHcEnYOow7jCI89h8OWnl3X/V/uOPrXr/7fGtyG+ElHLs1+HCY+8JYwHkYAgfjDcwkJO4udJ/6EhF0AxAWJaTaOn2tBMj/AFAOZjRk92ubOnWtHHH6EzZg+Q+vXoxjQE4DEMctgnmEgl1+ERiTV6PDPr3oPTsS9QdiJLawuqoX6PFziiXnoiSeesF/ddJN97/vft+9//wf2i19epymhjz72uL205CWr2bhRq7oqdf4cc/Oxw4e4hJ6rzEQQtZ+Qbu7tDAgDl49upwkJO41E/IMZYoj+QxNh0xSxYDZTJexCBRWOHjPaTjvtNHvnO99pr3/96+2UU07RZiysyVPqWjkCIo4JYaNnsTeolHPs99j7IVds+AzisrZ/bxDHCxAUOMLko0EED+9h/ODFF150wv+j/eY3v7Frf3Gt9wCusV/9+tf21/vu11LgtbWbZG6C0zEBxdVagyDw5PpFehRy3Vl8W1AY+A0uHiUk9AV27ctd/ryWo3mhZaEtxS93T3oZyzLTSHjyzjvvsocfeXintaPBDfJi+/mx9ZINgS7iukY9Pd1THu+uL3d5F3HR7BTVnSLraGeP3kLbf/+ZdvZZZ9rZZ5+lPW1xfMTEV6wjR46UOQYtPE67xFbOYmasdS/BgMaeafnUP1xvOFZz6j1exA3v2OSZ0cNAqqYTl5Zp9VbMS7U1tbb4pcWaGsqgMGvsbNywIcw+84eZjSMzloMf0siYA3HRx1e47P6OwLjC3XffrXKgHBkXYTpn6DGFhCnevc79hIQu9Cvip6F620jE3yPIi+3nR8/ET57ufeIfOrRQhIpvbNfUnVLXqNG4ieW06dPs8MMOtdlO9mjbfLy0334zbObMmXLsyTt+/HgbNWqUZu5g+mEdJ7bTRDOGoMvKy1T3CFNLM/ei/rD9I2Sq/W79WYRSq3oAXdOHsbEzfRThQ1zpXdQ5Ma9ft05LK7M8OKvHskEMG8gTDtNHiVcwJQUBw2BYb6t0XUO9E/89gfj9Ud7NEg+J+BP6ArvG0LsJkH6qx32J/pOhzLTRshxO+gJs5kCzlikEskYIiCyDts2GJmxmMn/+fO8JnG2XXnqpvfvd77Z3vetd9rrXvc6OPfZYbXSC8KInsM6JGEGAsMq9ZwfgfYw38G7A4HKZ9yAQLgz8IhAga3oCxKvSheuwqmrtKMY8f4j/4QcftjvuuMOuvvoqu/ban2sMgCmZzBwimQz6trW6MNFmP72E8iffN+np9dMJCdtFvyL+hD6GOL9/EH/sIfILgcKmmEJi7xDi1aCtzgIwb7A+/bCsB6DN2I88UkLgsssusw9+8IP2nve8x175ylfanDlz3N8w2fhlWsl6OTtCWHvf4+LvFzG7Zk4cFQ/POsKhF8C8fhaCC8uCe8NxLSX469RzjD88/vgT9tBDD9uKlSv1LH5CGGFKJj2B3iLQfvg/Er5kQYSHm/2XkLDTSMSfsMeggVwnQRG/A1s9pgqIGs2bP+5LAPg517U0gYg8LM3A5jwTJ060ww47zM4791y75JJL7G1ve5t6AgiD008/XaYhvtbtDSQkMhLHJCZydj5luijxg3S5Rw8CrZ9vEXAc4w9BQ++gwt9HnBmHoCdAWIgFxh2GDAkrz2qP4Hzy3hHE+V3EDzgKdO//J95P2EUk4k/YI8CcAsFCVqKxSPD+B7EGFwdl/aoILyD/XIIAknZ/pU64mHpOOOEEkf9HPvIRe9/73icz0Mknn2wHZQudMfbBksaEgRkIQpdQcacZOAqXvSCKrVBf6vKxGFcZyQjvQlgFARBm5sQ44S3GvbKyStt/Kn5ZOhEQ+FFo2W9vQN7It4cFQvoT0yf0DRLxJ+wRYPMuLS6VKQWziMgxG/ikJwCtMVgZSZbfiEj0/G4L3Gf2z0knnWQf+tCH7Ctf+R/7wue/YBe//mI75JBDbMrUKVZWUmYtza3avIV3MFCqmTawtPEVrmvzbazN44LBNXT8IBYCCfOOEOcwLTWbreOPYv7hGUxB6sV41LVBv98sKyvRc4ztKoxecjeDy5B9yIch3gMJvSXCluDp8DhJGCQk7Dy6WldCwiAC4wLz5x1kF110kX3oHz9kn/j4J+yDV3xQ4wFTp03TYm5sexhmLSUk7FtIxJ8wOOHaMaag6dOmaJroySedYBdccL6de+45dtihh+pL4VEjR2maZELCvoZ+Rfyp49rHkCmg/+bq7rRUYFHBTMKAMDb+6upqmzplqu2///6aIooZh4FZbPgJCfsa+hfx92+eGqDoz8S/e+MWKT3OgC8tLbGqykoRPrNvGpsaZZ9PSNjX0K+IXw01KWB9jP6bodsbrH25QKjwtWyULfwyyBoWT+u0puaw6c/uFj4JCf0R/Yv4E+n3LZSh/Zn4s4PdAEi/rT2slR9n0sSpm6CwoNCqh1XL5JOQsK8hDe4mDEqg2ZcUsz9zEH2sBtrW1mEtLa25VT4TEvZVJOJPGLRAww9f3wZBUMQezaUlWnaZ+fgIgAFp6knWqYSXiUT8CYMW8atbHbvanxtTcOIsGMJ6QeG0rxA+6AqB8qGaFmbLvtzF3LQt0xY8Luf/5ZxHjsXdNnd4XIcW6MvjIR7mkM1DrLigyAqJv9/vDcgH/jTu4T0fFsWL18PSElmc/X7cNpJfznN+8tKla55Whed+Oee+zv0+v+3tLlSND/MIh3WYGE/ZrEXvGF9hRd/cfXdhoTw+gGvVL8+w1EX4uC6hr5GIP2HwQmS7ZRUXOWmhtUBWfYm4yijkCESGHgl/pb687cgIFXKEe/G1LeouLiqRg3Q3s2cvhCsCHtpF1r3j/S3AI3p/tiheXDaD39gDYv8B9kRmkTxAvFlziGWn9RWzB6L3O/Cfi4h+us6ZPaXlrr13FVZfbROR4+LaRRQBDvmsZaYJVklDgHj80qyr3YJE/AkJfYRAniz70CbyKiwKC8xBg13r+7BERTgHGc8FGhXhufN7ECUfl2kdfidcSJljCFcbvPu7eiu4WD2UvYgJnEXoWO+IlwUhGOLEu9Hi5TxcSJd0kB6e5xrrEEnT9z+93//CeYgz4BrCqRDB4ffoEUhwuEZPvBFg7JHM5vlDeLcESfasP4ew2WLJjuxeQt8iEf9ghtpMajh7CvogzAlSG8HA7p71ECSkiIYLoTm3OakFrRfaFvm6H0gRjbq5udWampptydKlVltbK8JFM8YPZIhJBEKGD6NGviMgOLSaqIM4sGF9YZGTeKZxExjmJFY0JQ1t7e3a57ipsVHv4pnyinIbPmyYyJ8aBfmTgCEeRkinrsDeygM0fdY92rhho4fVyB0Pp0jpZUOaICDZoyCkh7GYYP4JAkC9Go9T2CQ/oa/Rr3LV644qUUJfoX9nKGQxmDBu7Di5ivJKkRfaNDt4oa23uyBobG4RqcOVmK7hwBYnv7oGdhOrsdWr19jKlSts+YoVds8999jzzz+vMFj2OWrAIkh3EPbQwt41X7aoxEHgEK+ItrVFxAsBs9NYk8dhU02tegbsgMZXzjNnzbRp06dahZP+urXrbcFzz1ljfYNr6h53Tw+ii7ESbbCD5u6QIBE6NS5R6AJgWHW1jR0z1oZXDwvv9/g3NTdqX+QRw0dYZRUCpdTj570HegYeP+1+1tRoLc1NWXgJfYkkThMS+ghLly219RvWa2tGLUPtLFhaXJKZNjJSc9JDe69raLIFC5+3u//0J/vpT35q//mf/2kf/vCH7S1veYu99qLX2s+v/bm9tPglaeuQPmSIvZueQlFhocwovZXp2OsLXduGlQkDcwsb0LCL2LBhVdomcsTIkU7AVfLPbma8m72FX1z0om2qq9f9mTNn2chRI7XyqIDG7/GB8okK8WRJawTd+jXrbMzYMTZ29Gi/udnWrFljy5YstY3r11u5E/7wESOtpalFu6Ztqq1xkm9WLwktn/C133FZuXZBS+h79CviRwtS/zehj9C/MxQSG0yA8JkqWllZoQFSVHqurd+wwZYvX2GLFi223//+Vvunf/qIfexjH7PPfe5z9vWvf8OuvfZau+322+zvf/+7LXQtf9ny5bZ61WqZW2QGcmFBOGjL7BlQ7KSIzYjrvQHLReN4HhOK9htwtLowaUTT37TJams3WWNTkzHrh3dg2mERu/1m7G8nnniiC6TL7OOf+ITNn3+wzEEQvQacs64LJVnggoU/pszOOXCOXXbZW+zSN7/ZTj31VO2eNmXaVBs3fryHXaHeBQICc1VRcbF6JMUuJBnH8Bgqfr2Uawm7gH612Tqgq5g2W+8J5MX282OrzdblfYjsxOFoa/SUx7tjs3XnBpGOjvV/eHesR5MnT7YjDj9MWyj2NfKTuGbNWm2R+Pjjj3s8+pZaIC12CGMHsKphw+zRxx6zhx5+WGabe+75s9199906vu+BB+z55xfaosWLbMXKFdo0HgKGyCmroFF7vjgJ05YgV+6h/Wq3MCdGNHfyrTdtRJq0ewv5HwZuCU/7DPM+jzdkDvnuN2OGHXPMMXbGGWfYOeecbWefdZadesopduxxx9uhhxxiTzzxhHoBzS3NKlSIm94ItnjqXMT48ePsH6/4kM2bO9f2239/bYpz+OGHa2+EGf4OeiGYfKgNDASTbuLZ1h62uJSQcgEV9mROIqCvkYh/wIC82H5+bEX82fVE/NmBY7cSv5MgZIoZZvWaNfa73//e7r/vfvvLn/9iDz70kPJ05cqVTrph5g/kS9rJG6KogdwsTxgMxlxEW2IwlryDnFtaW/RMAFM8d5z7ED1JlV+8+wuLPazRY8bYrNmztY0lexkf6e33lFNOtjOd7NnCkp3NDj30EK1oOtb9stH8X//6V1uwYKE1NXrvwMNBaEDgDBQXepiAQV3GJd7//vfb1ClTbJKXLeV68Pz5dsCBB9rsWbNtqmv/7J6GEJg+bZo20aHOwiWMM5An2Pw1MygRf58jEf+AAXmx/fzoz8QPIC/eBxHhYj2BQCCII1wjnD17Vi5OaH27Ugd4DuSe5YdL/huJ/zHXxvua+Jk5g8mktqbWXlrykurw2rVrbePGjZq9UlxcLMIVcWdxzMFPiTf3cOwAhhcINcwWCnnFYDGepQ1npBhS6fmalx7SHtspGnVFebls+Zhapk2dagc6AR93/PF27rnn2qte9Sq5888/39vwESJlBngxVxFGEEiEaeq1PPvcczJD8TbaPwKMWUFx8Jjpnwzcvu1tb7XS0rIgtDwObJxf7vEYN3aszdhvf+eKk+y00061o4460ma5MJg4YaKNGT1G4wmso1RRXiGh194Wtu1UMeblUUxnb/gmPB2e11Fe/sS8EkhUdhjvA9WpLHvjMwMZu87QCQk7ARpK5xBMA8G+zKwNgLZIo9IcdfeDNhxB41aDy8Axrvv1iHgv/z7tk0PMCNFkwL2OzjC9sS8BQQ+rHmbNnrbVq1dnxFVslVWVGqykN8BMGmzYmHEYuOUXCiFfmGJZVFIqG35nRzCjOONZY1OzpkTWuUAWgTqZMpYA2SKY9TUuafdfmW+Ii8i+QgQ60zX2U045RfsSf/ELX7BrrrnGfnzNj+1zn/tXe/3rXichUOVxhNxxBe4K/b/CQubVQ3IKUmCbzPgOBIPs/DpD0w9z/umtcM/FvK6jteMo31j+JZ4vmIdI6+SJk+2Uk06297zn3fblL33Jrr7qKvv6N75u//zP/2xvuPiNNsd7JdOmTtOYQ0lxiaez09pa2qzD8w9yJq3kBcc9gfcifPjjm4KQ5/7n7x86lIFyfzZLpOqO0hSe4R6g/mDS4nkP0f2H6wMVifgT9ghoRDQekYYra2qGfg2SYCogWvHadeu0JSINDMTGCKlBKvX19VZXV6fGmQ/u49TAIRknl/jhVE48KKxwHw24sLDYSpxo4zv6Am2t7Ofb7EKtWcf0ANDISSs9MAY9Czy9rS7c2j0NwS6Obb1UggHtHjMJBL9uPT2F9dba2mJlrj2jJU+ZOFFaO70HehLr16/zFDG2EIQB8/DZZAY7+hvf+Eb74n980X75y1/at7/9bfvUpz5ll1zyJmn0o0aN8DxinMAf9vSLqN3taagn4Smgx0eeaOqr/5a68JvuRM9YwyVvusR+8pNr7Kqrrrav/u/X7NOf/rS94x1vt9PPON2mTp+murPO84L9FahbfDAWHYUfyZtxEwaRmTaKgAVBEHuZuaCmvOJ3BfRgGPhu9rxv8euEUa5B+0oJXMLluYGMZOoZMCAvtp8f/dnUw3sCobvv7AFIkPrDdZk0sBd7g2IWDCTPu6UJ+/VA2GEQUsSeF+94HLQ1NP6s0fszuuP/SYfzX6YVPvLIo/b3B/+uxi4TQg95sCsocO0xkKhrkZ7/agceD8iktaVVxIaAgkDQgLnOZjCklemM+MUUMrx6uH4xjeC/sb7Rampr5K/D2bq8vEw2ccwiE8aPtyOOPFLbSr72ta+111z0Gjvv3PPshBOOt3lzD7IJE8e7pjzSw6zWfHwIsLOT9Ib8IIoy44Qk7BB33nWXPfPMs9bU1KR8w0GgyussH/lhZtNb/wFTT+lWYcfzuByDwvE/6itlS94wXoIwrKyotIrKKg2WMz10mpP9gQccYIcdepgdc+wxdrL3FE4/4wzFgdlJkDth8BbqA988UL+YQdQqk5S/J6sjaP4IHeKDaY2eAz0Q1TcS4f+kVMh/8EuPh6+q/Ybq7EBFvyJ+Cp78TsTfE8iL7efHVsRPhnqu9hcbP2Gh5QYThl/w+NHIpGV1tIuUn/H3LliwwF566SVbvny5ZrxAeNE0BPHH+pUf93jMb6yfuWvR+X9r167TzJSHH3nE30/j3VKIvBxAEDl4kIqHx5X4RnMHYxt8mASJSNt3osF8wTF2fGa0NDU26BetHO2X6Y9sHTnWtfk5c2bbkU702Mcx35x88sl2ysmn2HHHHmvz58/TQCyDpqNHjZKAkJ0+Ly/IBOoDpxA+ZSAyo2eiC9vH7iD+EJ/gFI5fY7wiDupKGHhelJQUW5XnxYiRw71nM9amTp0qMxYDx/vtN8MOPvhgO/zwI3Q+ceIkG+bCggFnyL+5OWj1jD0w3Q1Cpwz4BbGcwlTXcE3lhhDxcnGVQuVL3BQfr7fEcaCiXxE/5cyTifh7Anmx/fzYWuOnYkL8GVHq/y3RUx7vnlk9YYlktHyZFTxqaE588k88ucfHPEuWvKSZLxD/iy++aIsWLdLx0qVLbdWqVRIE2M2JF45wI+nkiCM7p00rB/IaOOYkiP+Jx58Q2fYlyAdeI03T06Zfv0AWEy/STby4Hsini0hkp/a84LlWF3J87Tp50mTNf4fMjjnmaDvWyf2EE0/QbBvOmY0D2U+fPt21+hESINGWHt4TNFRlgr+JeGg5BK8OHIOYPxz1pt32JfHz8hiGTvhHVNyHYpSVmcg3D8FEWKh6QPh86DXD82DuvLneGzjQZs2eZTNcEJAv0TF7CGGwqa5OA8bqlXmccVEx4n2x7DgmTWj1fFRG5DQpwfNUH8H5X0zvQET/MvUQtj+aiL8nkBfbz4+eiT9oeKCnp3vK491C/HSr/ZcuPHWGBsTALu+nvkRtingDuu0QPYTP0gXPPvusu2ecdJ6RnZ/ewPr12MBbFQYuEoXSxLkfcwnFkrpKnJlmyVROyB/iFwn3EeJMGwESiY53+y9pRgPF1ENiIU+WJKA9DRtWbVOmTtFA5gEHHCT79vHHHy+N/rRTT7ETnfCZcnnQ3IM0/RHzDdoreal36j3BZR9w6J20TZnU3E/Ip3Dd/yk/OMf80ds225fEHzV96mnXoHHoeUDuhIkwxDSlsvS05co0zwHeSV4wjsK3FBMmTPTewEybP2+eHXXUUdnU1EO97myyaZ5/EyZMUB5WsD6RCxDyhB6B6hPh+btl2mlHCITwlT4/QUmhR9bXisOeRLLxDxiQF9vPj62IX977B/FDSMHMg9ZLY3aSQrPye9HOrimH3o3Hvo1GxjUaGaYeBjNXrFghQXDrrbfavffdawufX2jr160PBOpaMjb0HAl5uNKo/YCZKZAfJ8y2efTRR909pvjgp68QZiSFmUtFLNXgpIcWHm3GIhdPT0trm+ztDMROmTLFDjjwADv2uGPtFRe8wt785jc7Yf6DnXbG6Xb00UfLnj1hwjirGlalQV6mg5IO1v5hNzENPvK+rCeFC4QZ9hfmnLKSPHAnIeQOUqPkyGPyqLfoU43fAZWrLnicqBeYASF9/AQX4ocVSgKhB8d7SaNSJL9DXMEI3z+oR1Bepm8Qxo0bb6965QV21plnK2/pTWEWwyQkHvO6QD0tLSvz8mOROcxuTRojoAz5NqHUw8I8Rw8tmqoGIoaMmzCR/Ool0MykJ6jRUNH5vJvPyamU737XO+2Tn/i4KtvOIEaAukjBXfmpT9sPrvqB3pEQQV7QFED3IuO808aMGWNXX3W1BvUoD3VI/Raf0uMjPh1Bg4uNFXAOVq1eY9ddd7199X+/ao2Njf5saFj5CPq5a2f+v9cKHW8PzLKgcamAw6Oy7WN/xV4KcaD94tSwnOD4pTsPKdAIIZh4r7m1Oazv4uHSuBnsxL4dvw5F4ysvxx48QvkSPoIa4gLtGfvZz661H/3oRxKOLV53Y7r7CkHzDlo+ILkSvu6qqqttzqxZdtxxx9lpp53mWul+IknSL/OD51FcUoFwEBSknfBYGbMkSwcIs6TY3ITlmgM4l5B1PwWFgUC3BWLnXlVHCJJpnDvClZ/+F7vxxpu0JpG0cnfMPKIMAwHzbpMN/k+uwFW79p0fLO/knF/GdRC8Q4eEQf58f6G3RFctTPXtCcSd9CoB/rQUCISBB5QfVgS+IhB+PMtMHoSnZmN5OpiJ9Ytf/MLu+MMf1LOsqa1VGyAuEkgkzgMinQOZ+JPGP2BAXmw/P/r7rB60OeoMsymwnTKHerMTmwSQt1ZIHoFFQ4fkcTQurefu/gB+WtndqcMJwcNDCPA8Sxhj/nnhhRdkxnnwoYftscce1xo5cWCYjU0YI3js8cdUv2SzFWn0HSATSIV4jR49WksWnH322XbppZfaO9/xDrvszZfaueedZyccf6xsz1VVaJsu+NxhBsIkE+mEcuOc2U6Up+aOO/kASA8w1z6WITN+KI2gCXNdlwNBukMgkFz8c09lF3+z4x2hTzV+PwhE3WVnB0qFnyO28sPlej64zHMxvRxzDd+kOUfLMWi/Rh4pbH8m9IiYPVSsXqZzocqDjwjPOOM0O+/88104ny5FglVXKdM2762xXEWYETZwFdOk8Q8YkBd5NXgLcN6/NX7Au4KdNryXrj0aP0FxHu3QxCN+tg8xgBhXutjaVMQfCmEE/7FHQGNmsS9MOzRU7LiYU7Q08Nix8v/C88/bA/c/YA1OXvQE/JKiH1PAOe9G65S5yP8Ksd972LwDEwvXWXaYHgimFq7PmjnTJk2eZFMmT9GME76SHT68Opt6OdqGjxiRTdH0PMtLF4QMIllzX3miq13IvG1xXXHPoOcc+dcA13UrhovjPA/ZrR0iavzrXIDSPqPGz+qfirv/kcfjpfH/Ufb2bQG/AeRw79D1xPaRSy9wz9G/y+SQ/m0EEPOeA8qUZbQZEF6/bp3MjevW8X1FjW3Y6ArEY4/pS/C1a9bID8pJqI/0uoLYiT0/CSaNAZHWUGe5h9LMcYHXa6D3K+LUba8T9DIQbH7COAh+iR51kF5WmALdJg7mHWWlZQpzR0jEP2Aw8Il/zyJ0xVkKGUHABzkMqo5wIiaZ2PrpCUDaQVPMHH+eNEiW59VD8R4HD2HjRUOkgbGkAfZhtHZs9fREOJ44caIGDsc76WM7BlGIhcY/sOt0PvF75ik9bZh6WPZZ9QSTyBCb4EL2T3fdsV3i78+IxCxSxgzlaeKcj/P4yJDJBwsXLsyNPfFLb5IJB/Gcj8pQPvh2ImxdGZQTwiLMGC4Y4j2++M7QMwstjrykQobWFkQlHIxpih6iBqb1DMtaeA/Gw+kN8SdTz4ABebH9/OjPpp49DZFsQaijCEC66DQ6PvWn4TY2NhkzQJzbHV26JwytBu+HaFrU7/KysL4Ms0EYEJw/f76mVrKQGWvdnHfeeXbaqafa/IMPFvmj4SMIoiANUygHPumDaOphCWfPINUfBunDuERWJ/yH+fZvfetbZOoZ6IjlRlo5RvjT1qgLc+fOlSmIqbWsQErvkvLHzIcCwBgT32JQj2hLOOoXYXEt1FMPvzP0Aqh4ek/2LnIUxYHnVCd1vjkoIK5gc4w/zFWEx0b2/O4ISeMfMCAvQsPqyrEIznvQ+D1D+SvwBoqP+HSEtAoyPEMkqsGg8Xd2hjEC4sUn+uSDGpJHU1sRdrRZ9fARalQyP5FXfo/soP6WlpbbsKpKfTzFR0LHH3e8iB/Hsglo/5A7DZCGjM03DlKjgTFwDdD4uDZYsGON3/PZ83Cga/wg1IlQb3pCJHC1DP9VPXAuRKkAmAHvuOMOLWxHD4HvVBiLYpYa7Yoegb7abm4RjwLeRZ3SJvX+S57yXQc9Vr0ra6+MoYD6+gaZmBAUxJUJD5XD2AEu+NsW+hXxu/DSzIIrr0zEvzV2hfhl7PE8ZUpf19MRVJTBSvzEToN+mtky1BtlGESmkWAfZTrksMpKrfOChjRqzGibPGWy7TdjP5s9e7a0twPmzJEGx5RMNC7MO7HxhbGJoLVFaI9cr7NouRB+BO+FFAD3d9Qo+zP2JeLPR2wbIL/8KFcEPVzVk4DgPg6zIuZFzEB8mMjX6XybwjEmomHVI6zBhQDjB/X1dVJICgrDhjjslEZ9IhymLFMXmaLKeBczo+hxafE4jxdrEVHXd4RE/AMGifh3BnEOO9MhN22qs05vINp71hsGjUgziLzxvPIVr5StHi2e7jnddNa1YTyAj3todCSNudzM746gsYnMPRvIN6YFEi6CIAqHCIQEdbn79YGIfZX4AeUc20wsR3qVcd8EzF1cx0+r9wCpM5S7zDJcd/+QNvfYyJ4VV5kdhcJw621/UI+AZUsYLN5Ys1E9B7gVRaXNHfUXvm1pbda4E9fLXfNH0aDH2eI9B7734JnYlreFfmXjJyvJz2Tj7wnKnXC4DSQbfxdodI1a8yasorj/fvvZ8cefYGeddZade+559spXvtLOP+88fSGLnXbO7Dn67H/8uPESAuQlwoH8IYu05o3XaxoUjZ285Tw0eOyxYXE2QLuQn0gU7ieE0x9zauewL9j4I2l2L694nn+d4ziGw7HKW9e8TnidoU5oWQg/hitRDnCYgapcsRg5apTXuXFaUoJxAr5DOVTjBXNlVmSNJg9MygMb46PhYwLC1Ij5RyuP+jn1jd4As9kQvjtCUqkHM1Q/t6y8+woYMNMyvK4hjRk12o46+mhtNvL617/eXv3qC7XpyNlnn2MHzAlfb9IAK1x7guxpoJp6RwPmj4bt1yJyDTsjfu5znn8v30VSQCCol5AwYEE5Agge8w1CL5ZzRBT6ERzln4MoFBAC9CTZyJ5JA6zBdPrpp9mrXvkKe+MbLra3v/1t9r73vtc++MEr7ORTTlaPFe2faZxVVXz4FwQv7Rxlr7fWlkT8CYMSkDdaFdPbMNnMmjXLDp5/sM3yBjZmzGh9BUvjQ3PSXHwnZ30tir7kv0FrctKGuPMaNQ2csHH5JBAbdrwvTc9/CRdEP9FfQv9FPpFvq9w4R4jrenc/2b1wH0G/5bPUCwif6ZhRKYiAvNkUZ8LECTZv3lwJgUve+EZ773vfY5dddpkdeeQR8ocJFiHgD8ucyXsIs3t420Ii/oRBCQZxmTGBfZ9fTA6YbwLJe3dY7TU0SG8q6o6LsN3xJS0zoWLz2bLZbg0aG0TfU4OLhMA9wsclDBxQdj310ihPfdfhZAv5qpwzf5hi6DnisMnry+xMAeiOICD48BAFI7sIqJ/+w6Xi4kIrLy+1U089WaZc7PhMSWYAGDM75ljqu8w9TWHPhx0hEX/CoAR29eLSEiv37jAf3YjwsX96o4DUi1kGOY/c+eUs/G2J7uc7AwiiNxpYQv8EhI2w7l6G+ecc448eZPfr2wP3URjYQS2CJ+T8v+5P80HgMCd9loxgO0+2+ERhQcBouQ+ch9cbJOJPGJSIDUjYRgPs+WpCwuBHIv6EQQtpYu747TrO7oWfhIR9Ev2K+HdsmUrYKShD99VchdqDi8TPX6L8hIT+RvxwVGL/PkTK0ISEhK3Rr4hfulhSyPoYKUMTEhK2RP8i/sRRfQtl6L6cqV09ns7sL/WAEhLS4G7CoIUTPHOr3Wl987gCZ9fdhIR9Fon4EwYlIPbcN5Nh0f3sOPwiAnSe0GdgGbKwFFlCf0ci/oRBCRm5nIOGBpbXcTR6BQNYmOMzUJAlI+ci8o+7g8kS7DHr/8LEiW7gEh+bdnSwXDVryXdYWzv7GLDUQPDTHcyOAp3uZzMLhnFKT8qP+fKUc47pXbHaLuHQ44qOd0SwNDauhw9jc1Ac/b+eosO17q47uMbzxGV77xk4CCmNf1pixCt3zvlfb5CIP2HQQhTl7SBSfHfyHyjoqSmH5t8FEaw7fvOv52Nb17sDf1q3KCNrBAEby7RrC0rPO5G/H7DUANNk3S9bXAaN3+/AsFzLXpj/3m0tJ8BlHmMJA94ngeUu66zlwNPR5aPr+a546/nM40Aq7x0DeufPE9yN9DdTyXuBRPwJgxfe2nNz+DNNdaBhR804o+Bg1oL8uj3A/XzzC0fxTDkiogiOLAq5FEgzkm88hpA5Ji9Z/TQueaFF7NzlxlMUBiSMdh/8K3D3HZZvDtD6SCx14CzEMzlh47+Myfg/vx6ECYjh6iA7yd3DL8/7bxAAXXnBq3kHbjCj09OJ6w0S8Q9mqOJntX8fA1q+U4qYIZL+QBIAlFpvSg4/pAgTC1u34jiH9Nox4aCp+69IMM/FQ8i8hY1BmpqtIXPNza1+vV2EWVA41AqLCqy4kBUlC1zAhL0Ihg4t1HpIQPnqvxo8d4cgYA2aRi0ktjmQOA6/QxEQwa+EBCcOmYn8P22gg+O9LFzm14h75k3vIV5y4ZLu8zz+cQWFCCbC8t88fwld6FfETwGqViX0EVKGBkqCKAaa1r9luRHz7g5CxTbv/7YqZQivyAkwrNGOZu1+nD0x17BbWHu7P+H/ipzQ2WWsoqLMykpKrLy83CrKS620pFgEjB/s8PWNzbaxhpVOG7XbE2YehUejzfYj4Jw/di+bc8AcbXtJABCwSNlPiRdxbm5mgx8XEn6BuNOjIF4tLWw4wp7IWK9DOiXMOHBwDZcPkXt2H3DYnfCJJgIwIYCSSUhI6HcItMX/+QSWD0gTcoYYYcM4SIvjGJrjWbTlKBzQ4NHcIWLIkh4Bu2nVNzRJKLAl4PoNNbZ02XJ7+pln7b77H7Dbb7vdfvWrX9l11/3SXnzhBW1A0rE5rDfP/q7O+zkQJ5bBvufue+w73/6Ofee737Prrr/R7r3vflv80lItJ7y5s0NLDTc1t7hff68TPs8RL64XuUOQdGRpATEPMOFwnUFihJeURa6Tfu7h/Di7nANppUeRENCv9tyl8CibKz+V9tzdGuRFrLjdi4zznvbcDRoYtlh8dK/2aGj5WnDsdg+WzdaJNX9sSv3pT3/aLrjgAps4cWLwMIARctv/939qi55YXaP8OAB+kbakU/+PtkV9YLQ09BTaVbY1tTVWU1OrjcAXLVqk/WC5DnnXbaqz2k21Vlu7yTbVbbJmFxAbN2x0IVHvxNum92GaoZ0yy4d3YcpBIKC9z583zwl9qPY2HjF8uA0fPsJ7ExXOFy1ay37cuPFeZ8fa6NGj/Nh/R42yqqphVuo9DsoMkxFrzLP3bIn3QIqLizxZYfvLiFgv86pxDsFfZu7p4f5AA6m58cYb7fIPXE5Ge3kGs1tMHMdaHrpr4tQ20a+In3IiDYn4e8IuEL9fI0+ZeYGP7nWfhjFYiZ/4hFRj+y0U8b/iFa+wCRMmbJHmgYZQpmi6lAAbyBSoJCB2dmEK9vSgjQd/nbZwwQJbvWat1dXVOZlvUpk2Zxt+65o7Nvpe/NJLTtit2tu1lQ2+/RgBQU8AAmawNm44wwYgvAtyZp9X2fD9nVoB1YUB59VVVdq/OWw0wuYkYZN7BE1lZZWXxXgbJbKvsuEjhmt/WTbL0Ub35eUyQSEIps+Yof1pWYueDXV4n7bDpBy1Raanna6AQ8TnF6jKIU8Cp0AlA7fUA6jNifj3OSTi3zl4fJgL6D+QVSR+NP6BQPwxR4lpjC3lGUkdBym3NLVoY45NdQ0i9br6OpUZxK29X/3vwb8/KG1+7dq1cvjBFESphnAg9na9r2NzOy8SmHFD3mlHMnYO84hA+BEM3BI3/Mj04/Ehb9nwhvBKiks1HsA96hZbA0LsGzZulOZPClUHaef+G/yFLQTLy8qtvKLcJoybYCeedKKEAQKCMQi2zSwuLpFwGO49iUr3x761JS4UykrLXDgwPhF2WYP8Aa/o/6W+fZCURPz7HBLx7xQ8LZpb7umDmK688kp75StfmSP+mNbtCgHCyA636+9lQu/I4iP4q7C9Q9wdGoxtk2tBG29utjZvd1yv3VRnL720JGjrixbb4sWLbemyZbbezxtc0+Z5pl1Cohw3NTVpBo8nRoO3ECwvR4DQM8BsE/MFqJ27X/5AB0Tj95mSyXU0eTR7dpAKcW0jaIWPMIKEC4cW+isgde8t+HNlTtYba2qs2N+NWQmwKT5lBBQXFwCED3nz2+ppJ25xA3z8IgjGjR9v06dNUy9uv/1myHREr4HeQ6W/Bx4ibkXe0+AZNihnJ7ZYliFtOtB5X6J72+oLUDKJ+Pc5JOLfGYiUnEQAJPHRj35U+5VOmjRJ10CH32erum01UJGZO+6j8dKouiPmWQyjp/Pu9/zCFiWp93h8uR9NJZhfNqzfYEuWLLHnn3/eCf4lkTua+8aajSJxBkWjRhvDzr1jH8AW5eYZofzzMkKQsE3hxIkTbNq06TZjxgyVO0L/0EPm54QAgo/y55ktwtoBeA+OZ7qXbTynbnXfivHlgjck4t/nkIh/54A5xBtGR6fMA/nETzohcn4hXUBqqG9bkLvfV554HvWUT6B7w0Zb5X68jgZLmLwvd8/Pm1uaROwrVqy0xS9l2vrSZbZ27Rpp67SpttY2z/8GDbS2tdHIO62l2bX2FjbXRrtG+y3We/Z1MI5DfpDHwRwVegxo+KUy/5Q4V7kfz0PGGTA5jRgxwnsJ42zy5Mk2ffp0mzJlisYcRo8erfugJ6FAGfIemb8yUI+4Hnsu+XWgr0CtS8S/zyER/86AAT7iBvEyIBiJH62PdMZGGwcFY+zJj201dJDf2AENHpMFvxAKGR4FCNdXrVolbf2FF16Qtr5m7VqZbfhiFts6M1Y2MXOmxt2mTa7JN+o+tm5MG7y7Hfu7v7/ECYwegUjG300ss2jt81DV5T+VH9lLnQ2CO8xmoq6bTFyAMsYMVsJYgZM8YwUIAnqHkdTpNdCmUBYQCtSdsWPH6jrlS6+McQfInvfEukT59zXpA5I4KImfbisj9In4e8IuED+V0f/21emcXllzxP/xj388aPwZ8VO3IFAGMGPDiXkRf7kfCZ9rnOMIE1Jvbm6Wdr7JCZtfiL1m40YRN3mPv5qaGluzZo2tXLlSjoFNiBxiYUYO5aP34LLygJAi+aDJMoOHmTbhvECDoGGpgwJ/VzBn7evQF8KefyI+d5rt5MWomunXVebK35DH5Olmf4Z81j2/BoHzLOXGOT1FxgxoVxA+PQHOuY6jl7D//vtrjAGBQfnE8DgmjL4EaRmUxM/HFwWehiuvTMS/NXaF+KXze55CMF1PR8QKH8E5GAzEr6mNTqakiUb6sY99LEf80gAdfIiElk4exHyg4Wog1e9hR4fcyYN61+44r6uvD3Pc65kaWWe1tcxzrxXxL1y4UPPh0QQJgzAjCUStkPCHeCUnChBPmwsBiIb8YwCzuKhEcYqCg1gxN14E79cIh+thxk2RC5Gk8nchlGGs1xSpuCorX+pEW2uLyJE85S+WCb9AQiMj7XiNY64DruH4DuHYY4+1o446yo444gg74IADZCYiLMqH8QOe60sQm74i/oLKqqrPZse9gL/AQ4+ZSSLJJGxq2M+OOOJwO+nEE3OZtNMgbH/0zjvvsocfebjPM25gg7zYfn7QZYXcxo4do/KA9HlG8511tDV6ymPmXj/99NN2/wP3i8B6encUBFvf6S+gMnU6kRaL+I877jibOXOmVbhmFgG5o63j0MyZHbNixQrZ2xcsWGDPPPOM8uG+++6z3/3+93b33XfbHXfcYX+44w92l9fRP//5z3b//ffbww8/bI8//rgIgfyKpE87oI2I7Mln/uk3tJ0wcyfcwxaN2UA25lGjZXYgfvV19eoR8AxfnhYXl/oh5otIVv0z9/c04KHIO5F8MaWhnIbjdglaviWQtuJZh7/Yq6MMEKqa6eSIvbt4P/8XhxLAoDtCnnOULsYLiEMse8pH5d2HoE7+7ne/U30I7duR9w7ep3X3doD+RfwO0pCIvyeQF9vPj62IX973TeLXh0jNLWrI1NEDDzxQjZPGSKMlXTTan//85/Z7J3UcyxJcf/31duNNN9otN99it99+u911l9dFJ/alS5fKVo9gQEjQE6D+Y5YpLnXhUlaur1wb6htU/+n642L+0kg5hoAamho90/BTYePHjbXZs2ba4YcdZieddLKdccYZcocdepjaFV/WMieenjUfLZWXl/mjaHtB8+yfub/nEUiZ3g/mHmZhBc290Mufr4DJP45Z4mKo52N+vScfI0nzS1i4eE3hZEIhOq7zTYRmV3mZYv9n9hBmxXwBBPLf9XLRV8SfBncHDMiLWMDdi4zzNLi7JTBxhUaLJn/44YdLm4awo5aGeQazCvZ6rmHCQcsGNG6683wsJA2vsUnXadSEqQZGvnqeRZIo9TzHL5ol9+I7EMhTp06VO9QJ/uRTTs6REjZ7tNCSkjL5Qxgw3/3FxYvsu9/9rv3q17+2DRs2aFCysalZAkZhu1BAEDA4mbB9qFqrnDpk6iHvcZSllpjw3hODwRHR1h+ESTAXxrbBL9cAdQQ/kP5b3/pWu/TSS9UGgeqF+4PDoiB4uSAGfWXqScyaMCiBckIjiDZxbO/PPvesPfb4Y/b0M0/bkqVLNOjKrBuIFfKnIWNuiQN4AEHBPZYJICwIA5kHWYjkM62OdzEzp6qyyk4//XT75Cc/addcc416ED/96U/tq1/9qj4ie9Mll9hcF8zz58+zg+fNs7kHzXWNf7bNmDbNxjNjpGqYBACDui1OUswHr6god0IZ67+VigfarOah76SCNZghZZSCcfBRGdo/DiGs8R6/TtkhzDGrUZZhiWi/40WoX388Ej49QupNFOrxHmFQT+KUUPygNKD54w9HfeG3r+fx9yX6BfH3lDXkNS5hcIBGSWOCLOlqMziZ6z1645B2pYaGuuLaujdK/+eH3vC45pWBbnpJSVi8S3Umu6f7WR+EZ3DSxr16w8usC8NKkHV19d5QWW+GLzmLXEMvdwKHxGnYHie/hhvKnHDi5yGqHhJHZom4w1/sAUXHNRz3m/09M2bsZxdddJGdceaZdvY55+iXMYZDDz1UM0EQDixZoOUFnITQ2iETSEXpyqD16v2X2TsdnlZ60uoFY67AL8cDGCLKSKwZYn3IOb/WiWa7lYPM8xz2DXcc65f7eU7s7tdZfiKUY1Z+runnl2G8zjLR1BXqR1ERX/sO9WuEEfK+1esqBI8AoJeIAECYAAREfhr6I/pNzcnPHqqBXF6FSBjYoAFoyh1k78eQf2z03kw0CKuG49eypkgFUHe5HYHR3ib/XGev1+CCQOAawiAIikAmCBEaJg6CDwOp2H/R2lkuoN2aMevQMImLP0rDxl+bP5tbD95JAuKlhsZ6yTFEAPGKfD0MrrNWDPPyIYMJ3v3HT0QkAEiBtDLdcHuIs054F3Fh6WTMO8RK8fBbIS4DGJ4AmrgEQExMyKa8e1SJQN45p5SHuqDi0zNc9fL1Y4ok2Pgh6cxlRSFB7//xC+nzcBDq1EI84RSyh4YZyK+4sCDDqT9cpw5RVyB8BHY0B6kX4eFJgGfl3V/RVTMTEnYzsGdL4/JGIe3JAUHT+EaOGmkHHnCAHX300XbkEUfa3Llzbb/99rPx48fL/EJjQquiSy0CzJ4HamRq0MH8gj+RPguVZf7wg6ZGOPiTrV+LlfXCINoPAQXBWwMeIkgn2Yz59cs//5VTSt0P/jJHWUrw+m8Q+DwfB2Tlu4vwRfr4xekVei78hmP98qfjYPPnvfRK8Ul9w5MWq3Nyh+BLXHgPZCTiH8wIbanfQI2mKPtoCUL2htUG8XrrGjN6jL3jHe+0m2++2X75f/9n3/rWt+xTn/qUveUtb7EzzzxTgoCPaCorKm3ihIkSCNjiNefdw4Loo10WwmBhroqqCtnqaaho2CXut7Kq0kaOHGljxoy2SR4OGlvC3oIYPrgMkXyDOTAoCoxnhAXaAtnjG2rG/NXuZY+j/FtaWM4ijMkwiEt9QPi3umbO9RY/htRx3aHeWRY+i+DpIzvGU+gqePyoQ8yUQxTQc6VnOJCRiH9QIzSR/gA0qjitVJqc96GZvSINq32ztHoGMTHfMPiGLfzUU0+1d77znfaFL3zBfvrTn9jtt99mf/3rX+2LX/yifeQjH7H3vOc9dvHFF2sw9ZBDDtGaK8x/L9G6LMyYKVQjXrN6ja1aucKWLV9qy5Yts9WrVmtDEfaZJR67BVvyWUIPCCtnhmmWTMHEBINdnRVEGdhu1rpEzfCxCNcrS6hH/qyc3ygcUqB6hAJQUlJqxV53CJNzHDOt2AimrLxCS17IzINz8maFU831b2uXoOBdTd4TLC4sthHVLN9QJaWCQfuGxkaZABE49CAGusbfr+bx007gBs3jfzjM48clAPJh+3mx1Tx+5WhoIKCnp3vK390xjx+NCS2f90G2dM2Zxsg14jlt2jQ74vDDbfbsWapT1CHIGyGA1s6c+CrX1vnlQxnMQHwtefDBB+vryeOPP95OOukkO/nkkyUw5s6dp5kw06dNtxEjR0ggjPZeBQKG9zE9kwbf5/ZYZ3vMVcQDkatxB8fOvmHd+vV277332YKFC9XOGNiVWapbmwjGiIEJhDymPtnInYijpMQ8E7R9ZlJhf+cWykIw5+CfbxtwYewmrISphdrID/eLv80d4RmepcbyXENdgzR5NnWZNHGS17fZmup7/AknqN6cftpp9upXv1q7tVG3ECL19Q3iOMaVEBY46i9hUq95F3WQL3mpr2B38dag/ICL+JKGRPw9gXzYfl5sTfwBUdPu6eme8ne3EL83Sr770Pv8H1oXa7Kr6+31iEWwDj/8MJszZ/YWcaLRxsauxuwOQYCDxCF05k6zXgph0FPYb8YMraFy4EEH2WGHHmoHzZ2rGTU4egWEj31fA80wc28S0Ft4fEX8p5ys05iUnX3FvkD8cYMX2dJxWdqUPv5x7OUTBnX9AZLqDrNPoddvviEKWzKWyMSHAOCY9fgnT5rsdWmOSP24Y4+TUnDqKafaOWefY2eedZadeeYZdpqTPNch7COOPEJEf5DXmbnuWN+/1HsQfLTHUhwtTU0qB4+UBBPlgeAaqMS/awydMDCg+rB7KuCuAE2JuqrBNj9nGmWY3eJKBMTuLhJ9RIx994bEOeEErTBssEFvgFUWR40era8oj3RF5JhjjrYzzjjdXvGKC+xVr3qVneKETG+B+dxxEG93of/kfD+FlzWEHr9Czi+J3KwpP0bgUc584wChz5s31050BROt/OKL36BxoLe/7e32jne8Q+7tb8e93d72trcF99a32lv/4R/kGEf6B/994xvfaK965SvtjNNPs2NcUM9z5WCmKwvTpk7VHsD0COKX14wTEE/GqJgppEq8+6rNHkEi/oQ9Apo1g2I0JBoxQBAwlY7GRDuC8CP5R9D4w8Ba+GgGB0QU3RyIAiHX6/Rz9m4dXj3Mxo0box4C4TEVr6W5Jfdcwl4AdcE1Z7ZNRGCP914b5Hvw/Pl2tGvQJ55wop1y8inSytHOzz7nHPVo3/iGNzqZv83e9/7324c/9CH7f//vI/a5f/03+48v/Id95l8+o2tv+Ye32AUu7NHC58w5QGadkSNG6ktsBvlLiqlPYcC2qKhAH8PhgmnJ45X1KoB6qn6NeoNACmMDA3tV1ET8CXsEzIHOJ2caPV1zOqyMQcgc5S52+XtCJHjZhjMBEbV+XHwu+uNt/La0tekXRD/8llWUdQmIgYhMZnXPr5jWvkdP5eJllv3F++SpBlZd4PKhGiY59cRGjZJZbvy48TLNHThnjh11xBF28oknSXu/7M1vtiuuuMI+85nP2v/8z//Yd7/zbfvRj36k5UN+/OMf21e/8hX7509+Uhr82WedbYccfLB6ACOqq6UYAGLAMuQa9HVHnyHGmmwqLIDUe07JZs82Ptwi+/BLvkLwfO+h2WL+xzUpFigv7ic/r3dfvvc9EvEn7BGgNTG7QkTMh1MOthhEyxeJ+zm2Xgh8W2RMo8PFudQ78pedWVlJSc5vFBIM7nb5GZjAVEUvik3HQ2+KPQY2a1YMvwhUBk2DhhoGJTdnDpB+/BQMDdMlI+KMF5wGXR3y5/mGFY6w4bhwLZSFHDZ7D4spt/Pnzbfjjzte5rV3voM1vD5pX/7Sl+2HV//QbrrpJrvtttvsV7++yX72s5/Yd77zLfvC5z9nV3zwcrvootfYcccebfvNmOa9s2rTl9pehpB5kYevBdfk/F1+rS/BcA+CgV+WwWb6p2aHuROpU0n9lzFNhAC2fqZ9kvb8ej0QBEAi/oQ9hqh7dW8Xu7uZ5PP7QCf7LeAZh+BkmiGpwmzBgDkEjKDTGIqTJFsPlmdr1BT4fQQuA9vhC1YGzIPpAs0WIQyRIaQrKius1H85Z/ZVS3OzzZk9y844/XR79YUXyo7+8Y99zP7rv/5LC8r97Gc/sxtuuN5+7r+f+7fP2ZWfutI1+H+0t7zlMnvlK863E44/1uYedKBr6RNt9MgREhCMtbCgIHGjl0AaovDf62Xl+ZeLA5XWXU4ARGTHA4Hs85GIPyFhgEK2aCdJaeB+jobOPr0scQGRNzH33LX/xqZGrbLKh00ICuzXYaoss2JK9N0DH8SdecaZdsH5F9gll1xi733ve53UPy4C//KXvmRf/9r/2je/8XUtPvf+979fK/Fe9uZL7TWveZWdddYZdvJJJ9qxxxylKbnzDz5Yy2DPmjXTpk2d7GGPs+EjRrowqdR7IVMtl5Cw15CIfzBDSkj/1UQGmJK009jdyZOpxjVjTUv1Y8wTmCDYE3bq1ClOutNs2rSpduSRR9ipp55i55xzjl30movszW9+sxP3u+3y919uH/zAB+Te70TPrJe3XHaZvelNb7I3vuEN9vrXvdZe99qL3L3WLn796+z1F1+svQKYrnrwIYc6sc+2SRMn26iRo9Q7QJAwOBo2OWchPDT3Luu/lGd30qI5TthrSMQ/qAH19GfiH8TM70nb3ckj/zDT6AMmmXY2W3lFueaiv+KCC+wiJ+2LnLSZAfPe977P3n/55XbFFR+0D33oH+3DH/6Quw/78YftH6+4wt7+9rfZaaeeascff5wdPH+eTZ8+TdMa2fglzroCkLqWUHDyxpQUXHbTAacXYCeH8P2YWzEf4HrGBRjAj/cT9g4S8SfsNQz2hr+7kwfxa9DWyT98D2E2vHq4NPw3velSLXcBoZ9/3nl2wgnH6wNLvlSdMIGF7yo0mI5Nn43cMRdB8ph+mMaYs21nCKQdSD06DYRy0dFdxiEMcJA+v8yWyS2X4I7r/i9hLyER/2CGGm//LeLu5DKo4Enb3clDy2fZC+z87FXAWjPMMql28t9///1s8qQJ2tqxalillZY6obs/yJaJOvxC3iXFhU74pbrf3uGCxB33o4O0t+X8XxAGXsXyaxmk3tHOzCBmHeELP8yD55sMdwgM8kd3EvYGEvEnJAxQoOUXF5VIg7YhTN3ssJamZmtsaLQGd3X1jVbvju8eIFmRdMa2kdQDLQchBSHHee7R8Uy+8385//EYEA5htjnZs37OFiQPy7hnvy0/CJe2NpbgiG9P2NNIxJ+QMEDBGjbM3mHZYXpPhaxdUxpWo+RrWBYYY8AVoRA5FsKG/HEcSzv3m1EzFzh0l/3IRfBMvgCI4JzraPZa1oALmcs7DALE/2MO/KDu8e0FsEZPb9bpAYn4ExIGKPQB1+Y2zZ7p6GjVTBpaflubH7MkgZYjCAOx+RzLsRzHctn97m7Lwx2CMETqfhCfy39W5/jB+X96Z79FZNHMRVaNzq+FVWY59kt5idkTAo039OSGhujsEIn4ExIGKkQ6m13LL7K2djaEH+o9gDZramoUuUb+4Tc73ArcwxQjIua8m9td2J1h9wmUAV0kvwXpZ9fyiX9PI7+MurveIBF/QkJCwj6GRPwJCQkJ+xgS8Q9mZKaA/gq6yoMWnrS9ZAVISNghEvEn7DUMdl5MvJ/QX5GIf1BjZ4Z79jzSB1wJCXsHifgHM0Q8/Zn4s4NBisT7Cf0VifgTEhIS9jEk4k/YI0D73XrOc9CJ96RmvLfmXe9uYDbLpS3/OOFlgXykZ6rN37Oa2j1ngx8+SNt9NVnl6Y6/3Hk+drK4E/En7BGwkBhb07W3tWuRGNaP4Rrg830qMpuE7Cri86w2yTIG7BgF+JApB28c+NFmJIVsI7iTraUfgnS3tbV5XhZZY1OTn2/WJuItbewTG/Ya5q/Df9v50tdd2Lald9DzWd7iOO4Nov/857q7HWFH/noTRj7w39rWaq2eL22b2z0/OpQv3UNhtVMc8WbzGjZor6yqVD1lzwMcy2GDmD42mGE3MdCXAoCyam1vtaaWJmtsbtK7UZVatY+0Gbuj8T1Zp8dBH+1pYaQdIxF/wh4BK0Oy3C/rx8Rlf7VpurYN9BpLA+yhIXMt+pPj2F0kkwjCY7VKnLbuQwPz6/hga8K4MBiCh2fZY7awkA26+66R7mmQNvIgpNvT28lyCZ5+JwPlgTtpov5HfrBHLffRXePzEEu71vQPRNYdej4vbznuDaL//Oe6ux0h+tGOYu66l3v3MLgeHf5UV7J6E55vD/v1sk/wkIIsP0IYygcXBKxuCuIy1ygRbDnZ7I7wyNeS4rBNZE+IcdsVqDzDYQ6UVZEL9dLi0rCtpissRdkGNypr0iDG9zT4wyzj0Rsk4k/YI2DFRhrFEK/a3uzVaKVreaXVejJODttqMmgxOefP5TuQ39AlJLJ3AXyIfPxADcSPAZpxh2t+Wze1AQRF3QndiZ6TuDGKJ07XIQbyuNXJC80Vxzo+kJvyXr6CUFB5+HM7cr0B/vIFNWVC+ewM8t+HAMsJsbxy7478+zgJnMyFReHYHN3rhzT6PAEi5/75kzAI9YznIXqOwzcn7os65HkXNO/wzoje5k9PiGVHCDEUfhHK9FBaWluCwkJekCZ/Lb7DE36ieIR20Bsk4h/MUA2K1WjvAq1bGpgaXFflVEPzytzmlbuhocHq6+v129TUJNMQZgyeA7Ex0sCo4BAKXdwtkLVDNhZpcaJraWl1/+FZkYD/8Tz70zb7O3aWkHYGuz3nszSxuTpp9FwJafO0o93qCjeymMAN+UQVjrgXdtMir6OAIO/RcikH9uvFUS74Ud5vx6El17vfhuy5WJZB8IT9gPMFQnQ7Qox7LH/CICz2FUbI5IcVSVhCXy4QZqwfud8MnCp8uXDMM5hwMKdET1yHbOk5chxdX4BQoosI51veUYmqnOmheHq9PXX56x0KKquqPpsd9wIesL+VF5BYMhiJiARFa2OHn5NOPDFk8C5AVdBfceedd9nDDz/cp5k68BGKdnuoqKiwCy+80MaOHaPyiPoD5Ap6erqn/KXRPv3003b/A/erofb0bvR2sPWdnjHEKyqxiXGh4urV7qhPbChSWlIislm0aJG99NJLtmTpElu6dKktW7bMli9fbitXrrQVK1bY+vXr5TZu2GA1tbVWV1eXExbNzS1hLAFycS0NWyhpRKuF7FeuWmlPPfW0Pfvcs078zT3uNvWy4OliT9qTTz7ZGyTpDZd39g3rPH333nufLVi4UO0srMDpAtDjGuMrcvOXsBViJILq4dU2b95cO/LIoyRQIYX21mDqYKct8rexscHqNtUp7zZs2GjrNqy3NWvW2ArP41WrVtnq1auV1zG/uU7+4+I5ZbJNl5VZDIuwo1u7dq3cunXr9P5aXE2N1W7aJKEfBT8OoYGZRWXnaYtkzi8CP/4itLiPi8Ik+iWvtihfv6z6QK3jOvfDZf0fainc1qkyePSRh72+PKV6hX+Z0JzfwqNBieDaUUcdZcccc4wExRbv6yV4Rs+RJncxDWFD/UKVMbefffZZu+3224IA7gi9Z+LMG0O8ONrx+4eMmzAxpLlXcG3LM4SXoWkweFRUVKwBk7KyUu28/8lPfFyVdFdAQyHen/rUp+37P/iBEqHueYIDwox50b3IOO+0MWPG2NVXXW3z5h6k8qDRUykKhoSdl7rnpCqWKkpAbCyrVq+x66673r76v19V46PEQ9XqQtAxXKj4/8FI0z1OWwKtFAUhetPgK402nFqlCy3Wccf8QkNCy2IAluf4xTbLddyMGTOsvLxcdlZ+EXjRMcDG9bFjx9nEiZOsTXZdGk6xehUQ6Z1//KP90R0kQxc6prsv0Oka2Ac+cLldeeWVqs9RB+qe9zvCswuesy996cv2m9/+Vr2lklJvZy7QCDCWGWTe5j2aqsoKb4+hzY0bN87OO/dce/ObLwt5WDDESXa9iDSQftDc42+83uTnNRtrRDg4SDRq5jLZUF4OiBrNfXsg/6mLIJYZpJR/TBpGjBih8uMahIlj68d4zPXKykqbOXOmjkkPYYd0hbBiXpAGyDC+J4aBw3/0R4sIfnDZWIjMO10lhCBpam6yZ559xn78ox/bjTfe4IKpLtQ3b1dwnlca+el08iX8yy+/3Mv9A6qDhLkroBYq373O0msjzmEzG4RJuPfrX//a/t9HP+JKTrN6HYEfaceh5weodztCIv4Bg10gfr8GpxV4PuKje07uSeJH+GCv3IJkI/ETD/2g5TDwGrrnxE3x4x+aj4fB+SbXDgENLjoaJS4SAhrapvoGEXFZRZlVlFfYsOpqvX+da5wrlq9wMi3RjI38PHi5yBH/p68kWR52uL6zb+gN8fNTNNTT7uRGL6fJ07zZ/U6eNMnmHTzfNes1epa9ddFgw4yUYG6RycWdzC/ejmnXDGhG0s8n/3gMIDbye3vAP/EB+eXY3cVyxlFmsSxjGWKXh9zoHehaETuOeTm7i4SOH4h7woQJNnz4cF2nHqAAEFcEC8cIFMr/0MMO1XOc08Nk4xo2q4HHPKaKc2MTO5fV26LFi0W0t916q7R/TIfKGy/jzs4ODbiSVuL2comfVtG9jqC0cZ13UG8pv1tuucU++c+fDOXoPTjaOPHBI0IiYMfvT8Q/YDCwiZ9NwRWZrEx5LxWWhktDFMF4o6K4IQLQOcTj75VC8eR93HP/pSWlOqdBRFLiefxF0kKbK3QtH2EjU4Ff4zkaOQN8aLqQQpzy2FfYk8RPvId6mx/qDR4zFoTT6uQPoY0eO8ZWLFtuhU6CjGVA8kDjHO6v2EkUGzYRJDhIL85kIdwenf/R84rlsy3gl/IAubjm148sM4gz5QvwFx3Px2uA83hM+UsoONlH/wCNn3dGISLt3MsXB8kj4JU/ng9o+6Rd4fgxdQkExcPf7f+Ki0vUQ33hhRdlHswJG38GJUR2dc976hvhQPw49Vy9Pu8KSDXTRAlT9Zh3ePrU63W3qW6TXXf9dfaZz35W8ZBA8B6HBuvJI9KivNrx+7dfggkJfQSaFg2EqXQQDI1NxA3504D9j8qLi+RNdyDc8T/3o8bufy1ObjR0tEo0V/zHl/COqDXSQCEqzjFXMAYQu8j+AuvwZ9XQByDITwldzxcEJheCBgthbXaSCOMe+ONaGZpvuWu+9HLYoN3zJGjb+AiCsfsArMqAdzihRLMJULltx5GnPCNSRci7o8zD+4KGjqNcYrgcx3LLP1ad8fvxGFDexI94El8c/iF4/BAHynrjxo0ak2C86IXnX7AFzy2wBS5Qn3vuOdnKn3n6aXvqyafsiSefsMcfe8weffQxe+SRR+2hhx62xx571J5//nmrqdmoPA6b2nvPyekZxUF57iBtyuQ+AMT+/Asv2F/vvdcF/m/s+utvsJtuusluu/12+8tf/mILFy60jRs2WqOXaxCsIW89erk49LY+J+JP2COIjT5U1FBLg+YfiASgjeqCk0L4DS5cD66zc4gaHlowMxoYwFV/gPAhB0jDtTPOIbOoxUEIvA8tarN307kf3xvhoWzxF8HzaGJdxMZzaFakIRCjSMHvhQ/Dwowh9ygBFZ4nrkGLI8YakMyudTnihusUaRHnYVVV6rFtzjT6ItLo58zfRogqizw2ECnvUN56nCDDYid5sg3ihPCj5otpKBBxSKWcAoJYQ+/Oo+DhZXEkn90xmKhfTz5+uE9PTv79pSjvuu+hUA5MIw0DzJlWmr0HDVbkrzKLDu0708CjI35ZfckRLMdKI9eyMnfHIL3ShtnGXaETNX4CUbfLKhE/eiLeKg/lNekJZQJCXQsfSCEI0awRmLJi+GvxG4ROEDwcM6+ftCCQeD5X3ggIwtZ5ppxk0L1MeOBn7br1dt0vr7Nvf/s7dvXVP7Sf/exau+bHP7Gf/uTn9qMf/th+8IMf2A9/+CMJhVDWIR2Era+KcfypDHeMNKtnwIB82H5eYF/cclZPQBy46unpnvJ3t8zqyd5DA1Mj89MgCEJDyT+Xg7F4Jt9l4H6cnhf8xvvRhbqU+/XwA0HgV5cDwfizejeesgey29lppAMalx/Fm3pN9gD3siOIFIKdc8ABNmv2LM+7Vlu5coU1NjbZuvXrbM3atbZq9WpbxgwZ10SXLl1iS1wbXbR4kb24yN2LL9rz7l5w99ijj7qG95xmwjTU14uApQl7OjohGH8p6acNqsfkjuMIyBYyZNYLUzsh6CC8IIuM6Ei7x15hOWFgGgt5yjXyn5CUWGUI5E54oYw8Hv484fEhHM9xTpCYkgqLCjRrii9eeR/xJxz8IxwhPuJADFyWh1/+MsFHT5BnOBfp6/2Zf3fhrOtYvQDSiQAlfe4AaQvx9TQpjroshPcFB+TX/6McuRLjzLMSFvj13+DXr/svvcdhw4Y59x1hhxxyiAajQQxXddOhcvI8i6AHSkjcr6mpsVtvvd2+9a1v2T1//rMtXvySrVq5Sj2V9evW2UtLvI4sWuy9lOc0s4r81ts9gBD1UF5ci+/bEZKNf8AAYRrzonuRcd6/bfx7GttqBGqQeXGlQSuTuK7L2T3Iwn9wQwu8HhYG0shNIxS5hGfCc2ZVfNbvz51wwgl29tlnq7EznZH2UFu7Sdo/5pf1rt1BUi0tYZ58k1/nnswsrczoaFdZQvqrV6+SYlVSXCotFk2fQT0ED3ZfXq20higIXCONodTNBVDQPMkPOW9TInj8QBhc0x+zvyC4LgGiIDzwQCyB6HSekSFAGLkHabCqU7TZIZuttbnVRo4eRaZZa0urtXi8GSAtKy2WIJKG7/HYAlm+EjahE1SYRQM/BO0cJwHBMXH1fzIHeT7zDM/nCgXk6gHmQgUlBH/ZL+fZHQbD8RviEeLDOfkUZgO5cxLH7k8ZUVbvec977B3veIeNGjVKQigoGSFtMRyU5IigUDH21a7pxe+//AP2nAv6stJyKy0t1bcJ5FW59zYwbdKTIRz89wUS8Q8YJOLfHaCbTkqkZdLIRTghLdRz0MG6Lh1MYaSnQR2lXgbSUs+B6+61tq7eGurqNKVywqSJtmH9equvr7OSklIRPNnL1NIITE495Rx5yuBiQ6Nr+k4i5WUVMtNgRgH0JKJG2+zkCgJ/BnIKZUocww1dU1r8TVk6/Z8DUuOSl6P7Ky7yOpOFyzVpt3gA4QXhnHsculMeeOLl3y/wasJvaGzQGErlsErX/r1H4O8nPMx0w6uHSZtubW1R+nKAKP39MWwCDPb1Us4EwiclW8AvwkGErXh08HRIRz7IB6b1RpAKpYSIO+ITZV5e9K6Imxy9JfdHHpJWCSw/RuDxvcKUKVM0sPvWt75V2j/CPTdTKOZbBvKGeKgn5gIdk96f/nSPve9973flosCqKqtE+MwqKvF8Y3B67dp1ngfBjCWh2gfYMlYJgwuq0Fs3gH0BEADmAnXRIbBtgIEyGhm/2OU1aIzzxtfsxITTzCAau5M8BEhokAEaOuYMhGN9Q6MIbfiI4SL0Na7pr/DuelNTi7Rd4kPjLXKtva2dKZRMDQzEC6GgZWK/x/5eVFSisLkfzTuQZENDnYfXoGNszGiUvK96+DCrdMJgRgkaogZwsXPzrMLNBkqjsOKXtERt3x32e9LPl85ooxIyzjH6lsLjRLxKPf4l7lD6JCQ98hCh8hn/DpGr+x0/bqxNdOFHuto9LYQZxmWwt7dJIJJGmU/0ZABpIp6kWWYtv7lpU42m8FJO9fV8EdxkjZ7vzd5jonzoOQH8k4cIV9IbyqzLEW96U3JeRhJyvNzfKVNX9l7qAO+L3zhQF+hlYfPHbMfHb7UeJz4ixLzKdwZ8WwLpk78MsvdE+gDCB4qP/zV4vcEcOHzECE1E4GvnurpNnk9tGichzoVelowzkK99hUT8CYMSEFAgO4iki+C2cn6PRhgJjoFBtGsITlP4vDFqUS9+i8IXlDRqCJyGKHLlWQ8jkDFaHYO6YU494dA952OfhoZ6mXWcEeQgTfzjIDjkE4SKJki8CJ84dJkwmKvtBFxaJk2Q+2i6mAX4KlcDmNkxRMV79W4nExwkBgHTWyBPCBuzgqY9VjDrp9wFSIUTWLWNHDHSxo4ZaxPGT7DJkybblKlTbeq0qfroCiEQ4hO0YOnNRE6/YWCZ3g6kSF6yMF8xeYoWDJm5T2m+/gfJE5cgkCDgLE8UHB8wFdrIUaP8vcM9XlUSbJQD7yItjY3NErrKe7/KM/4vZGo3cAWBx3t4N1cQPGj1EK2Ek8edsKk7vJtyJg2lLkzpRfP+Cs+r0rIyCQa+H5g/f75Nnjw5Z8pRD8ffQZ5EB/KPBY8jecV3CghFTDoIJaYdV3gvD8HU5IIG4U3Y1Ne+QjL1DBggo2NedC8yznv6ctcrGpXYNRp8dM9JKmF+ZYqVcrCYekLj7oJiGBte/HXiIQtUp7ns/6mBOjEF8w95hGbrfkTUwRGY8pdwME9kyiP+IGc05qbGBhs1arRrpq6Vtjar8SJIeC4ixlBXCE9nDj+GiHiGnoJI3bXxsrJyvxYEGQIB8pe92f1Q5tzHQVCQFXGpQEj4fTR9fQkqYRWEVvh61cODXIYETTkINxds/gwki1CTgPT0//rXN9vf//6gTBSQt+zRTlrkVyQn0jDCeyEXv+FifyYQLfEjta2eDwguhNAWJOhQvndzCC4IVuTsxxAlzwZHD61V19dvWK9BcD3HH78QSoaYzwz8huN4JUBF6oUfyjqkAwHMuEVHO1q6h+XXNBvJ84t8K/e0H3fccXb++edrXAchQJmRVtJMvIAEjT9LfuWfk6YFCxbY9773fbvuhhs8/o3eW6NXVSK/LLPtB1m+UkYeyS2jvctIxD9gsAvErwawj9r4PToQAKnOJVFR9BP+ZWnt9AYVDjgPTygf4v3s2lAnBBqeZkjxjN8PA4zhNzzSKaKEOGj0tI8xrjVD/NKwRc4Qcqm68WjO6l34OT0D2hIzcUT2fp+pqrwTIoaAMJNoTCIrT8iZWSRMj8S8g+aONlpRUanrvAs/fNGKth1IOOvdiPAh9UDMEgp+LgHAuccBgcA9gfT5z7/92+c0t5x1fNCyy/0drB4JQSFIlN8FQ2zm/vvZN7/1TRs1cmToOTG90vON8QnSrPRoplEgQ+Wz8jI4tF1+Ma+sXbNW/tCG4zTL8E1G10J+DKLri249n4Wo33y4MPVyoTpAurGHJFMOJi6/x/W49hMmNcKXJu5CgAyI+VftvaKzzjzTjjzySDv88MNl5yeviQvpI9+6Ez9hh7wOeUqaIP5vfvObdpMLVL4xiUKXtNM7pO3SC0XoA97dF0jEP2BAZYl50b3IOE/Enw+lhQqlhqYam2t0aE+xXtEYQz64V657w4PASjKy4lganmvKECKkjJPJIAoNTzuph8y4RxuBTLD1jx41xo9bnCBdE3eCx5Y7ceJEaeNVVcOsurratWPs9MM1Z7+8okICYkT1cE2LBHT1lcO58uKMFHWBsoZIApFufZ8Y6oo/TxhqWx7/fD/bgtJGj8bf/+Uvf9luvPFGY6phs6eRpTAgSAQpJg78tDsfjJswzu66805P/2jPh1B7EGIc0wON4UZsGdcQX5Wh/3pOywPxJ52UGdyD4IFcOa90YYdA7Qndw+acZRn4yI21h5hOyW9DfYPKigFbFpLDXMY4AmMIvEfcR7552WMKu/RNl8rEg2ANQs/DzvKWcuA3H8Qz+gOkj4+yvvb1r9uvb77Fey8uYPw91NFgLvJ25+/kGfyqfOla9gES8Q8YJOLfFUBukHG5ExRaL41I5O11lHvYoSPBo02jNVc5AUPI/HI+fES15+1oaXKcM4jHvXi/uNC1WQdmBHoENFARkmuJ5aXl0tzQ4nivBjedUKjXioe7bREwPQUaBL0BGjwaKRohpMgTXYInED/lF8qZe/y/c+ipjkTE0v3qV79mN9xwg741wNxS6elHa+7094mgPO0Mjo8eO9oeuO8+jQnUNzaontE7iMRPeDKV+d/24kuaWEuID7pYq0k9rm4grBBS8J8P3huf4CiWUTyP6PHdctkUyry4AsLFbAcgdPIA0MsC5E0sc0C88ok/CGizF154wb72ta/bzb/5nd8PpizqBnUNrmXqL8+x6iq9QY77Aon4BwwS8e8MSAvr5vCLrfrzn/+8nXDC8U7W4QMbNWD/JxJwR2pEEnKhZ0DdC3XQj5148EW955nQc4j+eXpLxLzkXn4+62p2L0Rh62cj8sMA+eHsLfz3l77sxH+jLVmyJCeImEZJb4jYhjhv9ro4yv5yz1/Uk1G8eZi88L/e9TO6oDD92b2VcuKsxOXDI5Mfo50pq3y/LB/xla98xX77u1tDryJ7UXw2Ej31rS/Rt6ElJPQT0HDiYCxA8xzP/Prx42283Didjx071sa6wERojh49Wh/gjBw5wrvv1TnNnl5BWWmwzQdbfNDkIvn3BL0/u5fvh6N4j7/tIT8MkH+8twBpReLyg/AbofNAePlxlTb/MuKu8LLjvQHeHtOUc91iFK9H5B93Ry7/MihPs7+ImM9BAel7mk7EnzBowUBctMVvryEm7AIgr24EljBwkIh/MEPtct9snFED0zS4gkwbS+SfkCAk4h/UgPT3Va0MovfqLb7nP/3bAklfTdhXkYg/YfAjMXxCwhZIxD+ogY67jxaxbNBhVo8G0/RvSwnQvQeQkLCvIBH/YMY+zGyQPHOlmdLJAmJMQ+7G+wkJ+ywS8ScMSqDl60tHyD/703X9n5Cwb6PfEH9+g0RRlUuzMBJ2Eao5uc/bqV3Rdf0k7Dr4Upd1jvRpFsf+G65xDK2EtpvfgjnOP99XIFOjI36tG3mN6xzH/Y/5qjd+H6C1k/g4rr0jW1+Ir5v7jq77BfH31A7Jmyx/EhJ2CaEOiZLkdE3/h+PYIBN2BZA8xD/UNntGRyHAOeS/TWrZx7I81rHYAwXdFVpWV+Uaf2xQo9VA9Zjnpz8npwt9l3n9RuNPSEgYSOiJiJKmtj3kE348RhiwphOaPcswsx8AS+G0sOS0n/OlOOshcZ+VSfsKifgTEhISdjMgesw5+b1MkX5Hh8Qlax1h2mGZEJYOGVZdrWuAnkDQ/HXaJ+hXxN+XCUtwKENTpiYk9AdA/ppskBEdv1xjJU4WumOXNLZiRPNvbWt3dg6mn6aWFvlhddm+Qv8i/tx/CX2HlKEJCf0F+Ro/YME/FgZkxzR2TqO9spNYQ32deghsyNPqxB/2NO47U1q/In6ZvfoubQnKzJShCQl7C2j00Z4P4nEUAOxRwGqx7M/Mjmdo9qz8GrfnZEOWOA7QXWi8HPQv4s9+E/oIytCUqwkJexMQdiRttPho8gEVlZXZRu2F2ukLxOW/ZRbyczZgYd+DaPPvC/Qr4k9ISEgYbID0I9FvpfGXl9v06TPs6GOO0R7M2vjI72ECYh9gdmtjz2J6Aiwx3ldIxJ+QkJCwm8GWlPlAEODYX3nmzP3ta1/7mp1+5pnasQzSZwtHdntjc3r24UUgxO0d+wKJ+BMSEnYBaK7JjNgbYN7h69x8QO44wFe61cOG2aev/LR965vftE984hP2xje+0S666CI7/bTT7NDDDrOpU6doJ7j2tnZraWrRMXvVbsZl61HpmDWpeoFE/AkJCbsACKZ3JJPQZeKJ4Dxe46egcKjtt990O/bYY+ycc86xiy++2N7znvfYRz/6MfvsZz6jPaPf/va328EHH2xl5WXeE2B/XsLoMiURHmMBvUEi/oSEhIS9CMQnX+YywMuHW5MmTrRZs2bZ/IPn2+GHHSphcPJJJ9v5551vxx9/vIi/saFRPQmInj2Nnf3V/+rtOEC/Iv6kP/QxlKEpVxMS+j9CO4XEi4oK9bEWc/iZyAOZYyqaMWOGHXDAHPR8a2xqsMLCAif+Ir9foG5D/iDyjtC/iJ+0J57qQ6QMTUjo70BTZ6G2oX6A8j7UDwrccSyoCXdaZWWFVVVVWktLi7V3tGuaJwPAMhshIfy3vb1dj+wI/Yr4ExISEvY1oKm3tLRZW1vYMCiqa4zT8osAQLvnAy9W7mR2Dx95ofm3tbVJyw+CY4jf7yDIHaJfET8ST+IvoY+QMjQhob8Djb20lFk+Tt5o+lzTDTNWamCVZn47nNMRBph2SotLtcBbU2OTtPyhBazr789j9ukFksY/mBFrT0JCQr9GnOGDuTs6rmSXs1bMom6u/Q8daoVO8BA+LvQKnMo56CUS8SckJCT0Bzip57jbjyF72f39V9f5TyzPiR+6+o/AKMw2cqEH0P1DsW0hEX/CHgEaCU5rknuFbW9r80o91FqaW3SfY9Xn3Ah/N9eJ/TM4/G3p8v0FFz6JD9vaVVRW2ZIlS23hwudt2bLltnFjjZa/xa7a1NRsra3t3mg6vTvt8fJ+df7MCI47vJ+d94ac647s1T2C67LZ9uCBK/F+dAor3N4KXWFlF3aA7YW1PfBMdBHSLB0iGC8TNNAh/LovkRTbXaqMQqkQT5YW5sMixQPHdZ0He/aOQBgxvT3551pP17cHwlK4/p+cH+9sGIB8oI5EF9FTOe8IqstZpeYHxGvx1zNYC7YN8cz2N1pBkZdHgR93dliHO/npBRLxJ+wRsNogLggApp6ZlZWWivglDPwCGov73NrlSB+NJjiuRZe75xVfTsdZY+4cYkXFJfanu++x62+40W6+5Td26+232x/u+KPdddef7E9/usf+8pe/2n33328PPPA3+9vf/mYP/O1B//27Pfjgg+4etocefsQeffRxe/zxJ+zpp5+xBQsW2qJFi23psmW2ctUqW7N2ra1bv97q6hus0QVJs6eJNVaYmy1C8HiQEgQe3EDao1O+ROLB4c8dQihcD4SZD/nx/+IKjt0R7+dcvNgDuJzz0xPkIfcjYgl56+Tuv9pw0QWjiJ/7fq3Ty7HLdOHC1O9D/gBbNe8LhBuOCbc79D78cT+6cCvcy3PxRvazBRRXD0RbGmZxABxxSnwUDz/nHRE6j87/6+5QBjZt2hRMLX6Bcu6kPmbger4g6C3E7eEwBwQq0/Ox4/vbPdwOG1pY4GnwfC5k68vN1rbZ4+G3ud4bDBk3YaIno7cI2hrSnOlDbBFWVFRsrW2tVlZWau9+1zvtk5/4uEagdwYxAmQo9eXKT33afnDVD8IUpYQMalbhMJdjEZx32pgxY+zqq662eXMPUnl4VVSeFkC07iM+HUGFjQ0UcA5WrV5j1113vX31f78aFo3yJ3H5oKnzTmJF4w9x2DaaW1rVEMpLyzRHmd2GKisqbPny5VZdXW21tbXW1u71qLw0eyIPHjRxo+6BICCoK14P8+K/5Tld383S6EFlVZVVVJRrNgQzITQlzhsnn75zjfiwEFZRcZHex5eRzKLQSokslev3S/23srJS8R0+fLh+cYTBmiusssiiW/Fz/GIXOCy8VehhanqeB0wWe+dC74gxDZ/0E4eCbBofcSc9fi+LW6E3cGZtSHAqrC0RciaAd4gws/yCNEK28LwuCfKX/XJ5qGuTAX4W/m2F//qvL9l1119vS5cuVXkyj7y1tUX5Q7xFdh7guPHj7U933WkjR47QJiPEmHQi0ApFYJSj5wd3eFfmQIg/5R3OC9y/7ofTHsEzudi7R9UXv0AZM9OFusBfkWcGYYceXtDS1XuhtSgQhFoIB3DI5Yjgx5TmxYtesEMPPVS7ZsV6RxpBU1OT6gR1q69ANG688Ua7/AOXeyJJhys43MjezTHvHxqax3aRiH/AYGATf2lJqRqD6o4/CvlC4Js21dr8gw9Ww6yt3ejXW+UnH9BDbHA01NiYiHt+/PPPWf9ks6tAzU2NIpsSEXixQmZji0j8BNvc3CgyKHMCrx423P10Wm1NrcKpGlZlxf4c/omXNsb29yMUWCaX99DYeC0EQy4oDlk80IDRjoPmnpmN/BjBQJ5EQTLCBcnwEcNFIgib/fffX8KFxbrww3VcVSbAinaijUno+juJu6b99UCkxKu5tVUmN9JF24vpypIisHTAjTfc5HVktdJVMKTAn3Pi9zwJeR/qwYgRI+22399qkyZNyPGBRyFH/JjUmMGCi4BwWXMmaOeht4SgqygryXzsGLwdDb/NuampsVl1Dkf51dXVeY/taS/vJq9rm2zjxo22fv06W7dunW3w47pNdZ5XzaqXOwJC/ZD5c+2SSy6xI444wtM7IhPQYcmERPy9QIwAgteDTcTfI3aB+L1hcqfAKwm/ee1X2JPET4UkLBoCy8yqgXe028jRo+z//dP/swMOOMAbCl8qqnZlTwUE0of+dRLelsVVyK6RFq7jIJgWJ7yGhgY5GjPChgYJAXCN+dCPPvqovbR4sTf8DQQjYqXBNtT7fdVv19ad5HlWrxJxQ1Loj/4u2MovcMYUu60+mee2/KFdhvyGfEkimrvI2NsLmnPsKTBjgw049MWm34dMyDcc16T1e5jkEz0CcktE7WEHwo6EGhxCBGKi54JQQZiE31IJH3o5VVXDnKQnifj13vgu/XXhX//t3+w3v/mN1dTUqEy525IRP2VAasvLym3O7Dn25f/5spYfIJ2YvSgDyBxTBaYwygES1sJjXhaRpHHNzc3Kc8wpzz37rPKXvM+ZbTws5Slv9fwnDPU2PD6YPPDbvtm1fb/eJq3fnd+nbmB6YowJJYM6gPbOVocxfvltQqDA+dH/AapnHv5rXv1qO/300+3II4+0qVOnKl8BcVce9iGH8f5BSfxeHoxT2JVXJuLfGrtK/K7puVaGj27VWZV3jxG/V1QIAhKD+Gl4aF2TJk+0b3/7O3bsMcdYqWt2WndkO1CDiw0x/5fr4SQXE7RcTDYIALRtGjUNstm1v1a/xtePt916mz3yyCP2jGuCy5Ytk7mp2MmQRosGT68AcE4DU430X+Vb9su1Tv+Vpujv5BYNM3jx+36ci2v2H/e6YpqB6/z6TcwjIaxA4pC9wgmvFRCepI/TQPaQvr8XwnFPYTwlbPaBmSqYn4qDY0kA/y1xzVXCDW3Vn6PNhd5M0OCVTo8XFAueePwJW+yCkjyMC4KRR7yX/FV983Aw6V3opIgACyQbPjTCH/7l19PHL+fch4TRzKknbRojCdcREBK0lIf7F0F72WlFSq6TjVn+kuAQ5ywzyTCPE/8Lnk/Ba1c9In3yrGd5NO+e4Md5XhVvj0PNxvU2Z84cO+mkk+y1r32tnXjiiTL1yR9+SC9hepr7Arx7cGr8foCikjT+nkBexOrbvcg474n4aYYQf6Dm+HQElVONJEOs7LuL+CEzSAXip/GuX7fexk8Ybz/5yU/smGOO3q75YsuGuCV0T2ntQiBMGke4H0gs3ENrRBDw2NNPPWWPOZnde++9dv9999mLL74gchk2rFomD8iIuLJ+SlbzPfBwFJGfhxEhLvgK747xV1R1LdzVNf78BkQmLdaPIeIoBPXj/4n4OdRV2ksgzXA7i5uERHRo5ChUTtoeZrgW4qC3+q+IgnzyPIFweSfntD38Eqbihmd39DAgcq4hOOI98kqE7nHiPe2ebxMnT7H6+jqROGlD8y8tLZG2H8HzcAp/gOeVQr8OiAtCCj+QbbTL4y/2thC61Cl6KITHtZhmEhHTTV6EUPOw1QUHHjNk0cg/yA6JT7vqx0EHHWTvfve77XWve53Mcnggn+hlkI+koS/Aa/uK+PsVs+bld0JfQBnaP3KVxocWCflrnZEC1/ydONAO+aXC5trWToBwVdk9HMKKLjY2Uh+0X52qdXAsgnN3yCEH2xlnnG5nnX2WC59jbNKkyYob9zCNoMEx+4hrKDSEyztFeE4uEAyEh6kBoo3vlp2cd7oTufFqfiVwAnmJpOQl+4OoM829Kx30NELeBNLDZBI+3IGsMREVZgt1DcE0o5cG4SZ/7hC2UavnHcSG+LY5aWHTbmpu0nEubf58iCuk7vEMV7go0ifuxJeY65j85Fle7N7o1ZU7AdZs3KhB+6Ymps4y0ymMNWB64X1NrlRgUkO5aG5qthbMOy1B0ydc3scfggLNn+vRHMNsLUiVPNK2hOSXn9PzycVf+RV6CIxh4LaAktTlT4LFHddi+raAX+cZrlKXR44cqXStXLlS4wRKX34YWX72R/Qr4k8YvKBRYstGC5L91nuLgEE8mENtiha7DdCAogsN3xtsnusJXKbdyekCGqW/s8MJrB0zCUKoQz2lQw4+RNvfzfKuOwPBENIm2aCZ5x/szy1OTu3euw3a61CZMRAO2MzLKypETE3uXyTnjrTGuInMIV7/lb0bs4W/O2i43A92/ZKSYIMH3I+DnPnphLwJT3b8mMAI9yK/PEMPwh0zmxogV48bxA14V1lFuWz7w6uHW2VVpQeTH1Z4V4TyHsHCexFIWe+MNJLRQbgGulQ++/shdj4uKi0ttyIJ9zCWIZOS+2Xwetz4cTZm7BgbOWqExldYcriI+x4MQkLCzXtbGjh1rR4LAwOr9Bzo1ZYhmD2/EKbku9ap92MJO38n/tjQHFda6vlKsrKkEYeQFhccmdN4iseT3pWUA+VzSHNMf3BB+HOPcqe3pJ5Q9sdL/PF+i0T8CXsEzBhRY6BJw3VZ48Nuiw7KTA9vQzsEjS1q1TiRTV4LiwSp6XruIPoIvHnbdfIZ6uRR6ERQpA+5/AGbMX26bLTHHXusjoudMAiHhyCQsrJyEYcIzAOBXDRe4GTayAByfZ2EG5tkS7t2ssKfNG8nQcgB/4BeRKmHB8kANMQw0Ngi2znCg/CDbd8jTTw8DJwGOBEYclGbRThgegj38KNnMmiZX+Ll74O08IvWzfcGaNv1Hn+08viOrvcEgQMgQsaKIG3CKfIeEFGTUMJDLAP/pXwgY/KsSrOUShRHBAGafuhFmGz369ev14yamtpNVu/3EZhUDwSLBrr9V/Z/uWwg1nsprQhYHOceJvEkv3N55uA9sYx4N2ncIu887jH/5DxP5DjuJE+3vB/zF4fgJu8w7TDzi7EShAO9L+o478URRn9EIv6EPQY0XQ0wlhRLk6Vxo71Cznk8tV3kkzygYdHApHk6oiBg7jcOpZjw210IMHOjpdUJxOMR38e3BI3MJGluskmTJtpJTv6VFZUe1zb1UND61OidRKIDvAPBo4FQJ1Zc55B800hAGHTtcp5SDw9TBvENdvegUWZhZS6mkx8RWg9OaXU/DNxGUw3ko7dnYXIsU0ZGWLLV63Z4TxCeIf/JS5FdnpNJqCUbdHXC5T7po/xwRUyR9QDUgyONHiZCRbOm/Fog3CblZXllua7l3u95Rn1AMEWnvPR7gPeLbGMFiYWmTCHfMs088x9vB209OOWR0sfzmKGCySvkX7iudEPmpNl/eYZNUchL4oIfehc8T9r0GvcThSIzj0g/vT9Ab4r3SAHw9/RHJOJP2GNQQ4GpcPrxA1qf/4Ym1DtA9GjQEFpopKEHkA/MJGiJaP28gfZHI0SDVGP2a0RHRCsCGRK0WdeMIW9II66BEjrv4S8fRD0QS3C9BfkQSUPoFk6PYXGtm4v2cvyT/kDi4RjSGYpWrnwJ+csg6NYIcQkDr6VdDo3df9HaozmFa5rtwx/v8TzSeRZuvIaAi1NHyU96NsFcUyR/IJeXSsqWaVdc420/x0wD8RIe4aonADGTXgJwJ4HleREERVdPhfuEIVONx6sdgQXJu0DDQfjRrz6i87CpW63eG9rsv/ilZyGB4IoEpibiwLgU4QLeSaRjHYzpQKkhBv0RW7aWhIQ9gaxR7ypiw/L/9CsCcBe1WhGZrnNf3nTOX/d3c6rdjoqLAnnQwN0bZIX/HgcF+yHYlIP4Y/agZwU0lbW1RXkjsvQ0SUhmmnCYKRO0atLYCuG50+ArpgoGVT288BumW6q3kj0Tn9uMSS13jTIIPYVo3pKZxp9neQ42Cuc3jPOEQVwRNVp9hlB2CPMwjoBJhV4ZzwQ7flgOQwROmTmZ80xUADgG1INQph6fzC/CXf7kgjCi7EtdsPD9AV9hjxs7zqZOm2qTp0yxUSNHKm5M/yVdWdBeb3quxPHd8be/IhH/YIbqZs8VdCAjElh+A9dgJr+Z9sYdHA2US1zN3Xen+/4fBKKuv5MM9nVmoUBwChtP/qR++iGIYzSLoHlDpKQHjXTM6DE2evRIGz1qlLFrU3l50ODDGAT5lxGk54XIkfzzcGIeibyd5DFhiLw9TxAi+IuZK//5Ts+G32AvdyGAf7+LECWuuY/VsqUxJDicWHkGP+qteHmw1AUCmcFu0kOPQ185D6/WR39jx421CRMnOjlPtqlO0PPmz9fg/LHHHmcnHH+CnXLKKXbGmWfYueeeYxe84gJ71StfaRde+Cq76KLX2GvkLsqcH7/mNeH6a14dnB+/+tWvtrPPPtsOYUmG6mEkKjiPtAROJlzJw3w3UJA+4BowyO82di+yUCH78wdcNO7QOIiHh+fvQgtkGYJf/vKXduSRh7smmnneAfLjzXF0UdvjOGib7VbgBIK9NqZAjxGP7NlG10Dp3kNuixcvsttvu92+/a1v2/qNG0SUkFX+7Jv+BOJPvkKSfqipmZhDZs+abYcffpj8MP2TAVTs7JC2bPaQuec9xM45RAboFShM6o2Hi/+owTPYCegtRPDOCJ7z/3WMH4g9zD7CzBLs7TmNXOXEsgbNKieuscY8AlhTMzPBznVMKnx1LJOclyNxZIyopDgswcH8fYQJ6ySNHj16CyERlreo0EyhYhd2EUSV9MXoUxe0jEU41eqttZs22bp16+3e++6zH159ta1Zs0ZCLNYv1WVvBTH+V1xxhRzv210gvunL3X0Oifh7CxojiLNmAEKgw/NjSDYzhfiitVFXWd5h0aJF9pe//MV+//vf229/81sRT0VlWHxNM3iyMPsTICI0fMqg2AkfLRsCPP/88+0Nb3iDiA+iHDWS5RqK3T9jH5A/5pfWzGQSiJ91a5566imVC+H25LiHqSUKiohYbyKUd06AlDdExPmWLtRllpIY5T2SnB8vCw2KOsGrRyKO6bCamo25cIO/ICCC2SaMY3SwOqXHgyokfkJAqb6pwgn8QCnbqmaqxf5ffGT9+g32xzvvsi9+8Yu2bOlSvYe40rskDon4+4j4Y6anL3d7QmgsAd2LjPP+/eVuXxI/5KNw/D/CiWFDcmqYWTrwFIPMXePtfpFn0DjXrF1jK1eu0rINEP+jjz0qIRAXa4PkCLu3y93uSSh1nqw219yZMsm3B9OnT7c3v/lSe+973+taMYOp2L6znpCfkQ0IOg1c5hE6wq0r+0NehSwLxyA8j9+uayCehvteH/xdcQXOmN9dv8APOPYL6hXoXjhmrnyYP68nPEzKIPS2eJ5rIZyuX/7lIpGDbuZ+AF486d6L2+LyVtA0YPfIAm53/PGP9q//9jlbtWpFmLLpcUTI6KNDDwQTGArGBz/4QRG/vtzdTSCFg/LL3YQ+hurD9qr4wIS0PdcM0fbitDkaH+aM+vp6aWE03PY2BnrDMxALRFfn9xctfsn+eu+9dvPNN9vXvvZ1++Y3v2nX/vxau+eee2zFihVauAzBGR70f9JQ+x9IE1qyfoeyFV+bvilgVUrMUy2tLCnAXPKQCdQEOKLQGQs7f2lJkZXpA6dSqygv19e2wVVp8xp6DMzDjw4hHVcS3cKNCG5k5kaMqJbf4LJwqiq1ZlB5RaVWQS0rd1daZmWy44fB9eLiAi2bHJZhJuNDGlEk5bLegsjN08C9zJuTHvp3lxOye13OCR3zlvci+IAPAegcv5UjUOLAgLlm8Hj94hsOTEiYmQpU54rdY0AUhvlCsbtw7G9IxJ8w4KC56lkjo0Hz0c8LL7xgv/3tb+2qq64SkX/jG9+w//3a/9p/f+lL9rl//3f7zGf/1f793z9vX/7y/9i3vvVt+/73r7Krrr7abvnNLXbffffZwoULbGNNjcgEEqTdQprQBVMH+yOYzcIHTdjhEXxOg8oT7NUlEobBfAI5RogA/T/Z3p1Ag+3cidRdIMcuF/7b8lp2aQv0dA3a64n68sMReXscmGaJiyGR9zjkFb89gctymT+QH3YWVM5PCCcMMIceBbnF35bPyfl/1AP8YFoilHDdhQrCQooFPSW/qLvhbyAhEX/Cnget6GUialRxLvuGDRvsuuuusx/+8If2ve9/T+773/+Bffs737Fvfdudk/13vvtd+9GPfmTX33CD3XnnH+2hhx7SoB29BMLBXMLgaPgIic/vQ2Pvi/juDpAHkNAQtuNzTRZtNJikQlow9eAg+B2BJMK90cVk43aEfMrbnn+F5//l3hEubxM7up+P/HBx20JO0LknsiX/megIS3TuJM9ublqfyIUreR12d9vsPSrqh/ct3DP5iyCIY0uxbvZnJOJP2KPo0rNeHvKndNIVHzt2rD377LPaGYoFs9a7IKjdVCvzDw0RzRcwJZFP95nRUoKZw7V7iJ772G1BmF/e4ffD8gzdBzP7CyCowuICxbO5pdGJv9DTGpYSAHuKfijNnPP/8s93hHy/etbdVkSc3c9HvBb9b/M+jvuZ6w3wRp2B4MnFDif5IDsZ1PX65vnMMVo+pE+PkJlPDJZTH3lWCkM/RiL+hD0KGktfakRBI3dRku/0l5CQsC0k4k8Y0IDoo+ZPbc4XAAkJCT2jXxH/ADCNDSwoQwd/pkby53sFut6J9BN2OwZ4s+pfxJ/7L6HvsO9laCD+RP4Juwk0qUT8fYfUXvsaKUMTEvocg6BZ9S/iz34T+gjK0H0vV8Pgceo6JuxGJOJPSNizCFPt+nZ2UELCvoRE/AkDDtsj/SQQEhJ2jET8CXsUmmP/MmfdMHMnf/YOx3x8xcwevqAE+8TMHk8ju2q1e5rLyyusualZFi4+TGtubfbDIAD5AI2F3LT7lAvF8OlRMIZt4XohMPcVoUqdAlqNtDPsvkXa+VBLmTXAkYg/YY8CyomE1JfIFwT7msbPMsEIAZaZJguCAHSSYmkBJ3suskIrK0uGr1z547eby/Jve9gnBGoetA+DVyfSrZo7SOpWIv6EPY99i5d3O1hTRiuSOilBUFEIRoIPi5JFwYgLWj+khmOfAhFcN0By0nJdsGitGndxGWddy9y+JmgHAxLxD2aoPaZGOVgRaNz/WJsdzZ5zNFPI3Elau14NDV81d9WCcARXcxS12G1xt+5l5B7WrsmudXM7g115JqFv0a+IX8urpvrQh0gZOtiBNo9pZ+iQAu1LwHFLS6tt2rRJGySxGB0kG3X92A8ooBeAYGBHMhcOce/efMTeg7ZCzPZAUE+Cd3Kdr6V5d96zvSH1GEbC3kPS+BMSBigwszQ3N2nwkbX32favuLhEq3MuW7bMlixZYmvXrdOqkfmAlqOphz2cOOavJ0Qij47ln9nwhR5FTwSfSH1goF8RPwNPUksS+ggpQwcz2IGsoqLSSp3sEQINTvjPLVxoN950k/3bv/6rve9977N3vOMd9sZLL7HL/uEyu/yDH7DP/Otn7bvf+6797ne/s8cee8xWrlghQUHPgBksOLYTbKO3wJ4ETu6RzHFx1zM2w8kneN6Pf57FJfRvJI1/MEPtMhH/YAVkyy5hLc0t0uoxuWDrX+9a/jPPPGOPPPyIPfroY/aYu7///e9299132y233GI//elP7Otf/5p97nOfs4997GPaL/b973u/feADH7CPfvSj9vnPf96+853v2k03/cruvfdeW+jCZP369drbQAO8mWNjkrgbFUJg6NCwRSLmH/xFx/2eegcJew+J+BMSBiikcLtjC0amb/ItA/vnQr7Y99HaMeFgDsLmj9ln2dJl9txzC+xhFwp//etf7Y9//KP9/tZb7Te//a22rmQf4htuuMF+8Ytf2DXXXGM/+MEP7Nvf/rYLiq/b1772Nfvv//5vbWf5NT+/+uqr5ffOO+90AfOovfTSS7Zu3XpraGjII/2M+BP59ysUVFZVfTY77gW8lnnZeadPEp4ClXT3wmXz5iOOONxOOvHELQZ7dhZU5jvvvMsefuThLbqSCVkr3w6w8V544YU2duwYlUdsZgwAgp6e7imP673hPv3003b/A/dn9uGt3x2GC3u60zNo87yL1+mdft7RsVmbWb/+9a+3iRMn6N6uAEJBG/3Zz35mNTU1qn9hX97MwyAF+YiWrTLIBmiZ4UP6Oad9lpSWZiQM+QY7fRcoD/eblSD32traZfrZsGGjrVi50l5ctMjrgvcenNgffOghFxb3er14QL2Jx594Qj2LBd4jeOH5F+z5FzL3/PP+3GL1FBb584w3rFq1WttjIoAaGhv0DqJCbGKUtPduOMzVXfnpZBQi1J2IeH97VSb6AdGfJpAAv7CtZ2MeEcfnnl3gaf6LC88WYqDr3FZd9j/ylOOjjjrKjjnmGG3IHur59mK26yC/MdORGQh1Ie9dend+wreBpPEn7FGE5rJ7GsW+BpGiiMeFnP+2tzPgyvUh1t6GMlZiba3M6gkCItrno+Mc4qdU5BAC2O4zxzlEyZfBbR52C5vPo9T59cbmZlu1eo096ULhzrv+ZNf+3//ZN775Lfv8F75o//ypK+2DV/yjffjD/2Qf+9gn7V8+86/2n//13/bNb33brvnJT+2G62+yW275rd19z5/tb39/yJW8R+3Jp562BQsW2osvLrIlS5faypWrbM3adbZhY401NjVrplI7wov0xbRnju8X9MGaO0ib+0J2PzsMfvHH9XgtcyAeIyRx7S4weXdJSZmf+z3PRyhzM/npeU49RrgyPsIWnXHrTsh3SwHb/5CIP2GPgmbZ3xtFwssHSmhza6ut37BePYD777/fbrn5Zrvq6qvsy1/+ssYX3vOe99gb3vAGe/3Fb9Dvmy+7zD7wwSvss5/9N/umC5Frf36t/eH2223JkqW2evVqq63ZpJ5dm4fLBugMJjc3t/q1FgmiJganvcfinJ2LQ/6evZwXFjAVNRBf7ro7Eb4/F1wQIlyE2AH6NT0qpsyWFBVbUTa1NdwbeMpMIv6EhIS+hQt2rWnjwHwT5/sPgXEdEHYL5J0NDjc1NmhAerFr+w8/9JD94Y477LrrrtMYAmMKl775Unvta19rZ597jp16+hl21jnnubC42C6//AP2hS9+QbOUnnrqKa1V1OQOE019Y5M1cO6CoaWl3Xss3mvxODX69WZ6D07o+eoHtF3o0SOKxUV8E0GPxwmSHo6DQfRmFy7NLnj4RchERNNOdPFaf0a/Iv6kCPYxlKEpUxP2LKhxHU6sOW3ZSRDiLyostGLXlDGJlOJKS628vNwqKyutatgwq/DfItemGVdirGbFihUaH6jZWGPrXDBwvujFF+2pJ5+w+//2N40F/va3v7Nf3fQr+8y/fMbe/ra32zvf8XZ717vepVlK//ShD9unPvXP9vkvfN7+53/+x378ox/bosUvqQexfNkK70WstY01tdbQ0GSt3lMg3tA1PdKg9Sv6VlxSEhYBxETmGn9hUaELiK0Jvr+TfT6GjJswcSeYYWiwKfLnkhDJTUExg6CsrNTe/a532ic/8XHNKtgZxAigJHhPzK688tP2g6t+oHckRJAXsWJ1LzLOO23MmDF29VVX27y5B6k8+EAH0wpfZ8ZKnQ8qeH5ljSYYbLfXXXe9ffV/vxoG4fxJXD4267xTsfJaoePtga4z7+J11B/ehRY1zBv8L3/5SzvyyMPDdxy7AAiG6Ybnn3++BhMhGRoojTdhL8CzHbs7oOaoanjB6wrX3WXDtaoT2MfjIHW4DePqIdUTJo9wn0kK1GfKO9QnNHTvTbhACdNK/RoDxNSxIUOt0OtBaWmJvnVg4kNVVZVNmTzZCouLNKmgtKRUg7G4Um8vpX6t0MMaPWq0DR8xQgPRf/7zn+2W39xia9eu1ZgI9xVJYriZj9na1Su44oor5HjP7gJvvfHGG+3yD1zuCWSsgc/vHCTYwbEmNoTVO7aLfsWsin9IQ0KfIWVowp4FZA5BhllGof6JrF2zCz2BMM7DNWYctTl5YreXc2USP9RbFMih7lpaW0SwPKNlJpyAZToiXH8eez/3AumH9+EfpYWew5o1q235iuW2YMEC+9WvfiXyvO6X19m1115rP/nJT+xHP/qR/fDqH9rV7jj+8TXXaIbYr3/9a5meNm7YqJVPEUhMT1UaJJyQAZkQ8N94PBDQv4g/+03oIyRJmrAXIPoLqqhXwTC1ttDJWgOjxa5pl5daeVm5zDzsI1BRWm5lpaWyHqDBAwSCZvK0tVtZSZkV+7MQO6SrgV13CBKIHiGg6072robrHP9FrtlrWqsTMuEgVGSz7xyimTgMFG+qrZUZaeXKlbllLu67/z5Nmbzrrrvs6WeesYb6Bphd1g6mu2KKIn5gIJF9PvoV8SckJAwCOPm28wGZE620eSdKOdfoW117Z058U3Oz1dXVWd2mTdbY1KiNYpyVrcA1fIQE5I0JCLUFkofYESIaJyguDjZ3J/ehfs71YhcaCI8yFyiYcRAyCJ9Wf7axocnfU2eNTuBabI6w/Rn0Iog7DjZrULiuXvGqqa1Rb4HrpeVlGofgHaHHMdQFWJi6CaK2H1281p+RiD8hIaFv4YyKiQZTjYjaCTOSNYTMdRy2dbR+7mPv7+gIa/0gMJhDD3mi5ZeUeG/AhQFf/waCbrKGhkbNrkGgcD0uIcE5mj8aPsICDb+4pNgqKr1X4e/ieX3R7MKJMcSCIu+JZHHD5l9cWmZVlVVW6T0RhBAY6nGg18BzbS64eBfCJkfy2d9Awl4j/ra2Di9kLxzvrpGBjKozdNPS0qaKU1QYpCvQxxTSGIKjUDvzunkULr847IdUALqMaA6UTXwuYe+DBh7tsLsTcRJChTfgDq8v2JtzC4h5nYAcMDsQI0wG2Juzdqx6F+se4aB3FheVeD0rUL2LdVGaaDvr1kA8hBHs1oTNfQav+d0s+3CID39Afrd4LnN+Tn3Pckp+u4Pr+XHsz4ikmP8XkX8t2swh2eC6xgfifX65V1RcaCWlTtZO6GjfnoNkChYcJ/sOkX8YEKaHAC+E6QfY5xFE9CQgcvKZ8gK8ig1ptNCcP4+DRyIIDyGkwV1/WXNLs8qLXgI9DIRXNP8QBgh1qiu9/Ql7reaocOnKkeOeOZA5INOUWX5ZBZhlJl8aMq0K6Y901qwifwY7HQ7pT6Pe7IVFY43SH+mMQKBwEvY+YkPf3aAOUQcYGKSRMrOjurpaWh1k3VDfqMXNqB9hkDEQNs9Q54hh+No1aH3ULeqbiMJvBnIKSgd1GIddWTZsmRzQZsuC7bq4SP7Ce8L7AM9Iacneg3DiPCyxsXU+kSZc+FK1i7T6O0JKwl93dL8e81JZkCHfTy7PsvziPNwIPzGP+ONWDE/5luW/CB/h6td4UEI0KwPMQBqPoAfg2n+5lyMfaylsfPs7IX/GI5g5R9ixjkSugn9y8dA7+h/2IvFnGlXITmVoOA8kz8g9XTi/ozJVBsZMzApTLk878CN1JVmfhAGl2KjzCyehH2APtAURqCsWaN004v33398OPeRQmz17to0cNVI2WjTBMJXPGzf2Yq8nVDERquqa1yivN+HDIz/3iijSkZ04TO2jXlEHqZMiY+pcpknSOxBJ47jnWiPhirTcBRs27wzPQUgiC6WgZxAtmTYIn5OEnUDgDMoQgtfsoMg7kDWOY/73f+oVeD6jQLa2eG+xJSii4hN/jmPCQtAj3PNB2YiT3PVH7DXiVwX2/8hcGg0Nia4TGhfaOXNulaF0zfw+mayuumtvFASFMxTJjOR1yYymhd2QAR8auhqlng22uNj92qdALQ7/7XMIxF8IrdrIESPs2GOPtVe96lX2mte82s4//zw76+yz7PQzzrCTTznFjj/+eDvi8MPtgAMOsMmTJ8s/dRCtHoKFnEtKGTAs9muZdufX6TlEUw/1s4UvOul9ymXry3h9Fkl73aYoAmnQU3BC8HOEAX7U29gc7NI0DppFBO/nj7ocyaR/0kk/B/I566Uh0PmFe8RDXn4yJ2XHYRC6OYwjuPJA+ZHnFAvjD1zfWFMjhWHc2LE2etSonFUBTkvEvw2Q5+pW0ZA8k2g42P0ZuKkeVuWa2Szbb/+ZVukCgG46g0BBsjLlC2nLWuQt3tAaJQjohlMYLAnLqHyjNz4ynQaLEMD/vgeqaR6D7ENQ43TyRUsrr6iwww47zEn/Qnv/+99nn/nMZ+wrX/mKfePrX7f/+OIX7bN+/pGPfMTe+c532kUXXWQnnXyyzZ07Tx/7IASGVw+3USNHql7yQRAEjM2XDxdRRlT/nLhlBsh6nBWVFTasukofqFWyWUpJqTRMiJ0ZLa3NLarzEA8KCgSiQVA/RgmKfCHK9xOZI9xFcxC9EPU0EnoNBHBzY6MEc2sLexgE0zCgB1biZUD5whmMH5S4o9wqqyqteni1l2cwFULszTzvZT/WSf+gg+ba9Okz9PEWhE8PTmXUT0kf7LVlmT1//Pmg2Uj78UrNGhlV3mCmTptmJ3vjO+GEE/QOuuZI3IaGettUt0k2W4QGhTFyxEg1lPC1X4ifCtULBcKnEAk/NMyB3FCI+/bjv/WyzIH0IQzQ09M9Vc7dvixz9gTCGC1pdyzLrOl+Xv709DAdnuj1csaM6V6/KtWgh3lj5pdGPdwb9PjxE2zWrFl25BFH2BneE3jVqy+0Sy65xN7yD2+xM888w6ZMmWrz58+3/fbbzyZMmKB6hw2fmR+qx94GEDDUMXaxqq/3ulpf50TTrLrnkdKn/vRKyYdgJsoI34+JM3Ucvy2e50PIMKBMoSTDX8jDXcyofRzkcQWziLzc0fipiWj5rGoqcw7Oyw5/lA89uZbmJm8PdZrLj7UBlLtgHzFiuO3vdYHe4inea5w3b54NHz5cdRFH2e6OcuqrZZn36pINsW5TsVtd29eouzcE7GkQvr/C1q/fYBu8MT/5xJP2+OOP23PPPacNH/iEurauVhKbZVODaafAyiSRN2s+Lg0eYgnLqzL63jX3duAB8o4F3L3IOO9pyYZAFgVO/PjoXg1jdzSCczAYlmwoKvZy9waNZjZy5Aj7/L9/3s4660zvko/UM8S2o4MVF0M6SLoaUn4yFFcLUwizzUVYDbLBe6WNjQ3qXZI/CB00f1ahZBVJHOvKrF23VvPHNTDsz1IvGQCudAGBGYiFvqi/5Af2fpkf/H0qFyp/D1AeDmgFZu+CeihQ4Fndj3VS7cXrEh93YY7DhIyQ0Ewhr6uAa8Oqh9mkSRPtda+9yKa5krrffjOk+bPfMXUELqKcqJehzvdNeRHzvlqyYa8Rf5inS0TDYAuZRNg0AH4BgqDWGw521WYnbj6qWLtmnb20ZIlW40MQLF26VKSuWRoukVlvA7MQ+48SLoKEsOleowUPXOwC8fs18rjAKwY+ule/QU38Xi9ZQ77V6yj21//6z/+y0049xbWy6uyZTq3gyI5V1JMs6SF+WTy4pjzJT5rf433UTRo5Nn7qMqbG9Rs2SCBgrkRQYG5EKCAgNtW51ug91sWLFtuDf/+76if31BP1FxJnAt/spIP2WeSE4y1DwgIyCvFwRx56RvUVmexLIA9RBgDjhuS5FlzzXwwGbe2s5NlqVd4LnDBhos2YPt1mzpzpvdGJ4hQmBKA8YspDeM+aNVOTA7gH2RM+ZYW5DyTi7wGaUuUZRaYUatZEAJyvdPg9ul5N3oji6niyrXrDqHNtfvnyZfbii4tt5eqV9vzC5yUEFi5YoAZGYdDdJiB9YefhQTIyKQ1YJOLfFnoifrSvdn8n4z7Y6VkD/lQn/mFVVR5Tj7dHpKm5RQ2Zj3Fy0Sd+WTzIDuVJ7l4Wf6WhC3ghDoQbzzWpHI/OKEwphfwxF6CoPPnkk2ozpB/ih+jr/d769WEFSnqzmIq4LuGSuVA+no/e9hRnvWtfHLvaNVD/4BGmhFd7vaO9jBs3Tr98tDWkIEwiwRw4ejT3xrpmP1m/mIhQIjXLS+XqdcgrLOUXhLbDr1FCUZEN9T2/prw8EPZeIX5In11o4vzZZq/Q7PDP59ZlpSVO/O+yT37yE54RQYOKaabCKlIxgpxw6L/hOlfDsZ7TLzN+XHpmmaqVFrnnYfjrwzXvqtMto4v98MMP2yOPPOLHL9iGDett9Zo1amyhsdAwQxcsNqAQjqfD/ygkunP8Rttc9EOXL9ynIEPGcp1rexaDiPiJj5/vbuIPA6ktVuXa2Ve++hU7/fTT/X1Viip1tDeIqYpR0zn/kQ6Oe4CqqjvSGtOEohO1++Js6h/+6DGg+bMt4TJXZugRrFq1ylauWulKT6MEBGvM86VqQ2O96jTKEOYjlj6ghwFUjvpHWREB4uD/OWhHnIf8z8iIX93tAr4pl+hfkCf+ixfyEcoz154kjEJbhyMQXHqfZwL2cvxBvLk26Nf54ziGEd4X4qHr/kcb5FjXFbreLL/xl8u0TcJH8WO8iwF2PuArKw+z/jD7Ut/Q0EePHi1NfuqUqU7uk3ROm4nKod4SXpW9JyCWLf/BQ5H4eXc+qJO5vO4j8Nq9QvxMtUTToHvEW9BgyFwaGJUZ4r/yU/+sCEDKUZOPU9T0CbT/eh3wwiRTdPtlI1YcZvPQ8B966CF78MEH7YUXXlAjqq2tVUOh4JtamqyjLQgBDQB6oXEvutKycqWRNUbwwzOM/tOVp6Lin8JMxM/5zhM/wj/m38sl/hwZ+C8beZy3xbLMzKDxFuDFRDl/85vftNNOO03ThAcK6N1C+gxYs5DY8uXL1WPgl14B1xhPIC9xEKoGKb0e0+Pll2tbKTtZGeTIyvMdAkWpo97LDOvhqazw47/+AicaD8MLibJ0z2FMws8xn9DLDx86ueBwv8XFhVZbU6tyYLaS4uLlMWL4CNUp4oQGTTwgT57hmLIDMT380g4B8eVYA+KYXLAEeNhc4znOGWAdP368puVif58yZUoYjB85UsKAujBQQW3fK8TP7BlIPFYkCoyvIdFMeDUbIHz605/WPSpeRUW5F0ioXH7Jnw1zZNndhkLuK1CpCI8KAXj/xo0b1RN44IEH7N5775UpiMZC15/7+EUzoLLwbKxkkD7LR2Cf5QMc1u5mbIBpXIApglTciqrdt+52zxgcxM/rAsm8fI0/xpffwUj82wLtTqtTerqpsyg8KDhMekDZwZEPmI0QGhAjmjKTJqj/tE3qOyRBOwirWHopkl0eHioNeUjvN8xC8uvtYTkDCkljDpRnHvHTznkPZRyWsmhT3SF8ypixO+KN5s0696EuhALPJ/lI7iJ1LzeurfHeO7OvGECdMnmKzZgxQx/kQexo7XBQ/M1Hft0eDKC27zXipxtIQVMgZCzT4jYxg8Yrwfve+x4n/ivll8YILaiS+DkVRN0ov97XBRIJABAv3kFmIBAYUGNmEI2CXgDLrrIu9+LFi9W9xg+VPH5mz6wNFBq+5izxBiH7LKv6eYYy1oDGg1ZFBu9ZJOLvjhhffgcb8UOScYoy2QIxU+fIw5huP1CuU+fxn6/t6yMy/43mFoSDdrDy/EEhWrToRW1ojoJEGUPyI0eN1nMoPZiYeI4xPBQff7veKwJ3ko6CIxI/v/ADkSW+FeVligu97RhnzLJo6IAp2gihOFuGsGiDI0aMsKlTp4rYIXg09+nTpytQwpe27+WJYIjCgfLmHYBfDjE7hbGQLgEz0EFZ7xXix05HAfP1GwVJhUMTbmhs0JoW73nPu+2jH/2o7Jbl5aXUS4+M/sv8d+Y0iL4EFYzCRVMQ/F3qouqQj8NClzlu38aUUNyLL76objMaBRWUiojGX1xSpm3gmPFBw+EePR3iTsZS6alsexa7QPxOHNwZrNM5Y3z5HWzELwUmDz0RGIKBukh+krFRMPgNL3uEfnCAeowSVFNTq14AgoCxBa4TBucvvLhY9+g9aLq013vKH398lcyMF0y7hBgFCgoRQieYQYMJuK2txbX+VplYGJPAH4RN+8TcgmY+YeIEO3j+wfKjXkd2HzJncHUEH8y5P/xTR2I6IpQf4UDH5Bd+lH4uZ/dAblaUn+/5dtt3IAf2CvFDsEhdBs54DfObNdPGGxja8msvusguv/xymzplshdgsVeaJi/MYCoh4zH1FBZ65QzB9RmoeIBC1Xu8IoNcQ/C4xnoDuaPp49h8AfJfuHChegEIhTrX7psavZK7pg8Rsbws1EbY2DzRdsiHPT81dFeJn3n8ni/uo3u+5zcUoMbhSMS/9xHqcCg1ZYvyLrgI0g3hbet+dwRBEcYDQPSPo5zZi5YprjUbNlrtplrNLIK4+cU1NjTagw+FXjO9CZAjfg9DH0V5lNs72qzY2w1fQbOOPeTNLxyBVs8xpI6pZpRr/vAJxB/jrrCyY3KAdgzy73dHPvFHB1RH3OnXr8WwBiLIi74i/p36cpfGS8Cy23tGQoKy2buk5pfrdNVmzZypxoZgQIMWaXqrVmFmZbZ10b08UNCxkNF24jXAdSo93wOgUVDp4gBQvqNLOXz4CFVg7JTNLa4Ree/FH9XXcDE8JSM73nPgfdt/Jw1s6y93uxpRT0/3lI6B9uUuYJwp/8tdfQ+i+hAUggsuuECmA943EBDqLOUXoHzOyyDucabphZ7ekLc9Z2BXOEHjzXfKK3eQLzNbxrsGPm3adJtzwGybP2+uHXrIIVru4lB3hx9xuOoFxB9MUYEP1N6y+PAfZt8J48dpD9pTTz3VjjvuODv66KNduB/pWv58O/Cgg/QFNFNrGaSFK2ibxJ+6SryoDNFMnJ+ubaWT9h3T2d2PrmbnPT07kNBXX+7ulPhj5k6w6bVZO5qGvwRJy2yd5tZme/Kpp7Tr/f0P/M27iZs0xZNCpTIgNKJ2ApHm6mIfgHCpiNJkPE68Ew0iv2LTM+E3gkqCP7qahx9+uIjhsssus0vffKm94Q1vsFdf9Bo75dTTbPas2fooDM2H3YKY2VSs2QsDAKoQA7ui76ug7tJbxvyhxQb9PJIWdZe6juM4320L8d62/dBT9vbjYRZ4r5x1a1juhKmPw4cPs7Hem5zobYUPl6TZExcPCyEea1h+HGh/c+bMEcEzKKsdrLy9kRbShr+wAQqTK4L5lJ40s4rEEx4+H0LFdhzb8raIG8GhvOqWTzjlFUoqPcAEYaeIn+lazHShi075MvCDPd/ltIiVgaI//elu+8IXvmj3/PkvtmrNWgs71vARS7s+dQexwvYVKPB8sidsCFozH7ywqQhUuAjuIyiiiSgOKiEETj7pRPuHt1xmH7riH+2j2cJd5553rs0/eL6NHTdW4VBBExJ2J7bVPqjLECB1PgqDfBfB89HFZ6IfrnVvg1xnth2uMLO5uRd9BLe5M9wrKyvRDCB9xyMfXSCkGBrhQuT0QGmPmFfpkYWtF0PbySdo4kb7RcjQFmlj+fHsDfAbXQRhxLxCiCBIEwJ2ivixGWuer7uCAjRrFsFCQndYealrBsOG+/WhtvD5hfbfX/pve/c7321f+er/2tPPPO1ac6FrC+UKJ79w+gr5BU+BU3ko7PwPsmIl4pzKgKCIH4hxP05zo2czZuxoO+Tgg137f7197nP/Zl/60pfsgx+8wo455hjXhMr0TELC7gJ19OWA56PrDq51157pkbe4QtfWThvCD/Z7V6pcCHAcW6ye07WuZznPB7N3GCymTQHMa8ySC+QbFDAUM0w53RHbMIjx3BHwj9/oEnaMnSJ+SJFBM7qAZDbSu9zJnOMOBhqGoB2EjQuYPvnU00/Z//3yl/bpT/+LffSjH7errr7aHnnkMdn+GXjrSZpzLV8bib87QveC51fxUhcvdB3jPZA7z65xjCCIDQKBwAA1Mwz4ZPuQQ+ZrUabPfuZf7Fvf/Lr3Cv7BTj/tdI0LoK0wv5+F4eob6o2t9lgqgrGP+B6ZmvKcrmd6k7rYjpBUF1rebUUjonEwk0JjDFvpWP0D4YvU0KuSZuWO+BNf0qMvMN0Pi5NhMuOcMgGNDYEc2GM1dcN3HuR5X4Gw2Kaw0BW6/GA5judUT8YT6MFj7tUGNX6T+o4fzfjLfjH/xvjRpmK7ikQexya6Az87m66d9Z+wk8RPI6XgojkFQkUQeNPWeb7TnqMuAFYsX2733Xef3XDTTfaTn/7UvvPd79rXv/F1+/3vfqdlFvjYhBk20exCIep5fzZOGdsRIBIczwVbXpdmH8Pj/o7CipWzOxhwYq0OVuQ75JCDtUzvZW++1N2bNTB5/vkXaNnfAw880MaMHqP385EKghECpMVwDa0q5g/X/EhaD+9kthTvh+xZGpYvhcMHNDF/txaS/QFMcUXwkaRmVpxsDssJBGHrHkLyw7K2WTcf/8zwGOppI81x4xIESMLeAWUV6n92YRugPqudeV1WW3HHuep5Bq4zuB7Beb6L1xL2HnaK+HuLSG4UrcjMSXfDxg1aUfN3v/2tXXXV1faDH1xlP3VBcPPNN9tf//pXe/bZZ8N0Su8iRiEQKtiOxwNy9/Hvjuf1fq9cvB9EYdAXwA550EEH2YknnWivufBCjQm84+1vt0vfdKmde/a5NnfePAkAFoOShuSkrRUcXUuip0NsNe/Z7yl+fp9rnEP0aEMIG365Rrq2nwN7D+Qz5Uue80tEpfF5ww9EEsgh1879N5RrpwQbZjWe07IeCQkJewS7hfghLTRZzaP2ho4JhU+1MXGwPDKDwPfcc49df/31du2112oa3i9+8Qu77bbb1AtgPRJm0UAmkcS3B5kXnCQDwYTlF3gmOq6JQPsIhNnevlkzHFiL+7hjj7ELLjjf3vjGN2rjDmYHXfTa19oRRxxpkyZO1KYd0oo9T9DkZdrphBwLw/omnjwGviA/8gptmBkPmD9iWnaJ+fXMrjzYe1A+UZMv9TiXl5VL4KkHgx5I3nvZsGkOecA6ScwZZzOd8tIyLZmsJW9LWHMljLckJCTsXvQ58dPIIS6NoDu/Yf9z5pK9m697+YBmePUw91Mqcmde6m+9F/D973/fvva1r+n3hhtusLvvvlsfVYkksi8M87V2kWGGfIJHy8Q+j1/MJhpE8nuagtZH4NUQsr6OzM6ZNz9u3Bg79pij7OKLX2/vf//77d3vfpeEwVlnnWXz5s61kU5y2L/bnSjZO4DP4tH1y8orJLT4KKauvj73VSWCElMaL9g1U49iFw53EyorqzRdb1hlJTSv9WCIe/zsH1D2CHzKknyjfiAQDzvicDviyCOd/EdLUOSXaUJCwu7DTm692DtAwJ3u/J9MGt6rD5qhkzcEAJFD/JhMIGpImilf9ARWrFyhWUGPPvqohALaJEsq8ItmH6ds8g4gctdAcRdpyFzi4XIl9hi41lfg3XyBjEmDl5AupriCYPMucgFXadOmTZXdf+bMWZrPzBok48aPc6Iv14BmzcYa27h+vezbxSVF2s6NKXAxP5iZhAat3oyT6o5osecPuOiBBfkecmxLxHzMx858wNXica+r2eTxbQpCzOPL4nxo9wwCUtbY9xFeY8aM1vaFZ555puL5ile8wntFR3jesBaL99Q83buq9Q+2D7j6K/74xzvVLqmf5LHm4Hsbix+RRVAH3v62t6uNd0dPdS6hd+irD7j6nPhpbEz5JC5DhmQfUBGZzGH7xcTB2h+QeewhMDsobGQctk1cs3qNLVu2TAtKsa4OxyxBS8Om0hEWJgIqnN7hmnR8P+cAP5zzyzV++wKE2drqPRknftniPWzSQdp4Bx0TVvjkGr0cdn2aPGWSzZ17kM2ePVufqo9xLZklZIcNq9aMl02u5fNJPDFkrrTH3oVWm0g79FYQoNsv0a2JP4A4gp5S31Oe7Azxo80zWwdTDemgZ8LMprr6OuUBQo7NLiDe0047XaR/2mmn2uGHHWZTpkzWhhcMnMcy2lWTXCL+PYNE/HsX/Zb4/bX6C0QbSFJmEXe0wkiSrNXPLxHFD3N/0RA5huy4x3No+xA+q2kiBHCMAbCAFNo82jG/IIYX7eIch3iE375DyOgYZiRBoJ6H3ufpUi+EfQgKpQlXD6uSvR8ihPz5shENmE2+MY8wE4hBYMweSoenDbJnhhSESiPbHrYifkXL4+JhhaOtwXu6Y2eIH7KH/PlQj7WZmNVD/MdPGG9HHXWkvepVr7JL3vgGkf7hhx1qc1zwjXOhR35gDgwCckvBuStIxL9nkIh/76LfEj98AOl509MpjQ9yDh9rZETsf2EjlkD6MtU46eOPazTUOKceEofYsXuzyxILq6H9Q/5x/XEaO8+hXfOhCK2dNi8CyKuQ8fflgmBE7E7G0cKUHzTzmyExpd3v81599OL3sNmXl1faqFGjtPMPZIQZiM/h+SaANYQwS5FebP6MVzAgjOks9GpiqfJLiPF8d2v8ASEVATryPOhwPwipiopKmzlzfzv+uOPs7DPPsvPOPU9TX4879lgbPWasjRg5Qh/xQRYMjlM2LDSFoGCZgBjPXUEi/j2DRPx7F9sjfv4Xu3ZRwjaxW2z8Qla2KmT+eQWBLKkgQGv6M7vF71GBcjNzRKh8/RcGTzH/aE3wYhcEHhZEtGkTa4uvtAULF9pjjz+ubRZrvAeAuQSy7HBS0dRIJz/eRzho4hBCBO8A+XWwy5QSMpWz/Eqauw388uYOv+D3SReCTOnzcx7hKYk/f2cQhF3AT1xbpMwbxvARw+2gAw+0Y485xg484EDZ+hEcbBnHGiewF0ImClF6T8Qwhs19ZgCVlpbYa1/7Ohs9eqTCjlGPachOFU4+uJ+75sfY5Pn4jg1sELrEJZIyApxy41wfuXm5YLKaOWumnXzSSbLbo+WzEiarhI50sgcdHn8yMORPyCu+/OZDt0Agfl0+tw9iGXpS9K5CjwiwD/MNN9xobLtJXaOXRZroLTHL6Jxzz80+tivRM7n06Hk/Dv96RPYKskaI5yD/WjwezMgnfjZiEfFTH6mHfkwukg2B+N826Ik/v27EahFTl6sn3POTcB74IULc5K4npUfeYxgOwmDa+62/v1WrDMQlKMjx8OeEvgXTbBu7j/gdgTxDzGODj5CGgMsqC76C+cCd/Pp1/0WTjCYPzjW33Rs1v1xCgCxbvsL+9re/2513/ckeeuhhLRAXlmtgOWIPrxOi4V0EEeJAeHl5quvtTmjhNu/1+/7eqLnzLhyyiuci0Qey55kAvSPvWO2hB8f1+DzHaE0cMwB62CGH2BlnnG5HHH6YVVcPC9q7vxzC73SCZ+onvxAv8SBirEuE2eXSN12iMQWewWRGuni2+2+IXzCL8StTnP9SAVmC96mnnrR77rlb14sJy/NPvS8nUt45rLrKxowaaXPnHmjnnH2WvemSS/RR25FHHqEvnbH5E1YU9AjiaMohnRxHeApyeQZiueRfiyDqrVleaYkB7w1RV9auW2933XW3rVi+Ug+WlJQpvjW1Ndpg5NRTT7PpM6ZLiZA5rdDrBnXLhTd1hHj5vy0Q46G895O4NAFKhD+q98QGq/t+2C2IQYH8NOWI34lniPfUqBfkJ3t0eG7ID73TyvIKJ/63Dmrip35Qf8gg0kTdxMV60DXhhHZGnUHRzXjIr3Kb6yizzPaTzyxveJKw8KP654+y4sEzTvx33nmnrV+7zoZXj5QShIZPG0C36kmA9ITdSvx7ChAgYAbJylWr9C3AXXfd6cLgb7bWMwitGUJtbGzW/HiRjzsKhoFoMhgigpwiAYjYRfqE2xKWTuBdToJxEas+BfHxlylunh5MXYwF8KHYsccea/PmzbMZTlyQamdnh8xefPGMSYjGh+mIXYuYOjqsapiTNUvdhoaYq0wkxhGEYLgGsUuI+jHX8FNbU2NPe+NmOi1jD3H/AoTL6NGj7Oijj7JXvfKV9rrXvVZrrrOJOeMUmFEIOyyMF+z2eofX2vi+3gCfiqof5D/FpdgQKB+InYsIgfUev9/85re2avXqIGRcOcCchNBnvOGsM8+Sxo8mSryIU40rCKVlJV5/QmPsjniJuPM+znG8T6Y7v97lZ8u4DlZ01/hpR2x0FAR8yCHyorIcjX9wEz+poC5IwfFjETQEn9VJnPLD/2dts9BzDs8BsoF6RX1saWG6ela3svC4H4KgXW6WiRtOe9KVMibIYNqVKZbG4v9onxIirtTsKI8HBfFjeiDzmOXDDBHIp2ZjrcYBZKu+7z671x3TRREEcR14uv0aZKbSekap0DzzKRryLWY+BQYRoyVyLRZQXyIWFFooFYiGRDp4LwWM7R8b9ezZs2zOnANEtIwRsBcp5hiIGZJmSelh1dXaJjISf4TC9ffkVwrGVyJBc533I0wwo/F9BQTJe1i6GoI///zz7ZxzzrHjjz/eDjjgAMWLWVmETaXDEQ5hxvfkv6+38Hrc9Zs9ntVvLzMaFWQdCP7/t3emTV4d1xlviUFswwADkthBtgRaSku0WZbKOHmjD5Ry2VbyJi+cTxJXxVV6YakURxESFdmAJMcGxKA4KQuxCrEKBLMww4xEnt9z7pm5DEPYxszfM32Gy//evt19eznn6dPdp7tZE/Hfqud33nnHjRbuADP+adQAexpFypHIqE+GmDC7jZ4HjS71GvXvxkVu/h7u/p3ojtMbDA3OHsmg/fH69nP610U3B/4oh7kA/BDblIyI5xl58OiElDJOvAsAb3iilV0UTXqqV66EMYtlRWUHH6aJOPjEiYGMXJwRXjGveeLEV+W97du9xomDo4iSnj+nH6KguodNffDdSXI/Fc0K4OewFFo7AJBuJ0IaQM0WyqM+Ro6TmTALZTKYgjx/Ps4aRWukwLq6GJoIQYcoQG5pDCjYqEiKO9wTBO6WSGsOt+TluHUBurwnUQA5i99WrOj1wdKYhQL+GzdsLL29vQZfDphhfJ1f7OhvBfgNaAbRcCNvrKo9c+asJ88B923btpXXX3/dwP/SSy95MprTvgBSwlLuxJPzNAn6XE6/qP3NW6EIFURQh25+ifKqh+/0JE3o3Nfny67du8t/fvhhlKX8uBFiiwx5vjI84rJEY+IQEc5gZozUJsWN0BIz6abIaDSI2t9tLmt1+iVdfJtf8uQ06B9kv3E7a6kC/wRl44/yGMOuAeD8whcoEcGryPh3PsPE5tnpD1zRM/7oEXDe9xlh1ecHvyj79u4rv9u5s3zw/vvl3ff+w7sa7N61uxw9csS8vaR76TjmgXVY1sXwdcj4zei2jl7sVKLbQwlTIAgyWqttyxumw31Ywu8CE0OuXLXS4Ll58yPl0UcftRbNMEDvihWeqATQ2H+cgqFiAZMEyAC16RPwYIrQuidXWAI/+YnWPOcbIi05DMO5wbnNBQDN2QIA/1Tx4dZ2x4248h2EWSmTSH19fQZ4TE8pr4w35wPwn+nnvp0H4su4uW6HAlzjnujaucB5aGhE9cN2F/PcO9nfd8AWPb9+6y335NjkjmE/95rEGzyTDyaTOepxgxpL6ptJ9dUPr3bDyXtOoOpRD4pGlIY2tpHIbb2bj7cS49vJz7OUmuoob7zxjz7+7wLWU/MfMMjR44I/1Tzaz333XS0PS8Z2/vZDy1Ob4Jfkkb928jyg8uNhQOUJBQJFk+wxmgBDOK/yAyh7KJdwaihRPDB/RmYvfnOpHPisz0YVKKSnz5z2ucf8fn3ua8sjC19tVKFvMYzL+pjBgX5h2pj5FNkD36gnFNWb0awAflo8g5cKnrF4H/kod45185YHelKZu9AAhBE1ArSMFB6C/+j3v1+2Pr61bNi4wZr0hvXrywoxLMMomIhia+4KVuF6D5rbw7GbUlsYuL+G9IxL+32mJYlWn8VwVDzAnGPtGVeGbYM71L5P8CYcXcjzFy74HhBEawMAk5iIlmf7J4ZMcTsffIsGi3QGKNwaTcTlTzj+yTQwMGRmZ7Hf4cNHyvbt75c333yz9O3vU6O+ypo8W0awfTi8Mdg/YGG4fHnI6eteInBX3VNWgD3XmjWr1bit8/YTzJdkY8DkOj2o7qU9yo/yJx7Sv8h3q3ybbM9aynqpwD9BWSbBCzGMc/lynNWNWTkGGOSVPCOfA4NDKrcLBnOvTzp1upw9d7acVe96566dbgyQPfDLvVUBPV+hVwCDZdlhxME34XF6XMgmaQEHPEl8C/g0K4B/CIHW38KFizx2S+EAZF4UxjisCAZlkpcCpet/WcxKQV9Vdw0zSE71713Zq0bgUfcCGBNmmAPNcGl3gIStiRQPNJ2smwACcd9+1oOf+e51AMq75jaFKbVsKOPJd5RJvoPSHWoDP+Fy0pdvmBq/GcbpBNz5xT+XgT7G3okHv1y8b3/r/6NWzq8rY0UT39J3Rkev+FD4Tz75fXn77be9txMCtGbtGqeLnh8NIMBPz4j0IFRESvrQrhAUzpCAZ5YsXqLuc7cbBXoC0SPcPLHWQvyAabGVATUa8+llklrik7Cpp654I52zkbJeKvBPkPlRv2QneZNLDBhDzOfOlcEh9hobLt9IkTrx1Vcenz948PNy5MhRL0y9dPFiaO3CoIiTnnLItcuK+PiALkrNZadrTPyvt4FLkjmUEita4vdbOdtiVgA/GimtoltKXYAWbSWEwHsDMBUKq33RFBkrX9yMTwP+A/39+lVBqpDRmtFyN23e5FW17CWDZQ3DHVjZ0HgwuThdxDdTg24PlUwmwA4izUmES6BH8KYC2fZzAn/648r4uIfSL8+UBWWZ/mj42pr/rVDEc0UAfP3Q01TUZsb0bSEQY2OlQx4uXrroldz79u3zLq9YOjA2OqyuM4vE6OWRdjQmyhS+WNh0hwFv8sCWEvAMjQMNwGW63UODPju6SG4WC+AfVE8AzR9tjS75C88/74nt1157rWzetFF8slD5k3crZsxxULZO8qyjrJcK/EHUO/yYdc54P2DP/BiKBnOJ+/fvL7/98EPPLcJDuGMqPSJ5QJ5QVDE8YIfeUydPuVzu72K+kYsjLhlhaJQoXZQd30XmR8Sn8+4Lv6OSCXAPjJNnu92MZscYvwoIIUebtwDa7hzb99BIYU6EHn9DEm4PBUnoWRTGpEgUKO2nalD/ALvQgO+3dsdZu2yv8NJLL5dXXvlBeeKJxz0WPF3Et6G2QGSaoGsERW7WrAFg/DTOkEFav+Q1qR021gpMMJHjkd/8DuTv0pjInckj3jsOXRkmG5vxsLpC8CN8EuF4piyDGVv5uAG185O+9blgbqWHVcy//OW/lD1//GPpO9BXDh857LUFDz28WuAcQzn3q2Hmm4y5ovEjFAz12PpL6SYvQ8NDpae7Z6LRpVz0yz1ZYByWBoFeI3lAw0chWILSIEUDvkAR2Kpe4csvv1yeeeaZsm7tamtgs5GyXirwB5GP0VFwYqx8dfJk2bt3X/n4o49sBu3zhcWrGBGgTNhkHCZWGG/FLtxhyNCYJd6Ep1FEJV3mUeMPcgYjcjXlZdnSfRfyq/fzpcQw1AOfkg78ooMw/3UzmhXAD2BTKIz5QgY3C3Bkjfcem5V77Ievimj82a/+xkm3hOMQeQCOeKgoegmM/TIezJbCr/7wVVu3eFJ4Za8nk23h0RBmXnTBco0BNCXD8y19JwGpTZn+3MzOY3mZpyniMnOJbmTORViHasL6eapv4q44iG9yXLzPcFz2L2rHA+hm2ZFm7hEE7rNRIhzu1xM9n/gmMbOD6ZGjx2xJwtnNR3V/qDm17ZI0fya9+A5AbOsc0tMkhS5zWFdEWrzit3mHGSuaVrqF1Q51oJdygpcyH1DwiYh86j3P9DQZ/1/1oHoGK3rde1i7dk3Z8tgWDxPSa4yzGJiDUgPaRD+Z+AZKCmRDBRHCT9m3y3Wqsk7KPE71bjoovjwzwJ/5hm4U9k7ynzxIiFRc4FPqNvk0CX/0+hiewTIMK8Hf/9ce1dNY6Zf7OfU4mYz95puL5huSASC74JwmZC8wKCdf+X7yGBO2qHG4XXvZa0N6UFzwKrcRDzIYCq594N7CoRvRrAD+e00IPFstb960yQLOfMD6desMAAAB5/TSWmc3rU1ZQVAyKW7ct5mXe5gCjRUGmooZO4UyreSD9Jph5WYmVbpJP27ZcKVf54nykT/cIq6r3n4DSyVOZGMs9ODBLzwuirCdYYEWvQeF6TRCsAG6NWvWlLXih9XqEaAo0DNgzoDFdw89+KAUiF77J/+UCUR5IM00ENzT2wL4qfMbgRn+KHv8tHnnL0HJtZ0E/G33jHdy3Nd8T/dWsho54p3f656ypgwxU00+9Tbx4kGAHsBn0SS/mIOfPHmqHP/yhPnc9vu6CE846FbAdyapAv8dEJWLdsmkYJo7Wvt/ZHPZtHGTGoLveaO0ZT097voj4DBfMhpXm0nzHZo998l4ACbhAUXi4OpEguEBKho70tvOG/mwto+wyY2tpik73scCqi7nD2srJsMQpmPHjpcDBw6U//nTn8qx48djcZoEEn9Mds1TVzbj7yRiLgkindQdvQbmFGgIHvneI+YNegQPPbTKk8nwDgvgmEegx5K8knVPHtvAjzsXlG5M5GUvIXsN7rk0NF0NQoLEvQZ+/Af/EybykeGzLJLa8QLIBmLd456yQ0/KwC834oU3kTsAnzlAwB5+4/ec+PHQoUM2bT7+5fHSfwnzyTgQimvBwsVOg58brTt6kHzv7sr7L00V+O+AqGDvE4NVkP7o4i/tjqGgDes3lKefedoHsDzx+Nayds1qm3bZNrwR7MlEfDAnE816mNhnqHGHKXlGm+5EIp3QZIHkmXsELHoAzt74O8CNCS921ETY2G/pdzt3la8lcGhaCB4ma8QB2NMdpgGhzDuRAFyXgdJL3kZG49B8Ndk2LV64KMZkBT82I4ZHMBygx4j1EPzDkCL8lCa01Ds8Q7wGMsVNDDkM5Gf9ZnkSvYeVuBExsU7DcLdKQ5b4vQZ+8hxDneT3xj2g8bLRO66cp8ONvLsMdeGPckqgR4uHzzCvRLOnp8khUPwSBv8s9CQMz8hg9tKY1Ff0Kht9W4DPt+zg7916HmeCKvDfAcFYyQBUOOA0ODDgYwcBdxaIMeTz6g9fKc8//zfjJoH8otkl83LBLDA24ZLS/XasYWaKSCfCAcMz4WzmbxECwyKr1GghJlRxO3L0qA/gx/ohDtz5czl+PASuS70BdtVcsKBZo6FyxmpiVGAawOaoOopYJAhP+HQ5gTdAhUYOf1zWOyahwYMHFrAN9byyYH6st4CXAEhOaMuGgPUkNAQsJqQxQHHAb/INF2XL4jTCe7JflLySv/AWaSLs3VDWaidO7hInCgTlQVm4PJQe3JM/0dRZ30HPEdv5g58fNO9Zm1evEvBH+UAJobxofIkjZTXLMBsNDERY22FzcXieK0n+KvDPQjIjSIsC9NuTgK57/TcmYQfc2NWS8VyGgTANfeqppzwZTNefbj6rSN14NMzJ5BGMhpBDPMfq0QC/TiXSTxlAAI01NKXXWquEkPeUGQKDJsXmb+yhxAXgY5pJ13r+AwsEdLEUfbSxpiGetgCi7iJ8vOs0sv216jHHe5VIa/jzVYc0evRY5Fg4tIb0j30XZqReUKhnTIXXr19v/gC8UB5yPQGNAvcMC9kcWTyCn9T8uYgDgKN8KC/ACzeX211SlvZMaPz0hF3/eiYsshDfC0reyzJgOBELL1a8osnDc7HfzZdlz969jg+jAbT9PNAJmWsrZcSJPy7SkA0K3+Ydtvc5xHYdkb4K/LOPYIwHBMZ0Aa+IyWBCL+hpGAbmQeO7+M0FCwUCzXYHTPJt2LDBC8QwD6VB8EHlagB4b8YVkyVjExf3CDNx0kh0KiFwEELCZbZXftBImaxl4QqaFTbNaFp5gA7WNYkqHNUpWChj34bZJnMGACd5R0PGHJfy4BD3/F4n0fgYv/JkszyVA/VpsFIeXKcCmdErwwYRgAZwhkbUGNAI0GjiH6K+4Z2cIKZB4OIefmFu6dlnn3VZUEY0LuYhykYX+1bBQ7jzPinjvx3K0p6JMX7zU5Mv8sMv5sHj80NSKFCSAPGzZzmy9YTB/vTpU+XUqdj+AC0fjf781+ddHjap1B/hiZ+y5hvc0xDwmwTPUX78ZtpJg3d/nZyX1nPc0ij7saOoAv+dEHIlxjAwiyHY6jkA+oqEl/H4sP9nLxm6+jAmXVGYCUHOCWE0ObQ4LrZeRqh9MIniyu2jIRgRN65OpBDOby1IlAf5RBAZp6crzUQtppjnzsZYKt1qFrKQnxzLJgyb7WHbjLvBXpd32ZQmHSAWprgdO/wlvmini7kI9wrbIKLXzL3SsEGTQYhGnvIk74RLYCJetFK0fUAfQIWPGD5k/oDfrVu2mqcYIoKPEGzCUp6ZLn7b97dKMwX8pB+tm3IiH1EmY97nBl46KIXi0OHD7jEG8J+1ds8vPEhY5IfGmDKnYYXnsjdE+UL3zWv4TH5w51tZblyuS9IOjzfvrowqrLNyfX7wC0V433YUVeC/A6JSOdmJPTMYyoDQ8GAu3lHnMOjiRZweFpsnwYAp1DANQkwjkA0B2x4jtFz0CDaqZ4C/ND/jvhOJfBr0YXD9nVP3maEbNHy0e4Zz+D1/4fy4FpzCRp5S08It9iZpBEvuLFRBaggD8CPALKiK8fPOkybWfpCssNmP+sLShnybKUQsLmSzOJbxoxBkGXA537qy0TOfNbyDX8qIfOfkL37gOXoP69ett2kxc0nwE3tNrZYigdUQZqX4d+JEAUYT163QTAI/ead3HWaUJ604APSYVjJUiJkvwzo5zIh/yo2wWZ5tjZ7yAqvx4zpTa2w3kZWsZpKetELE0W7Ew118qjhvRDn2T9y3k997RRX474CodxgA4GeMnzFahBKtZEn3EjFI8WTv8PCQ/bMPhyc3JSgwEAwHg3rVnhgPxmJCcGlPjw9c+fG2beXFF18sy3rYHGypTUNZ3g0DTeahrLzJrNWu1KnY7mbvkzKvEN9vj13izoQmmhUaPOB+oO9A+ejjj0rf/v3em4ThCxoGejAIF8M1lJm1sKYBwM15UzkwIYq7t9emIUXA/N0QYNRl4rs2B51BYblEWskPIBg9IYAC0OBdHLwRmivkvMuN51g0CLhHHiPP0SAoqMvEFaIyMZgIYHEbHWG48f5xrZhyAnBpCOCnZ55+uqxauSqUDfETG8+xLxH8iF/qlPiImmghfybLOB1FP3/jH8pbv37LwO89ihSeobfgzUY5UeBVK5eX3bt2uQFq8w/3OTnvcsG9eQfR+NM77u+/5KNUhwaHDPrHjh8re/bsKfs//dRGAUPiudw7izkhJlv5ro9pVeNKumxfrzK1CXHDa25glU7VjPmMeiEeyg7CL3mPHj31GWGoJ1IL3yK3xL1oMec7TE1Z5xX4K01JMAjWHlixWDDEjAgQ3XkmhDlR65UfxDAQ5oAPqAdhRhRjU3HgCURnlH/mMeLhsXkGq5P1Gu9+l2GFGePvk3gVzB8mgaST76KtIjBMbnFYBJrX/0qj/2DHjrJjxwfl3Jmz8Q1FiNAxpk3Y+Qs62zppNhO9C6yD6E0+99xzPlOBOSbmDuhxLpJiAvDNm0cPVr0O+EeYZ8BWlcFrHuxQPf7s52+Uf/vNb8qli5cMuBgecPgIIEn9cgGOS3u6y94//MGT0SgHuMM/HFpCgyO8lr/oxcFPNHTcDw4MlS8OHfIpenv37XNv8csvjzc5qTRdVIG/A0iiZsFAE2ZfDwQK9AToaQB6pKHRA3jh+Rds9YG536ZNG2JRlIizgr0d9ciIN31Co0KrBPDvhGAIBBmrh8WLlkhTxLQtFhZhlnjo0OHxyVpsnvfpYkz1Uv9FCfWCmKdAq5J/tHgm4pi85LnSvScaaRpxhmUY8kHbpwe6TNo424/AU08++UT50Y+2xXu9W7x4kesNot44GhAt/xf//Iuy44Mdpf+SgF+8CvCjTcO7CfwAOafA7d610yuVeZazgZ8hkAR70vXViRPmn08++cR7L8FH9BI9DCM/aNaErTS9VIG/AwiQRLvynht6lvj4jy2DrwqAYX4sf9IqCG0ttoze5Ek9NDcEFeGObjQCGACeguYutr7jYQUESvHGt/R9gTpaHVcO5YDRNEAAPpo9q2pZUQvgf/bZZ5605UQrDo7APpo4utQbmC+tkW+xLTKCSxeZFbrcR8e+0r0mtHnAm4lLKxaqi7GxK97dkSEhthpZvmy5GuwFZbkUjXXr1tr4gPkCeIzeZk/PMvHNWPnpT39W/v3dd0v/wED5bhz4o1cH38F4fG/r1i3lV//6K2n8y/Wtbz0cyg6qrNno69vvFdn0Ghib57xkzn9gc7O04vJwl+L0vlqMnVaaVqrA3wEU2rFu9B9gb7oq8FZ32GAtYUCbpwEA4HuX95aHVz/srvtjW7aUrVse83YAdKsRZIaNYjw9x5ljQsrNieKiMfjWGhq9DZFu+A6gj69sLM6fjwMj2CsHoP/z538ux44esxtn22IrTRgWWgH8XhkpUEnQhxBiT9Leafej0l0TfAB/pXksE7EoCWjV8IXnEPRHnTMktGz5MvHRCikUK72/0OrVa7zSuLt7iSd2PxV4M+4OX1G/hIOIx0wl6l25ovzk739ShodZmX3Ri9gu6vfIkcPl8JEj5h8aoXHeVDgPJYpviYE4GbdnTQxulaaXKvB3ACGUBmkxP0KQy80hAJwLLc2AKoFg0ohhHoaA0MZY3EN3HQsOVn7SzaYBWNYTC31i/DYmEdGkrJm5EYiPI3yAgG3Jpd1zDfQPlN0ff+Rzd7+w5cShclqAP3x5RGkNIZ2wXAkW8iHko1e8NawBXxdSjFVL7CRYaSYIfkFp8ESm6sH8oPqDx8LAIHjKE8NdYUFGI0G9Uoc0BiulVPSoV3D23Bnbwg9LEYHgW8LDU7bsESuwPTq89nc//luPz6MoMM7vdEiDH9Y3AXN4BM6hETL46889TuRAfhk+QhGi11hpeqkC/wwTmIkAImAJpEx0cYxkjG8iDAhkaPCAdNgkS1tDkOfH8vJFCxf69Kgnn3rSmj8Lwxga4p4JPLRyWztI4BEkND+IibmxK2M+xSw3qWJhFUfEbX9vu7W1wUEslIb93fldcbQjq5IRdLQym/PRPRF5uGleV3xL6aVnQaNibbDSjBB1Ay+hNMA/ELyW2j/1ZIscMWMAflhdAeD80h/gDFnOsGbNgd+pTuHNceAXYHslK8Cvxh+epkd6+tSpMjDQr2d6B12F0+5QYrAwQhlAKYhvKW3ieRoA0oRiwVkZxMtQUqXppQr8HUA2G0Ni9A9BgvEBSo/Ho/kIcNmnBlC1pmSriBirR2gQJGtN8sszwEy3fMnSbu8CuXjR4rKg2T+G3gMCa2Wfj0vQmGRjKKlfAE8XnHFXGoLB/kFb4yyi0WisjphIxuSNb4eQhh26GxOlGWAhzTFfEVojz2ialWaG4pzoRqlIUB/hGMoYj8fcmMaBxh0zY+oWHvRwoX4dTvVOfdIjYMweYCdOLuKDH71yWYxFPAP9l8rKVQ+ZvzDltWJDQyP/rPXwN8QzXS0rtftZuU0DJaCHp634KDzKTaXppQr8M0wIAwKDVoNAwfiAMgJy3ySwdFcYzQwhBmAbcMUd4AVcPT7/HSsUR73IDAFDwBGehRJkLziTMOVQkon4RNmQWPvS/WI1Gvi35qVE5epHWx2RPjm6AVF8bSbyM/nguwBIY/JXaWYIW3g0evZ9ws6dSkurmewBUMdY9DAWT6NA3dHY++wDVa6VC0CYhiDrF7BGIxffwnse/lM44iQuNHg2RSMsvQDeMYnMt1FOUCIAefOdLsx/+Ri8T3q8Qlvxs06g0vRSBf4ZJoQJMGVFJ4KDkNElB4CBdawmGDYBYvGLUFBhCAuCi1aEIHpyVsIXlRlaNuRGhMZCQod7xsGVceCTsKm1I6AQPRE3SPhROHoj3iNF/pwGhF+/9DTYs4h0oEGSD4/nMmQlN+Jroqw0A0T9oySgtZsvVBcAeCgK0QOgfqm7b8WLVBYaP1XmHpzqnzpECYgegwAaPmoBPxo9PQR4DMVBHn1cJgAOPwD8fH9pz9JyqT+266DxgJFIh78nNwh30pMX4F9pemle99Kl/9TcV5oBCpCNLnDSVTsBlgB0w/QSEInBNQJhR/zJj+NxXFA8Ezbf+RVe+NF/TWg/TITHISi+FUNQeuu4HB/+9eewIgchqNzdaMhPODbxN0T0lWaImvrxbXOffOX6bF36L+rR9/hoGu50Gw/T9PgcpAmrCk+TZLOn3PydCBa8oRc0HjgSJHgKxST8EMnEn4jgeKw0rVQ1/kqVKlWaYzShZlaqVKlSpTlBFfgrVapUaY5RBf5KlSpVmmNUgb9SpUqV5hhV4K9UqVKlOUYV+CtVqlRpjlEF/kqVKlWaY1SBv1KlSpXmGFXgr1SpUqU5RhX4K1WqVGmOUQX+SpUqVZpjVIG/UqVKleYYVeCvVKlSpTlFpfwfT74K3y5CCkcAAAAASUVORK5CYII=;rotation=0;" parent="1" vertex="1">
          <mxGeometry x="160" y="50" width="82.84" height="72" as="geometry" />
        </mxCell>
        <mxCell id="RNJNpa67RIgomQQY6Ot4-5" value="" style="shape=image;verticalLabelPosition=bottom;labelBackgroundColor=default;verticalAlign=top;aspect=fixed;imageAspect=0;image=data:image/png,iVBORw0KGgoAAAANSUhEUgAAAX4AAAFMCAYAAADMaNdaAAAAAXNSR0IArs4c6QAAAARnQU1BAACxjwv8YQUAAAAJcEhZcwAADsMAAA7DAcdvqGQAAO5rSURBVHhe7J0HgJ9Fmf+fZHvLpvcKKUASeu+9qigqiohnbyin97eeeHrnqVf09OwNVCx40hQsgAiCSlF6JwES0nt2s71l/8/nO+/89pfNJtmETbK7me9m8nvLvPNO/T7PPDPvzJBxEyZ2WkJCQkLCPoOh2W9CQkJCwj6CRPwJCQkJ+xgS8SckJCTsY0jEn5CQkLCPIRF/QkJCwj6GRPwJCQkJ+xgS8SckJCTsY0jEn5CQkLCPIRF/QkJCwj6GRPwJCQkJ+xgS8SckJCTsY0hr9ewiOj3XhgzB+X+6wL8ts3Lz5s3yN3QofnDhfnym0292up8hQ7clf4foWfxv7iCszTa0oMCvuX8ParOfd272MPx3s8LqtPaONisqKrbi4mIrLCy0AvfPb1FRkY49NIXHu1vbWq2lpcXa29uz8AmrM4SbHUf//iNwLYDr2ZEfDB3icfLzzR6HkO7NIbk86vcVRkJCQr9AIv5dBPwHlw0dWhDOI9lF+M22tnZxXxGE6+cdkLw/CHkPcUKHIDvcD4SMf6gR//kFwr0CJ3rImXcUZgQOUbdv7oBpwzN6v1nVsAobXj3Cho8YYRUVlVZaVuq/5TZs2DArKy311wwNcenosLq6OqutrbXGxkYJgMamxuzaJquvr5cfRBJxzcXP35EfP64hiAo9Tvy2E68OBInHDY948GcLClLnMiGhvyAR/y5CGq5DmjF/aN5Ovjk4CULYECJETSa3O8m3t7eJCNHCcZBwa2urFRQGf4SLxt3e3qHrHW1tTvCbrbKy0kpci29qbraGhkZr93tFJSVO6FVW5fdKndRHjBxh/3jFP9rYsWOtqqrKysrKpPlzr6Kywp8v8lj4+zzM1tY2vbvQBRfxqKuvs+eff97+9re/2V/+8hd74onH9S4EQmtLaxA69BxKihXHNk9Ha3NLEG5IAyV5iHoW6m34L0Km04UTaenodEGQkJDQL5CIfxeA7ju0oNC1WtdsMYs46YcbmDxQcTkOP2jmHa6tdzg5ithdGITrHbonrd+PC4qcVCUM8EMvIgRAcGjcDfUN0voRAKNGj7KpU6barFmz7IADDrD999/fxo8fb5VVlVZcVCINv7S0REIHYw2EXOAOoldMEVYcEDbn/j+9lTYXCE1O5g2NTVazYaP9+uZf24svvmgLFy60RS8usnXr1onky7wXUemCBYFC3Fv8GX49NSE85YGH6WkjnR2eP0XFQcglJCTsfSTi30VAYtizITeRs2u3IvWsJ+A3ZNLhPpp7uxNgod8f6sTOs0OdGKO9Ho049BqiuQjTSIG05xInVzToObNni+THjBljEyZOsDGjx9pI1/BHjBhp1dXDrNzJmGd4D785ovfSpYDlMkEDeQ8tCL2RyMUdHZ3uut6Pv2XLltnKVSvthRdesGefedaeW/CcLVmyxNatXWsNTd7rcEFE3EqKS90/BO+OMPxZQA+BXkqRO8xIXeMDCQkJexOJ+HcRMvF4zkm3hcidwGUFF9lmBEtPwC8Fki0MJO/E3OaCgOchaMi3qalZJpSK8nIn8WobPXq0jRs3ziZMmCBNfvjw4TZp0iSbOHGiH1dbZUWFlZSU5gQNGr0Ggf0vkrqf5kA8KWTiFXsnxJmeREe7X3NN3TqDoAiCIKTDPcvcs6m21tY42S9ZstSeffZZe/rppyUMVq1ZpZ5Ihwsu/BMfxclfyHgGAoAe0FAXAAiGhISE/oFE/LsCzzGIHeIMZOkuI93gAsHSI4CBZc9Hu/a/Dt1z5/6YzVNeVuba/ByZTkaPHiWih+QnT54sN3bsGBs2rFr+/T/vBRTy41EIggfA1fC0v0zXuwRBz4jPEUpbW+htQNiMSRAOA7TEvVjvCp5Jb0Njo61atcoWvbjYFj6/0FasWGFPPfWkPffcAhcQTRo3KCAvPBxmGWEKowdAHhB2QkJC/0Ai/l2BSC1vaqUDYpSW6/cgXGm/fh9g/8acw+yekaNGavB1xIgRspGjzb/pTW+yctf20eSx4ZdXlGsGTlFxiUw2gPAlSOKxCxBmyiBQeBd3/LIAecuF0xxiQSsc/1dQ0OUjCCy/5+ESV2zzxE/X3L+ECf79Qmtru9VuqrW6unp76KGH7C9//YstXbrUFi1abLUbN1qz92g0q8fBoDW9HQaDoxBJSEjYu0jEvytwAssRv5MaGn4HA71OmGj/xU7Y2L5hXvxwzoDoKCf9g+fPt2OPPc4OO+wwm+IaPRq8NGUPp6AwmGgCP/p/HlaOeAkrEwI9AX8MohbmkXk+CBLBEIIOwgni55xjzbxxDwiRIifrfATbP/5DjyAixNM0BfRZ1/rvu+8+e/SxR+25Z5+zZUuXWU1tjWbzMAZAOsmbhISEvY9E/LsANFfIUIOoOeLv0C/XKitca3cN/pBDDrFjjjnG5s2bZ7Nmz7LSkmIn1SLX5N0VhamV2MeLiwtF8ijinOM6h2yWpgwJQ5gymTjifHj59XeGQWXXxrtxKoW6PZpFCED0DMgWDCEdQ3LEjJkmhB0Hif2iO4ie92LGwsyFjIkDurwfAVbrQuDJJ560v/71rxIEjAnUbKyxsoqyXPgJCQl7F/2a+APBdjipDBWhyqzi5BHMEpldw8GcdsBUSH0FC0O5v4KhBfLXxnRKDwciFfLMzVBRCJ/B1yHW0NAgQsTMATkrDk7E0bwC6UF2TU1NVlFeoQ+jmF45edLk3PTKKVMmW1XVMJlxGKyV+cYFQXeNnWgSfrxOQYS0hSKBKOP00PxrEeGan4d/Ow0eJwyC3DJcd/6nUYJuYWfREHgkmrcwOYE2J/9GzxtMQYwBPL/weVu4cIH97ve/tw3rN1hjY4O+I6Asi4tcEHoeUzZtba3KXwLlHYTNtFbKE7/EgTgxPsI7KUt6WcyYIp58p0AG8m56L5iYELIJCQlbo98TfzBzMFiJmSFQEBHWlMGMhbgczBDhi1Tmo0PUGlR1h9DoTpiQDH4x2XAew4+Oa4TDlEVNSywpkSOsYdXD7JSTTxHpQ+4jR2K3H6NZN+PHT9B1CE2CapCDfAIxf/lmQXnpjo+/NmzYIPs/M4GYCspsID4UW758ub4aBuSpyskdM5KY+QSpq6A9WH1trAOIPwhe/COQKSPqR3lFhcoUoQLhI/QRAAkJCVuj35t6IJZIxJEIwvXsP3fYj9GaIfLoIplDKrG3EEmKXw3GQvwIEAf3RVgZ8eN4Dm2daZXMsGGKpTT8USPtuOOO19exuNg7wPFMDD+GuS8B4lf+ZeludyJmNhB5wgdgEP+TTz6ZmxK6Zs0aLQ+B5o6JyTNMzw1xkmcmUCg3k4BmgJjeW7HnM707lIKYz6xP1NLa7GW6WQPj9OD4qjghIWFrDAgbP6Sh+ecZMUAsOXjDZ1CUHoDWs3E/UcsH+eQeEYkZ4A//DMbiIHHIHi0eop86ZYrNnDVLX8dC/szGgeAhK8w3PBPIKYRJ3DjmvYQd47GvgDxQPvgx5E9RobHH66wLtH79epmBFi1aJAGAe+mll2z12jVajoL8hNghc4Q6oGzpQbS0tmgpCoQC1QHQ2ysoKLKmJtYcatU5z8Z1lBISErZE/yd+CBVzDMdo4d7gIQa6/th86d4XekOPA6zY6yHySMAA/zjuA57jefxB9BUVwVbP8cknn6xB2VGjRulDKq5Hgt9C4DjyzyOx5RN9d/+DETGPldIsvUzljEJY0zkLi6yluVllQP4w04nyavZrixe/ZE899ZTMP0/yTcCCBRpnYaE47nd2ugB1Amftn0J6dkMKnNybPK8RtOHdRUVBSGDyaaVX0NrmV+mxZWM6CQkJW6B/E39G+s4YOoVINdjp/4KG7RTuvx3tDPBZTmvnWlxxEsQeAISCfX78uPE2depUafGzZ8+WmzFjhoieQUr8sswA74sOoRE/vCLDIonlk7vuKV74C0JgsGudWovHHfmAjb57foD8a8pHvx6EcVj2oqUlLDz30pIl9tTTT2ltoIcffsiefuZZW7VqtQuRVhfKJVZVOUxCGq2fMDDraBwGO7+HVV5eqZ4CA8XBvr9vmdkSEnqLfk78TizewCEOCJ+IQqiYfcIxmrtrfN7YGfhDy2TAD2COQQjEQVbs9HwohZmAmTZxUFYzb1yrL3OtHr9Rc+c9cXCQxdMiqUViJ8wIrvdEeCD/+mCE0uoupjg/X3pCft7kgzzFzr+prs5Wr1ltzz33nD373LP2wvMvuEB4yVYsX25r1qyzZhfopeWl6kVQXp7B0vBb/FnWBaLMw7LQCN6k8Sck9IR+b+pBIwxLCXSRLo5zuv98DbuZJX/9HjNCmCIImaPNH3jggTZ9+vTclErOIQscvYD4q+UECN/D5RfwrkhSCJ1gr+6KA9p8vB/9cj8Sffzdl6B88LwhVxAAMb+65w3gWtT+ucw9zHQ8i0Zft6nONm3aZCtWrbTnn19oTzzxpD315FO2ZOkSTaWl90Y5yASElt/aLrOSenx+XVNw+3XNTkjYe+j/Gj+NW9p2WKce0wJkgRZe5t1+ZnCMGzvGJk2amFvUjAFYjqdNm6ZflkIgkSKXbWikkaAgjTh3PII4gEhc0S9nXMvPwOgn/g52qAfmGRDzi1k9nvgtiJ/8y537cSwLrisfPasUhh8M0XhNyF+eYQG7DRvW2zLX+JkOunLVKnv0kUe0RhDXGMyF7OO0XMYByPlgBlSUEhISumGniV+E5k/oYxsaKNfchY9tQkPnInfyj/HFo/E3kmkghEAakEiETDv+PFPysLsXl5RaeXmZVVVV2vDq4TZy9GiZaiorK2zO7FlatjgSfTTZENcuguld1x9zEc+g0QPisGVcQ7w0z9zTkn8tIr63J+Cv+738uPYW3cMhjDh4jaCM2FGY+eHENGzrPB/xHqtuchjfGfOq+zPxXPd5Z5ZvEbnnmJab+aFOaUzHQX1jKidE//e//01jAPQCGBxe74Jh44aN1tzc5GGGsQM+8GKmT/iyOPQI/aZ6Fbn0ZXU0nGf1072F+pqQMHixU8RPI4HoaBfxA5tIAPHjJn3J6dpW1M61SmPWuHBqeB4EjXiIPxoHQAmFGRw0QM3i8G47BF5aVibtHi0eYsdcM3fuXJs1a6aT/ESrqAhT+/Y0uggjkBYuCq7wFXAUZsEfvzGvYl4AmSU8n5jpEq/lI/9a/js1X97fwXuxjTO9FNMIZi5c9BcFU08gPN4dSTsSJHHhmOe2Jdg4j2QN4hhMfJc0e57x8yhE+wq8t6mlWR+GPfbYY9o17NFHH7WVK1dYQ0OTlr2mThUWFlszO4i5QCAujNPIeZqU9kxoISikuPgf8ZZS48lQWvx+SFd4d0LCYMBOEX97a/giFmIoKS3R9EdIHq08NBIaE43Gj/ndDhAU7ZvbrbGh0Zq9O0+4JSXFGmTlHqQPyX/84x9XVx4bvQZiq9k7tiQLZe9ApOHEG8k6kl1PiAQpE5X/RaHAM/E6dmoA2dLj4DohQphhC8Otw8cPBLdu/XrNgoEAV65cae9+97u1rHMwjwXizofIOEOMQ/TDMfeJA0KEKa3cC2nomr3DwGp+nCBLnpEw9+uUV1+TfT7qGeD1d0SBhc3/hUUvSgD86U9/svvuu1+zgbRLmseNmGg8hymfHi/yvNUFB2sLsYYQacRURJlK+DmIPzO7eIfK29OfkDBYsFPET/eZT+KZPkeDoDFxTKPvhAgyUhni2pOfhHP/xy0anLR7uuKFQ622plaNknnymGdmzpxpBznRz54zRx9NoeFj2qlwwmeONkKBdzJnnwD90ZxWyQc7aG17ErwXkgukGIRcJMOgNRIvejMeXz+OmRy8dPljOiLry5CXkTBzKXHPaPNMS1Veez6zK9Yzzzxjjz/+uLZF5MtXlkWoqanRjKUf//jHGtjWR06EFeOUF994HO/lg/iwlMLixYt1ny+TKQvKifgBrjO4ypRZrrHnL70PwgVRkJA+iBRlAH89vW9X0OYkrLCytPALcSMAmBG0wgXgvX+9z/7whzs8bzbamrWrbVPdJuvs6PR6FPYfrixnM5sS5RtfBHsgHma2K5nHnxld9Cr4/oAeAktlJyQMFuwc8TvxYmNFs2M2DWROo4NgImiIrLUiMvRjmjrPFTtx0+hK3fE15pFHHmXTp0+z4U4qrE/PV7JomGj1cfNwCB1NU4Ot2IccEKq+4vWGH7keEugjTtlpRCIFOWLjmn4CwUatGVKFCDGLkHdxHIM0RbJE68Q8gekGQl+7dq1++cAJ0mcJ5NWrV8vMwXXCJP8RDOThd7/7XS0WRw8pv1x4L+cxroC4xThGIGjYbOXvf/+7/epXv9I4CkJ5jgtkZkjFZSsID0FEvClfIKJ3R3i8i/SpvNzlx+XlIuSusllnnhK9C5AfEPbKFSttwXPPaxYQgpJtI5cvW66VQpv9PuYcr1WB0D0ILavtcccRLjPEWEW1xJUO0sAzCQmDBTs3uItZxxs7DZtuMI0Ecg49gbCdIHZSGh5zqqurhoWlD8azjSALmI23sWPGyi4/e84Bfn28VbhmimaPRihBQiPG5urvYKCvOzRbA8ebhiBcQiONDX9PIRJmT0Qar0U/OeJ3UuUOceUahBKJG0JHe8dcw3IGOI4hYbRSSB+i13MQrBMvYXJO+sHoUaPt6quvFknzoRP3AP4i8ROffMS4Au5B/Cygdscdd9i///u/S6BgOuIDNwQAQoUeBb00BDVac4R6Ou48IL2b8Dgnjfjr/u5dBfP0CQuFgAzVe/0vDgaTJKZz8uXvRs+7lStX5TaNX7BggdYI4tuADes2qGeknqQrI+QP8W115Yb84jr3qYdMMU1IGCzYKeLXx1HeqiADGkkTJghvHATAjAoayZTJU2z8xPFak37sGFasnGRTpkyR45hVLNkYnF4BjVeDahkf8EujDacQaHYxQzzkusifAWT3V0iD34umnu7gWrweCZDzYOc3mW4gc4geYsdkwgJmaPGsWQPxouljZ+cexBnyqmugNpYB1zTjxf2MHDHSfvazn2lshLKI4N30JLp/WQtiPPnlHlo87//9739v//Ef/yGTTiRATD4IAb505h0Mtu+3334SAgjunOZPmO4IWUTqwkQE2u3duwpMM5BxrhfY0UX8TBgIgjGYAYkT19VTWrPaBUBYH+iZp5/JrRra0NigfCRPWdmTmEP+5GmnR5l8ZrJBQsJgwc5p/A7Z6L2RoGWx9V5xKV9K0m0e4mRwgF34qgvt/AvOd42/xEqd4MtKyzQQDDEEogqN36lQv1htcFzVZiC66kLGL6Ld613egHluW7TRR3yy0yBecR47iMTMdchHpOy/aJ6YbqLTKpUvvqANS9ioBG0eYRCXmYgmFBGRO47Ju0jMECm/aKXcI29xEPD3v/99afyYyiLy4wMiAYf4hzwmLK7jb6X3Nlg//xvf+IYIEwLEcQ8i5YO4uH3kscceq/WNePcYF/S8l/B4A+HRi+Md8Z19gVyFJf46o/cX6gc9TwZt+ZJ3c0enlTFO5PUwgu8C1m/Y6IJ1jQvfWvu///uFyB9hxzmhlFeWa2ZZmys6In8vY3q2CQmDBTtF/Ax+xeYLUTAbh7Vv6HqPGjXaLn796+1tb3ubjRk9JtOSIMLsgTzwQnoPaGXBvj0kEFyeX/z4rdw1zhEEzj1bAYGR/+yeAGTWnu0ji0ZJeuN11p5pbGwSSULmLD9w//332wMPPCCSx17c3tYugYBGzS/PRwKPYUG0kXQZuCRsTDg4wo73uM455IuNH208Ej/38kk3Ejwu3sNtQfwrV9rvfvc7++QnPykBg7ZOvLjPOX4A55hw6AUcffTRduqpp2qqLSY9nkEA8A6eoXzx31eA8DE7YpvH5MNMo4K8+tkdDNZSfzwSQXnJ6gz16tFHH7M77vij3X333d4TeNrWbVivWTyFBUUyWSIE6FEkJAwW7BTxqyudNS2RUmuLSGita7CQ/Qc+8H778Ic/7MSFduT+8OqhxyYTG2Wu/TspREAKbW3M+w9ddoXh91u9cRcMZTYPBBUaaj4IgusxyD2JfALEjFPn2jxflz7xxBOyIzNAColCjmjp2Ogx30CGkRRxkDZh4OK1GG50Qz0PQND06RGEa37L4xGmWrLI3DXXXKNdwCiXGB6/EZr/n4VJ/DH/6Hoe8a/yOP/+1lvtS1/6kgQO1zDNoUm3toQZMKQJR1wQgAia4SOH2+yZs+2oo45ST+Cggw7yejFaxBx7G30BTD1xcDxXIYi7el+et37c2UmZbNa7tam8/PFfqEcR3inQDm7MrFq9eq1r/0/aPX/+s7aNXLJkqXpgCOKk8ScMJhRUVlV9NjveMdSYvKVkZIKdHZL29uYaYZEdfvjhduKJJ6qR07hoX/rt7riue13EBvhlj1eZdbLrBbrW1XPQj79fpIsfXcye1/9bIjT1LsCpXAMxTMA10sY13guB0NVvcbJz9hCZcA+tERLkHKJAW7z9D3+w62+4wX7xi/+zm399s/abferpZ+ylpUtt48aNtqm+zjX7RmvRADjBeXoyR/7hQmT8vYqTIpH75ZrHLIt71/Xgx6/p0hCrrKyyC1/9Gi1hgYaeM4QQBr/ZMQ7/ueO867gGJ8Enn3xavRSZTHhvFm99EUvvzDVs8oXrlEWr92C0525tnS1csMCF3kP2uAvANWvXSbhUDRvm73fyjO/RW0O+RxAOvcD8D/LIb7/k4Dld8mfQ1oPLxRsf/OeZgXaPKRK7fKhL4V7wqyBy4Bx/bO5SUVHuvabxdvDB8+3oo460GdOnW6VfQ7g1e540ee+NNf95L6uFslwIz3a64A0rhAYTKMKVjOEefgibWDO4jzDie4Io3Ol9EC/O44woZr3F+wkJuwM7Z+PvpGIH0qfCoukxx54KXVZeau969zvtE5/4uCp8X4DKT0OidYZGG1qtrruL5/ySCNpKmOpJ7yT6Df45QGvDX4cTfLwG5Bey8XMoJAQbGqLMA04mtbUbNRjI4ODSZcus3skcm3CchcNALfPf0ewhAD7UEvEiFfsERApCDHEOv1zrOsfGfvVVV9u8uQdZWVmp97R4v0v3LH9CjnQhPw+B8sSxavUau+666+2r//tVmarIlfgW8ofjeE7YQ/w5eh3BvFco0xWmrKphVbb/fvvZAQceaPOdTNmXmOWwJ0+eZCOGD8+VEcQexko8VA+vEAL160pdFqcYT31IxSbwfhqjnnnROcf44VY0mW0PCBvVH9LgAp2gMEtRjpQtPbc4E4jeHNNqmU4bTW+hrAtypjV6Tpjf+AXkR4wH/lXDXNCTX0DE73/UNeJNfSdf1EOKCUxI6GPsnMZPc/KWQUPB0Wio1DQYtJQjjujS+PsMtOSsAahx+jtBPmHlH0fGiNc4hbvRtNpdE4vPB2Se3alRuuM55tGvc02Vxs42gY8+9pjd59rvXXf9Sdo9Ux3/fM9f9BEVu0ixoxREADBBSJvnhLj3GcjTENeA7r8m886FF16omVPSGrPraKigy2cXtsi7DPUNDRrwvP+B+0Vi4cnoAiAwwPOUd3wHaVb6/Zxn161bbwsWLrDnnn1WecXAtno/TqwoDCDf1BXWbaKc3RGW/0WtHdqkF6YeINf0dABpVWn6Re73tg7GMsc/vyAKAwav2XWNmUtMYeU7hjiFlfvUJwREJHkQw+opvHiNush7FeEM8uv/Qo/BBZcrKfH5hIS+Rr8mfr0nNhZ/F04NJr/FZAhxcpLLCCESRyBfiD0s98svfoLNtlMNt861d4h+tWu6rPuOqeK++x+w3/7ud3bd9dfZzTffYn/+8z3aIWr5iuX6ClSNF4nikNmBxq74kkeZIOkhnrsOUoXbNrYifr0+2LxBT0+Tb92xbeLvQiT+IFXplYUpo/jnuwJmdBU7QVIO9frobJVW0+SLYObUM22Vr2oxD6mH6JElLrmF9LwHQPmpvP1Viiev8uv6elsX9U/lzgHv4pCTHpLVI0K9yZ7KjjHbRLKmfrMDG+MnbKYP+SMIEAhcQ9MnzczWinU0PsdsNoQEU0QBAkIfN4Ykaeyr088pJuqNlvPQWFaoR/wmJOwO9GtTT4CahQhg64YAMfA/jSQ0JvwxSIw2BvEyI0NauOIcegw0QDTOmppNmsaHZk8XHpMNhEdXnrQ1NDZZQ11o0CwZwfIRzFbBFACixkf6afz4AzmNT66vGm9GdkL3IuO8B1MP5hPyYEhYBG+r3OuWpyJZR8+mni2fdnrz//2qP0PMSCak1tzS5OfYwMM0XuoJ+Y3wIaz6+gblG3k5ddpUmz9vns1zxzcBTEOdqeUmwoJ/jH20dbSLIcN5eCeFjbmOqEdBDySDuO4RkhCON7aDSNTd65ZImjrk96k/+bOSEHC1m0LdwQzEOknM3OIDMQbwEQIMCuM/f9tOwsSkQ1nq3I87qDeeh6SPL4X5xcvmzWHryoSE3YF+buMP5pm4sFkEDQLHoBuDgSxkRoPJb7qx0fCNQVM2j57NPaLdFq1z2dKltnrNGg3A1tTWiJRqazaqYVdWDrPhI6qltdJg2eUJcw5TWKXVEp+M2EUy/i6936/FmO4LxE+sKO3Y24F8Q7mEj/24PtTrAzkUy5B7rPm0ub1Dg6Qs21E9vFqzkY464kibwbiAH0+ePFGkCah3LAZIWZZ7z4aw4/z67mW/s6DHqnEBr9OYnSJifijsLJ+Ie8w3fhH8fIyHssAicdo57Nln5ahr3Gf5DNY8QggQZKPXITaNUZr8PnU8TGv2tLhj3asg5BISdg/6vcYfBkdDI0D7IrK8PxAWjb/rnGMaEGYY5soz4IpG9uSTT8m+zKwMri1bsdw1s/V+3iQNkRlJ+qrVGx3bOBIGBN/SHD6mglhYa0irNcoUwVx91+jUUOlRoOMGaEDYyUHav18M8ewL7ArxQ/sQf9dgaT76gvjR+IcgYDy95BMmHgg0TPNEY/b3e542uFBVPjIv3n/xD5FrsNZBXvLsqJEjbfr0GVqwj+8R9t9/Pw0Kjxo9SjNkyFee591EV2lUOphx1D2FvQPPR6dzf4fyy/MmvCv4gZijn5hvnEsxcEGmr7FdALzodY31gSB/lIw1a1ZrIgCD3gzssrcEApGwiTd1PEwkCLkaeqgKPiFht6DfD+7GBiYidcR3g/gRFKSIRv/8Cy9qSd5bb73Vbr39Nrvzj3+0e+75sz3gmhjd8Wefe8aWL1shmz4h8HUxGj0NjU/0G5saeYHSGO28CARMFlETpIHzdSiEH/wGwsBvaLzMzIhk1BXXlw/C2X5YW9n45T30SMLR1ugpfjtj45em7y/SjBS0Yb+G4NUHel4+1A3yAtKmXkD2aMFxvZ0c+fkf15kttW7tWlv04iJb+PxCW/LSUtvgPTKUDKZFBpt6+LI5rlEUxnO8rPwayeHcX9lj2rpDZOv+CC/6V0+t+zX/zXe5Mvf0AeoHmj0DwnxIx1gA6xtxzGqgPCNB6H4RftRd6gtxDj3aECa/+b2OhITdgX5P/DSGCMLlHC2UbvRTTz1lDz/8sN1//wN273332b333utEf4/ddffd9oCT1rPPPie7fU1tbTDTeC8AksJeC4no4yURBR8ohTEBXsc7aO74Y0VRbefn12nkNF78a+49meF+g9aZxdX/gZBHOggXXjYUWDjcBnb/rJ4uROLPEu75Qfm4Ju+n5BN5pBP8kReYgSBoFxDxQyu/qjKlDrHmE/FUWXge86HbmrVrNJi+fPkydyv8eIU+qipx8qenSRpZRpl3EF6O+LOEx3RvD4oH8cvzy3EkfZWpg3Pihot+uZe7nz1DncKkgwBgJVO+ap46ZaqmsSIMho8YrllNQYFo03OaaOC/cYonXyGHnm5Cwu7BXjX1xEYTGxiNAW0nkE3QjNACWS+GOfKQAY4FzJgd8vQzT9tLi1/S3HrspphjIAF6Aa1tLdLKCYNZFWiVbMqONoqggugZjOS9kAdmHDZqj6QVGzdAM+MjHZiUxg3BdXhY+JHzv+6A3PoWCNP4nu5Fxvnunse/5dPR1NPp+Ympp6goLFuh/CW//C6kpvDdNTTWa6wBIUoeEjHqEqDHRblTHpS9Pnjy8mrznhUO/+WlZeZKiuz7r3bhdsCcA2za9KnSqFnKu7y8ImfqYZ0nwMeApCmmMz+tgHgqLg78xN6JzH6Z36jR4y8SP3HtHlZEzEMQ/XCNpTmox08//YzddvvtrpCs1HchbBsZF+OjF0DYbEbEe/UhmIOeDWEoDll8QnlsWX4JCb3FXiV+dX29QqNZ06CYEUF3GS2dhkCDZuAVO/2DDz6oefNMA0QIaPOMXJ3PJ8XBiv5J/MQKQ02Iw55Bc2OzFombO2+uHXPMMXIHHnSQC4cwfZI0IehZqkFCyAVTOMesFNJBWqm/gcQDoeKX++oJZn7y86cvQK+HPS021my0Rx551O666071VhmDYkyp1OOPabG9rUN5T08J8xaKCnsD0HMNEwYokyAMEhJ2FnuV+NHuaFxo5Wg4VHS09euuu85uu+22nJbPNe6h/aNJx/cDng/ENNiRiD8fLKVBb4O9HCZOmmgHHnCg1gg67rjjbPasma5AVIjI49TbfOSnG60a8sSun4/Q82P1064F+PoSxKGhodlWrlqZ+yKYcSjMlc88/aQNqx6pHJbN39PAxIQi79EybkJ86CWBvu9ZJuwL2Ks2fmlj7giUcNC+aKh//vOf7XbvDtMY6AXQTaZ3wOvRdviD7kX6GN/VREJDHrzYcRr3ho1/6zu7HxWYdbLZV2jJ9AqXLl+qGTRPebwfeeQRfU3N/swQOIpFfp2lvmK+A5pB4/WVdEqx8OvRlAPpx+f6CioTVdkhGtcYVlVpE8aPs8mTJtmIkSNF5M2eJmaNMQYgkvf4McuMnohmkNEGiJO7KKwTEnYGe5X4YzjUXSowjZlzBmiZE01jpJuLMIiNkR4H7wW8h+vEa/DX/x1T7NZf7oZMGWzETw8QRQATDXWGeoDpDxs6S0RgKsQxKLx0yVJdp84wbZe6hP/omA0GIsHG31AvQ8+gpzzaVcSQGIegx0wJ8XEgJs7hw6tt9OgxGghmSui69es8LmGWD0KJMSgEVZi1NOgrfMJuRO8Yejchv6Fp7rQaQ7vsmBBOJHtARY+Dgd4U9SdwKbWB7WDwZU4kYwSa6pA7mR7b2q3BiZwBU8aDbrzhRvu///s/u/baa+2mm26yP/7xTplTEAoID4WRkXwMR3PqZeZx5WJ3katXXX9l9t5wgqAePXqUHXroIXb2OWeHfZMrKuUHDZ+ZP/xKiHu8ULZCbzkhYeex14hfRO4u1/hodNk9yJ/Gxz0EQDwHzNRBIPAMjZMucfwIKKEnZAJyEIHypx5Qf6gD1BvMMlH75zpjE0z55UOqO++80375y1/aj370IwkBzIiYg/h6W/WMQKmP/hO0aQaEvW5SLyHaPkSIM4OyQ9QD0bRifw9Am6fXxljN3IMO0oyluM5P0PRDvDwUxXnwlWzCnsJe1fiBGlhG/gB7rKZgeoNghkbc/Slei6QPaLSyy3YkzadHiLQGHz1gitJc+NawFzH1pNzrCd9ccB6nRTKXnnrDBAGWUrjrrrs0ceCaa66xH//4x/bzn/9cu6IxNZivblEwQh0L5iAQiLbvQHCBwKHvcJ6Dn6DJmwuGgw8+2KZNnZqZUjdLCPFRIXHkGY1NZB+wJSTsLPZazYmaVNCAwvxoTDxUbLR8NHlc1HLiNc3RzwbhCooKrLS81FgSIGHfQVVllVVWhQXzIHgN8roQYBctBEJ9Xb1tqq3VrDCUg/hFLdo0PQE+/Lvlllvse9/7nn32s5+1b33723anCwVti+n1C0DArV7fmLFGXesroOmzLAgWHoJtd5KPwdMm6AVUVVXYQQcd6Jr/WMU/mD2LlE7Og6zIM3cmJOwk9hrx05ggcCo12hWaTbT305hxQ5iHnU1X6z7oFjUxbLupAexbgPxQEFg6IyoDfOhF3UAYjBjJom/Dpe3jl1lh+KPOoNFznfqHEOAbkV//+tf2n//5n/bxj3/cvvKVr2jbRVZv5aM+XNT++wL5Wj7BFmK3918uSRC0b5YQY8eyQlds+Nq8lWnT9HS9DXgi9SztIs5MSkjYWexcjc7j104/3spl93oDGqkI3huinuPcj2lkNIzQOLD7O9FnjhbCIldDaABqjPjlXkJ/BwIa0wxmC9amibbr2PPTWI7fNwl6vhLolFbM2vvFXk+KKHO/1+YEzhe6LLGNP1zY+tCJ34+LClmsjcHerL6gMPjzXnG8juID0uQ0XEfjrvUewrLlK+yxx56wX998i33+i1+0T37qU3bNNT+1x594Uqu2dodI2tMS19fPByvGavtHv84vZM6xxg/08uCPnyz5ueMwiwd7Ps+zJDTnQz3efu5p5tyGejikX3mQkLDz2HlVJquo+dhZ0gc0eGn5IvAABuio/SJ+XVFz0HHu3O8zjQ8X7yX0f8ReGuUlUlY5+zn2ay/LsrJyY89bSI+PqlrQ4l3r5jhHgv4MppB4nbpT4hp5aQnLbTDgG1YFZaG3hkbIOtQVzcdXPcurWx4W17UWkwsASJmxg6VLl9kD9//NbrjhRvvhj39s3/3e9+0nP/mp/eGOP9qDDz4kAdHcEnYOow7jCI89h8OWnl3X/V/uOPrXr/7fGtyG+ElHLs1+HCY+8JYwHkYAgfjDcwkJO4udJ/6EhF0AxAWJaTaOn2tBMj/AFAOZjRk92ubOnWtHHH6EzZg+Q+vXoxjQE4DEMctgnmEgl1+ERiTV6PDPr3oPTsS9QdiJLawuqoX6PFziiXnoiSeesF/ddJN97/vft+9//wf2i19epymhjz72uL205CWr2bhRq7oqdf4cc/Oxw4e4hJ6rzEQQtZ+Qbu7tDAgDl49upwkJO41E/IMZYoj+QxNh0xSxYDZTJexCBRWOHjPaTjvtNHvnO99pr3/96+2UU07RZiysyVPqWjkCIo4JYaNnsTeolHPs99j7IVds+AzisrZ/bxDHCxAUOMLko0EED+9h/ODFF150wv+j/eY3v7Frf3Gt9wCusV/9+tf21/vu11LgtbWbZG6C0zEBxdVagyDw5PpFehRy3Vl8W1AY+A0uHiUk9AV27ctd/ryWo3mhZaEtxS93T3oZyzLTSHjyzjvvsocfeXintaPBDfJi+/mx9ZINgS7iukY9Pd1THu+uL3d5F3HR7BTVnSLraGeP3kLbf/+ZdvZZZ9rZZ5+lPW1xfMTEV6wjR46UOQYtPE67xFbOYmasdS/BgMaeafnUP1xvOFZz6j1exA3v2OSZ0cNAqqYTl5Zp9VbMS7U1tbb4pcWaGsqgMGvsbNywIcw+84eZjSMzloMf0siYA3HRx1e47P6OwLjC3XffrXKgHBkXYTpn6DGFhCnevc79hIQu9Cvip6F620jE3yPIi+3nR8/ET57ufeIfOrRQhIpvbNfUnVLXqNG4ieW06dPs8MMOtdlO9mjbfLy0334zbObMmXLsyTt+/HgbNWqUZu5g+mEdJ7bTRDOGoMvKy1T3CFNLM/ei/rD9I2Sq/W79WYRSq3oAXdOHsbEzfRThQ1zpXdQ5Ma9ft05LK7M8OKvHskEMG8gTDtNHiVcwJQUBw2BYb6t0XUO9E/89gfj9Ud7NEg+J+BP6ArvG0LsJkH6qx32J/pOhzLTRshxO+gJs5kCzlikEskYIiCyDts2GJmxmMn/+fO8JnG2XXnqpvfvd77Z3vetd9rrXvc6OPfZYbXSC8KInsM6JGEGAsMq9ZwfgfYw38G7A4HKZ9yAQLgz8IhAga3oCxKvSheuwqmrtKMY8f4j/4QcftjvuuMOuvvoqu/ban2sMgCmZzBwimQz6trW6MNFmP72E8iffN+np9dMJCdtFvyL+hD6GOL9/EH/sIfILgcKmmEJi7xDi1aCtzgIwb7A+/bCsB6DN2I88UkLgsssusw9+8IP2nve8x175ylfanDlz3N8w2fhlWsl6OTtCWHvf4+LvFzG7Zk4cFQ/POsKhF8C8fhaCC8uCe8NxLSX469RzjD88/vgT9tBDD9uKlSv1LH5CGGFKJj2B3iLQfvg/Er5kQYSHm/2XkLDTSMSfsMeggVwnQRG/A1s9pgqIGs2bP+5LAPg517U0gYg8LM3A5jwTJ060ww47zM4791y75JJL7G1ve5t6AgiD008/XaYhvtbtDSQkMhLHJCZydj5luijxg3S5Rw8CrZ9vEXAc4w9BQ++gwt9HnBmHoCdAWIgFxh2GDAkrz2qP4Hzy3hHE+V3EDzgKdO//J95P2EUk4k/YI8CcAsFCVqKxSPD+B7EGFwdl/aoILyD/XIIAknZ/pU64mHpOOOEEkf9HPvIRe9/73icz0Mknn2wHZQudMfbBksaEgRkIQpdQcacZOAqXvSCKrVBf6vKxGFcZyQjvQlgFARBm5sQ44S3GvbKyStt/Kn5ZOhEQ+FFo2W9vQN7It4cFQvoT0yf0DRLxJ+wRYPMuLS6VKQWziMgxG/ikJwCtMVgZSZbfiEj0/G4L3Gf2z0knnWQf+tCH7Ctf+R/7wue/YBe//mI75JBDbMrUKVZWUmYtza3avIV3MFCqmTawtPEVrmvzbazN44LBNXT8IBYCCfOOEOcwLTWbreOPYv7hGUxB6sV41LVBv98sKyvRc4ztKoxecjeDy5B9yIch3gMJvSXCluDp8DhJGCQk7Dy6WldCwiAC4wLz5x1kF110kX3oHz9kn/j4J+yDV3xQ4wFTp03TYm5sexhmLSUk7FtIxJ8wOOHaMaag6dOmaJroySedYBdccL6de+45dtihh+pL4VEjR2maZELCvoZ+Rfyp49rHkCmg/+bq7rRUYFHBTMKAMDb+6upqmzplqu2///6aIooZh4FZbPgJCfsa+hfx92+eGqDoz8S/e+MWKT3OgC8tLbGqykoRPrNvGpsaZZ9PSNjX0K+IXw01KWB9jP6bodsbrH25QKjwtWyULfwyyBoWT+u0puaw6c/uFj4JCf0R/Yv4E+n3LZSh/Zn4s4PdAEi/rT2slR9n0sSpm6CwoNCqh1XL5JOQsK8hDe4mDEqg2ZcUsz9zEH2sBtrW1mEtLa25VT4TEvZVJOJPGLRAww9f3wZBUMQezaUlWnaZ+fgIgAFp6knWqYSXiUT8CYMW8atbHbvanxtTcOIsGMJ6QeG0rxA+6AqB8qGaFmbLvtzF3LQt0xY8Luf/5ZxHjsXdNnd4XIcW6MvjIR7mkM1DrLigyAqJv9/vDcgH/jTu4T0fFsWL18PSElmc/X7cNpJfznN+8tKla55Whed+Oee+zv0+v+3tLlSND/MIh3WYGE/ZrEXvGF9hRd/cfXdhoTw+gGvVL8+w1EX4uC6hr5GIP2HwQmS7ZRUXOWmhtUBWfYm4yijkCESGHgl/pb687cgIFXKEe/G1LeouLiqRg3Q3s2cvhCsCHtpF1r3j/S3AI3p/tiheXDaD39gDYv8B9kRmkTxAvFlziGWn9RWzB6L3O/Cfi4h+us6ZPaXlrr13FVZfbROR4+LaRRQBDvmsZaYJVklDgHj80qyr3YJE/AkJfYRAniz70CbyKiwKC8xBg13r+7BERTgHGc8FGhXhufN7ECUfl2kdfidcSJljCFcbvPu7eiu4WD2UvYgJnEXoWO+IlwUhGOLEu9Hi5TxcSJd0kB6e5xrrEEnT9z+93//CeYgz4BrCqRDB4ffoEUhwuEZPvBFg7JHM5vlDeLcESfasP4ew2WLJjuxeQt8iEf9ghtpMajh7CvogzAlSG8HA7p71ECSkiIYLoTm3OakFrRfaFvm6H0gRjbq5udWampptydKlVltbK8JFM8YPZIhJBEKGD6NGviMgOLSaqIM4sGF9YZGTeKZxExjmJFY0JQ1t7e3a57ipsVHv4pnyinIbPmyYyJ8aBfmTgCEeRkinrsDeygM0fdY92rhho4fVyB0Pp0jpZUOaICDZoyCkh7GYYP4JAkC9Go9T2CQ/oa/Rr3LV644qUUJfoX9nKGQxmDBu7Di5ivJKkRfaNDt4oa23uyBobG4RqcOVmK7hwBYnv7oGdhOrsdWr19jKlSts+YoVds8999jzzz+vMFj2OWrAIkh3EPbQwt41X7aoxEHgEK+ItrVFxAsBs9NYk8dhU02tegbsgMZXzjNnzbRp06dahZP+urXrbcFzz1ljfYNr6h53Tw+ii7ESbbCD5u6QIBE6NS5R6AJgWHW1jR0z1oZXDwvv9/g3NTdqX+QRw0dYZRUCpdTj570HegYeP+1+1tRoLc1NWXgJfYkkThMS+ghLly219RvWa2tGLUPtLFhaXJKZNjJSc9JDe69raLIFC5+3u//0J/vpT35q//mf/2kf/vCH7S1veYu99qLX2s+v/bm9tPglaeuQPmSIvZueQlFhocwovZXp2OsLXduGlQkDcwsb0LCL2LBhVdomcsTIkU7AVfLPbma8m72FX1z0om2qq9f9mTNn2chRI7XyqIDG7/GB8okK8WRJawTd+jXrbMzYMTZ29Gi/udnWrFljy5YstY3r11u5E/7wESOtpalFu6Ztqq1xkm9WLwktn/C133FZuXZBS+h79CviRwtS/zehj9C/MxQSG0yA8JkqWllZoQFSVHqurd+wwZYvX2GLFi223//+Vvunf/qIfexjH7PPfe5z9vWvf8OuvfZau+322+zvf/+7LXQtf9ny5bZ61WqZW2QGcmFBOGjL7BlQ7KSIzYjrvQHLReN4HhOK9htwtLowaUTT37TJams3WWNTkzHrh3dg2mERu/1m7G8nnniiC6TL7OOf+ITNn3+wzEEQvQacs64LJVnggoU/pszOOXCOXXbZW+zSN7/ZTj31VO2eNmXaVBs3fryHXaHeBQICc1VRcbF6JMUuJBnH8Bgqfr2Uawm7gH612Tqgq5g2W+8J5MX282OrzdblfYjsxOFoa/SUx7tjs3XnBpGOjvV/eHesR5MnT7YjDj9MWyj2NfKTuGbNWm2R+Pjjj3s8+pZaIC12CGMHsKphw+zRxx6zhx5+WGabe+75s9199906vu+BB+z55xfaosWLbMXKFdo0HgKGyCmroFF7vjgJ05YgV+6h/Wq3MCdGNHfyrTdtRJq0ewv5HwZuCU/7DPM+jzdkDvnuN2OGHXPMMXbGGWfYOeecbWefdZadesopduxxx9uhhxxiTzzxhHoBzS3NKlSIm94ItnjqXMT48ePsH6/4kM2bO9f2239/bYpz+OGHa2+EGf4OeiGYfKgNDASTbuLZ1h62uJSQcgEV9mROIqCvkYh/wIC82H5+bEX82fVE/NmBY7cSv5MgZIoZZvWaNfa73//e7r/vfvvLn/9iDz70kPJ05cqVTrph5g/kS9rJG6KogdwsTxgMxlxEW2IwlryDnFtaW/RMAFM8d5z7ED1JlV+8+wuLPazRY8bYrNmztY0lexkf6e33lFNOtjOd7NnCkp3NDj30EK1oOtb9stH8X//6V1uwYKE1NXrvwMNBaEDgDBQXepiAQV3GJd7//vfb1ClTbJKXLeV68Pz5dsCBB9rsWbNtqmv/7J6GEJg+bZo20aHOwiWMM5An2Pw1MygRf58jEf+AAXmx/fzoz8QPIC/eBxHhYj2BQCCII1wjnD17Vi5OaH27Ugd4DuSe5YdL/huJ/zHXxvua+Jk5g8mktqbWXlrykurw2rVrbePGjZq9UlxcLMIVcWdxzMFPiTf3cOwAhhcINcwWCnnFYDGepQ1npBhS6fmalx7SHtspGnVFebls+Zhapk2dagc6AR93/PF27rnn2qte9Sq5888/39vwESJlBngxVxFGEEiEaeq1PPvcczJD8TbaPwKMWUFx8Jjpnwzcvu1tb7XS0rIgtDwObJxf7vEYN3aszdhvf+eKk+y00061o4460ma5MJg4YaKNGT1G4wmso1RRXiGh194Wtu1UMeblUUxnb/gmPB2e11Fe/sS8EkhUdhjvA9WpLHvjMwMZu87QCQk7ARpK5xBMA8G+zKwNgLZIo9IcdfeDNhxB41aDy8Axrvv1iHgv/z7tk0PMCNFkwL2OzjC9sS8BQQ+rHmbNnrbVq1dnxFVslVWVGqykN8BMGmzYmHEYuOUXCiFfmGJZVFIqG35nRzCjOONZY1OzpkTWuUAWgTqZMpYA2SKY9TUuafdfmW+Ii8i+QgQ60zX2U045RfsSf/ELX7BrrrnGfnzNj+1zn/tXe/3rXichUOVxhNxxBe4K/b/CQubVQ3IKUmCbzPgOBIPs/DpD0w9z/umtcM/FvK6jteMo31j+JZ4vmIdI6+SJk+2Uk06297zn3fblL33Jrr7qKvv6N75u//zP/2xvuPiNNsd7JdOmTtOYQ0lxiaez09pa2qzD8w9yJq3kBcc9gfcifPjjm4KQ5/7n7x86lIFyfzZLpOqO0hSe4R6g/mDS4nkP0f2H6wMVifgT9ghoRDQekYYra2qGfg2SYCogWvHadeu0JSINDMTGCKlBKvX19VZXV6fGmQ/u49TAIRknl/jhVE48KKxwHw24sLDYSpxo4zv6Am2t7Ofb7EKtWcf0ANDISSs9MAY9Czy9rS7c2j0NwS6Obb1UggHtHjMJBL9uPT2F9dba2mJlrj2jJU+ZOFFaO70HehLr16/zFDG2EIQB8/DZZAY7+hvf+Eb74n980X75y1/at7/9bfvUpz5ll1zyJmn0o0aN8DxinMAf9vSLqN3taagn4Smgx0eeaOqr/5a68JvuRM9YwyVvusR+8pNr7Kqrrrav/u/X7NOf/rS94x1vt9PPON2mTp+murPO84L9FahbfDAWHYUfyZtxEwaRmTaKgAVBEHuZuaCmvOJ3BfRgGPhu9rxv8euEUa5B+0oJXMLluYGMZOoZMCAvtp8f/dnUw3sCobvv7AFIkPrDdZk0sBd7g2IWDCTPu6UJ+/VA2GEQUsSeF+94HLQ1NP6s0fszuuP/SYfzX6YVPvLIo/b3B/+uxi4TQg95sCsocO0xkKhrkZ7/agceD8iktaVVxIaAgkDQgLnOZjCklemM+MUUMrx6uH4xjeC/sb7Rampr5K/D2bq8vEw2ccwiE8aPtyOOPFLbSr72ta+111z0Gjvv3PPshBOOt3lzD7IJE8e7pjzSw6zWfHwIsLOT9Ib8IIoy44Qk7BB33nWXPfPMs9bU1KR8w0GgyussH/lhZtNb/wFTT+lWYcfzuByDwvE/6itlS94wXoIwrKyotIrKKg2WMz10mpP9gQccYIcdepgdc+wxdrL3FE4/4wzFgdlJkDth8BbqA988UL+YQdQqk5S/J6sjaP4IHeKDaY2eAz0Q1TcS4f+kVMh/8EuPh6+q/Ybq7EBFvyJ+Cp78TsTfE8iL7efHVsRPhnqu9hcbP2Gh5QYThl/w+NHIpGV1tIuUn/H3LliwwF566SVbvny5ZrxAeNE0BPHH+pUf93jMb6yfuWvR+X9r167TzJSHH3nE30/j3VKIvBxAEDl4kIqHx5X4RnMHYxt8mASJSNt3osF8wTF2fGa0NDU26BetHO2X6Y9sHTnWtfk5c2bbkU702Mcx35x88sl2ysmn2HHHHmvz58/TQCyDpqNHjZKAkJ0+Ly/IBOoDpxA+ZSAyo2eiC9vH7iD+EJ/gFI5fY7wiDupKGHhelJQUW5XnxYiRw71nM9amTp0qMxYDx/vtN8MOPvhgO/zwI3Q+ceIkG+bCggFnyL+5OWj1jD0w3Q1Cpwz4BbGcwlTXcE3lhhDxcnGVQuVL3BQfr7fEcaCiXxE/5cyTifh7Anmx/fzYWuOnYkL8GVHq/y3RUx7vnlk9YYlktHyZFTxqaE588k88ucfHPEuWvKSZLxD/iy++aIsWLdLx0qVLbdWqVRIE2M2JF45wI+nkiCM7p00rB/IaOOYkiP+Jx58Q2fYlyAdeI03T06Zfv0AWEy/STby4Hsini0hkp/a84LlWF3J87Tp50mTNf4fMjjnmaDvWyf2EE0/QbBvOmY0D2U+fPt21+hESINGWHt4TNFRlgr+JeGg5BK8OHIOYPxz1pt32JfHz8hiGTvhHVNyHYpSVmcg3D8FEWKh6QPh86DXD82DuvLneGzjQZs2eZTNcEJAv0TF7CGGwqa5OA8bqlXmccVEx4n2x7DgmTWj1fFRG5DQpwfNUH8H5X0zvQET/MvUQtj+aiL8nkBfbz4+eiT9oeKCnp3vK491C/HSr/ZcuPHWGBsTALu+nvkRtingDuu0QPYTP0gXPPvusu2ecdJ6RnZ/ewPr12MBbFQYuEoXSxLkfcwnFkrpKnJlmyVROyB/iFwn3EeJMGwESiY53+y9pRgPF1ENiIU+WJKA9DRtWbVOmTtFA5gEHHCT79vHHHy+N/rRTT7ETnfCZcnnQ3IM0/RHzDdoreal36j3BZR9w6J20TZnU3E/Ip3Dd/yk/OMf80ds225fEHzV96mnXoHHoeUDuhIkwxDSlsvS05co0zwHeSV4wjsK3FBMmTPTewEybP2+eHXXUUdnU1EO97myyaZ5/EyZMUB5WsD6RCxDyhB6B6hPh+btl2mlHCITwlT4/QUmhR9bXisOeRLLxDxiQF9vPj62IX977B/FDSMHMg9ZLY3aSQrPye9HOrimH3o3Hvo1GxjUaGaYeBjNXrFghQXDrrbfavffdawufX2jr160PBOpaMjb0HAl5uNKo/YCZKZAfJ8y2efTRR909pvjgp68QZiSFmUtFLNXgpIcWHm3GIhdPT0trm+ztDMROmTLFDjjwADv2uGPtFRe8wt785jc7Yf6DnXbG6Xb00UfLnj1hwjirGlalQV6mg5IO1v5hNzENPvK+rCeFC4QZ9hfmnLKSPHAnIeQOUqPkyGPyqLfoU43fAZWrLnicqBeYASF9/AQX4ocVSgKhB8d7SaNSJL9DXMEI3z+oR1Bepm8Qxo0bb6965QV21plnK2/pTWEWwyQkHvO6QD0tLSvz8mOROcxuTRojoAz5NqHUw8I8Rw8tmqoGIoaMmzCR/Ool0MykJ6jRUNH5vJvPyamU737XO+2Tn/i4KtvOIEaAukjBXfmpT9sPrvqB3pEQQV7QFED3IuO808aMGWNXX3W1BvUoD3VI/Raf0uMjPh1Bg4uNFXAOVq1eY9ddd7199X+/ao2Njf5saFj5CPq5a2f+v9cKHW8PzLKgcamAw6Oy7WN/xV4KcaD94tSwnOD4pTsPKdAIIZh4r7m1Oazv4uHSuBnsxL4dvw5F4ysvxx48QvkSPoIa4gLtGfvZz661H/3oRxKOLV53Y7r7CkHzDlo+ILkSvu6qqqttzqxZdtxxx9lpp53mWul+IknSL/OD51FcUoFwEBSknfBYGbMkSwcIs6TY3ITlmgM4l5B1PwWFgUC3BWLnXlVHCJJpnDvClZ/+F7vxxpu0JpG0cnfMPKIMAwHzbpMN/k+uwFW79p0fLO/knF/GdRC8Q4eEQf58f6G3RFctTPXtCcSd9CoB/rQUCISBB5QfVgS+IhB+PMtMHoSnZmN5OpiJ9Ytf/MLu+MMf1LOsqa1VGyAuEkgkzgMinQOZ+JPGP2BAXmw/P/r7rB60OeoMsymwnTKHerMTmwSQt1ZIHoFFQ4fkcTQurefu/gB+WtndqcMJwcNDCPA8Sxhj/nnhhRdkxnnwoYftscce1xo5cWCYjU0YI3js8cdUv2SzFWn0HSATSIV4jR49WksWnH322XbppZfaO9/xDrvszZfaueedZyccf6xsz1VVaJsu+NxhBsIkE+mEcuOc2U6Up+aOO/kASA8w1z6WITN+KI2gCXNdlwNBukMgkFz8c09lF3+z4x2hTzV+PwhE3WVnB0qFnyO28sPlej64zHMxvRxzDd+kOUfLMWi/Rh4pbH8m9IiYPVSsXqZzocqDjwjPOOM0O+/88104ny5FglVXKdM2762xXEWYETZwFdOk8Q8YkBd5NXgLcN6/NX7Au4KdNryXrj0aP0FxHu3QxCN+tg8xgBhXutjaVMQfCmEE/7FHQGNmsS9MOzRU7LiYU7Q08Nix8v/C88/bA/c/YA1OXvQE/JKiH1PAOe9G65S5yP8Ksd972LwDEwvXWXaYHgimFq7PmjnTJk2eZFMmT9GME76SHT68Opt6OdqGjxiRTdH0PMtLF4QMIllzX3miq13IvG1xXXHPoOcc+dcA13UrhovjPA/ZrR0iavzrXIDSPqPGz+qfirv/kcfjpfH/Ufb2bQG/AeRw79D1xPaRSy9wz9G/y+SQ/m0EEPOeA8qUZbQZEF6/bp3MjevW8X1FjW3Y6ArEY4/pS/C1a9bID8pJqI/0uoLYiT0/CSaNAZHWUGe5h9LMcYHXa6D3K+LUba8T9DIQbH7COAh+iR51kF5WmALdJg7mHWWlZQpzR0jEP2Aw8Il/zyJ0xVkKGUHABzkMqo5wIiaZ2PrpCUDaQVPMHH+eNEiW59VD8R4HD2HjRUOkgbGkAfZhtHZs9fREOJ44caIGDsc76WM7BlGIhcY/sOt0PvF75ik9bZh6WPZZ9QSTyBCb4EL2T3fdsV3i78+IxCxSxgzlaeKcj/P4yJDJBwsXLsyNPfFLb5IJB/Gcj8pQPvh2ImxdGZQTwiLMGC4Y4j2++M7QMwstjrykQobWFkQlHIxpih6iBqb1DMtaeA/Gw+kN8SdTz4ABebH9/OjPpp49DZFsQaijCEC66DQ6PvWn4TY2NhkzQJzbHV26JwytBu+HaFrU7/KysL4Ms0EYEJw/f76mVrKQGWvdnHfeeXbaqafa/IMPFvmj4SMIoiANUygHPumDaOphCWfPINUfBunDuERWJ/yH+fZvfetbZOoZ6IjlRlo5RvjT1qgLc+fOlSmIqbWsQErvkvLHzIcCwBgT32JQj2hLOOoXYXEt1FMPvzP0Aqh4ek/2LnIUxYHnVCd1vjkoIK5gc4w/zFWEx0b2/O4ISeMfMCAvQsPqyrEIznvQ+D1D+SvwBoqP+HSEtAoyPEMkqsGg8Xd2hjEC4sUn+uSDGpJHU1sRdrRZ9fARalQyP5FXfo/soP6WlpbbsKpKfTzFR0LHH3e8iB/Hsglo/5A7DZCGjM03DlKjgTFwDdD4uDZYsGON3/PZ83Cga/wg1IlQb3pCJHC1DP9VPXAuRKkAmAHvuOMOLWxHD4HvVBiLYpYa7Yoegb7abm4RjwLeRZ3SJvX+S57yXQc9Vr0ra6+MoYD6+gaZmBAUxJUJD5XD2AEu+NsW+hXxu/DSzIIrr0zEvzV2hfhl7PE8ZUpf19MRVJTBSvzEToN+mtky1BtlGESmkWAfZTrksMpKrfOChjRqzGibPGWy7TdjP5s9e7a0twPmzJEGx5RMNC7MO7HxhbGJoLVFaI9cr7NouRB+BO+FFAD3d9Qo+zP2JeLPR2wbIL/8KFcEPVzVk4DgPg6zIuZFzEB8mMjX6XybwjEmomHVI6zBhQDjB/X1dVJICgrDhjjslEZ9IhymLFMXmaLKeBczo+hxafE4jxdrEVHXd4RE/AMGifh3BnEOO9MhN22qs05vINp71hsGjUgziLzxvPIVr5StHi2e7jnddNa1YTyAj3todCSNudzM746gsYnMPRvIN6YFEi6CIAqHCIQEdbn79YGIfZX4AeUc20wsR3qVcd8EzF1cx0+r9wCpM5S7zDJcd/+QNvfYyJ4VV5kdhcJw621/UI+AZUsYLN5Ys1E9B7gVRaXNHfUXvm1pbda4E9fLXfNH0aDH2eI9B7734JnYlreFfmXjJyvJz2Tj7wnKnXC4DSQbfxdodI1a8yasorj/fvvZ8cefYGeddZade+559spXvtLOP+88fSGLnXbO7Dn67H/8uPESAuQlwoH8IYu05o3XaxoUjZ285Tw0eOyxYXE2QLuQn0gU7ieE0x9zauewL9j4I2l2L694nn+d4ziGw7HKW9e8TnidoU5oWQg/hitRDnCYgapcsRg5apTXuXFaUoJxAr5DOVTjBXNlVmSNJg9MygMb46PhYwLC1Ij5RyuP+jn1jd4As9kQvjtCUqkHM1Q/t6y8+woYMNMyvK4hjRk12o46+mhtNvL617/eXv3qC7XpyNlnn2MHzAlfb9IAK1x7guxpoJp6RwPmj4bt1yJyDTsjfu5znn8v30VSQCCol5AwYEE5Agge8w1CL5ZzRBT6ERzln4MoFBAC9CTZyJ5JA6zBdPrpp9mrXvkKe+MbLra3v/1t9r73vtc++MEr7ORTTlaPFe2faZxVVXz4FwQv7Rxlr7fWlkT8CYMSkDdaFdPbMNnMmjXLDp5/sM3yBjZmzGh9BUvjQ3PSXHwnZ30tir7kv0FrctKGuPMaNQ2csHH5JBAbdrwvTc9/CRdEP9FfQv9FPpFvq9w4R4jrenc/2b1wH0G/5bPUCwif6ZhRKYiAvNkUZ8LECTZv3lwJgUve+EZ773vfY5dddpkdeeQR8ocJFiHgD8ucyXsIs3t420Ii/oRBCQZxmTGBfZ9fTA6YbwLJe3dY7TU0SG8q6o6LsN3xJS0zoWLz2bLZbg0aG0TfU4OLhMA9wsclDBxQdj310ihPfdfhZAv5qpwzf5hi6DnisMnry+xMAeiOICD48BAFI7sIqJ/+w6Xi4kIrLy+1U089WaZc7PhMSWYAGDM75ljqu8w9TWHPhx0hEX/CoAR29eLSEiv37jAf3YjwsX96o4DUi1kGOY/c+eUs/G2J7uc7AwiiNxpYQv8EhI2w7l6G+ecc448eZPfr2wP3URjYQS2CJ+T8v+5P80HgMCd9loxgO0+2+ERhQcBouQ+ch9cbJOJPGJSIDUjYRgPs+WpCwuBHIv6EQQtpYu747TrO7oWfhIR9Ev2K+HdsmUrYKShD99VchdqDi8TPX6L8hIT+RvxwVGL/PkTK0ISEhK3Rr4hfulhSyPoYKUMTEhK2RP8i/sRRfQtl6L6cqV09ns7sL/WAEhLS4G7CoIUTPHOr3Wl987gCZ9fdhIR9Fon4EwYlIPbcN5Nh0f3sOPwiAnSe0GdgGbKwFFlCf0ci/oRBCRm5nIOGBpbXcTR6BQNYmOMzUJAlI+ci8o+7g8kS7DHr/8LEiW7gEh+bdnSwXDVryXdYWzv7GLDUQPDTHcyOAp3uZzMLhnFKT8qP+fKUc47pXbHaLuHQ44qOd0SwNDauhw9jc1Ac/b+eosO17q47uMbzxGV77xk4CCmNf1pixCt3zvlfb5CIP2HQQhTl7SBSfHfyHyjoqSmH5t8FEaw7fvOv52Nb17sDf1q3KCNrBAEby7RrC0rPO5G/H7DUANNk3S9bXAaN3+/AsFzLXpj/3m0tJ8BlHmMJA94ngeUu66zlwNPR5aPr+a546/nM40Aq7x0DeufPE9yN9DdTyXuBRPwJgxfe2nNz+DNNdaBhR804o+Bg1oL8uj3A/XzzC0fxTDkiogiOLAq5FEgzkm88hpA5Ji9Z/TQueaFF7NzlxlMUBiSMdh/8K3D3HZZvDtD6SCx14CzEMzlh47+Myfg/vx6ECYjh6iA7yd3DL8/7bxAAXXnBq3kHbjCj09OJ6w0S8Q9mqOJntX8fA1q+U4qYIZL+QBIAlFpvSg4/pAgTC1u34jiH9Nox4aCp+69IMM/FQ8i8hY1BmpqtIXPNza1+vV2EWVA41AqLCqy4kBUlC1zAhL0Ihg4t1HpIQPnqvxo8d4cgYA2aRi0ktjmQOA6/QxEQwa+EBCcOmYn8P22gg+O9LFzm14h75k3vIV5y4ZLu8zz+cQWFCCbC8t88fwld6FfETwGqViX0EVKGBkqCKAaa1r9luRHz7g5CxTbv/7YqZQivyAkwrNGOZu1+nD0x17BbWHu7P+H/ipzQ2WWsoqLMykpKrLy83CrKS620pFgEjB/s8PWNzbaxhpVOG7XbE2YehUejzfYj4Jw/di+bc8AcbXtJABCwSNlPiRdxbm5mgx8XEn6BuNOjIF4tLWw4wp7IWK9DOiXMOHBwDZcPkXt2H3DYnfCJJgIwIYCSSUhI6HcItMX/+QSWD0gTcoYYYcM4SIvjGJrjWbTlKBzQ4NHcIWLIkh4Bu2nVNzRJKLAl4PoNNbZ02XJ7+pln7b77H7Dbb7vdfvWrX9l11/3SXnzhBW1A0rE5rDfP/q7O+zkQJ5bBvufue+w73/6Ofee737Prrr/R7r3vflv80lItJ7y5s0NLDTc1t7hff68TPs8RL64XuUOQdGRpATEPMOFwnUFihJeURa6Tfu7h/Di7nANppUeRENCv9tyl8CibKz+V9tzdGuRFrLjdi4zznvbcDRoYtlh8dK/2aGj5WnDsdg+WzdaJNX9sSv3pT3/aLrjgAps4cWLwMIARctv/939qi55YXaP8OAB+kbakU/+PtkV9YLQ09BTaVbY1tTVWU1OrjcAXLVqk/WC5DnnXbaqz2k21Vlu7yTbVbbJmFxAbN2x0IVHvxNum92GaoZ0yy4d3YcpBIKC9z583zwl9qPY2HjF8uA0fPsJ7ExXOFy1ay37cuPFeZ8fa6NGj/Nh/R42yqqphVuo9DsoMkxFrzLP3bIn3QIqLizxZYfvLiFgv86pxDsFfZu7p4f5AA6m58cYb7fIPXE5Ge3kGs1tMHMdaHrpr4tQ20a+In3IiDYn4e8IuEL9fI0+ZeYGP7nWfhjFYiZ/4hFRj+y0U8b/iFa+wCRMmbJHmgYZQpmi6lAAbyBSoJCB2dmEK9vSgjQd/nbZwwQJbvWat1dXVOZlvUpk2Zxt+65o7Nvpe/NJLTtit2tu1lQ2+/RgBQU8AAmawNm44wwYgvAtyZp9X2fD9nVoB1YUB59VVVdq/OWw0wuYkYZN7BE1lZZWXxXgbJbKvsuEjhmt/WTbL0Ub35eUyQSEIps+Yof1pWYueDXV4n7bDpBy1Raanna6AQ8TnF6jKIU8Cp0AlA7fUA6jNifj3OSTi3zl4fJgL6D+QVSR+NP6BQPwxR4lpjC3lGUkdBym3NLVoY45NdQ0i9br6OpUZxK29X/3vwb8/KG1+7dq1cvjBFESphnAg9na9r2NzOy8SmHFD3mlHMnYO84hA+BEM3BI3/Mj04/Ehb9nwhvBKiks1HsA96hZbA0LsGzZulOZPClUHaef+G/yFLQTLy8qtvKLcJoybYCeedKKEAQKCMQi2zSwuLpFwGO49iUr3x761JS4UykrLXDgwPhF2WYP8Aa/o/6W+fZCURPz7HBLx7xQ8LZpb7umDmK688kp75StfmSP+mNbtCgHCyA636+9lQu/I4iP4q7C9Q9wdGoxtk2tBG29utjZvd1yv3VRnL720JGjrixbb4sWLbemyZbbezxtc0+Z5pl1Cohw3NTVpBo8nRoO3ECwvR4DQM8BsE/MFqJ27X/5AB0Tj95mSyXU0eTR7dpAKcW0jaIWPMIKEC4cW+isgde8t+HNlTtYba2qs2N+NWQmwKT5lBBQXFwCED3nz2+ppJ25xA3z8IgjGjR9v06dNUy9uv/1myHREr4HeQ6W/Bx4ibkXe0+AZNihnJ7ZYliFtOtB5X6J72+oLUDKJ+Pc5JOLfGYiUnEQAJPHRj35U+5VOmjRJ10CH32erum01UJGZO+6j8dKouiPmWQyjp/Pu9/zCFiWp93h8uR9NJZhfNqzfYEuWLLHnn3/eCf4lkTua+8aajSJxBkWjRhvDzr1jH8AW5eYZofzzMkKQsE3hxIkTbNq06TZjxgyVO0L/0EPm54QAgo/y55ktwtoBeA+OZ7qXbTynbnXfivHlgjck4t/nkIh/54A5xBtGR6fMA/nETzohcn4hXUBqqG9bkLvfV554HvWUT6B7w0Zb5X68jgZLmLwvd8/Pm1uaROwrVqy0xS9l2vrSZbZ27Rpp67SpttY2z/8GDbS2tdHIO62l2bX2FjbXRrtG+y3We/Z1MI5DfpDHwRwVegxo+KUy/5Q4V7kfz0PGGTA5jRgxwnsJ42zy5Mk2ffp0mzJlisYcRo8erfugJ6FAGfIemb8yUI+4Hnsu+XWgr0CtS8S/zyER/86AAT7iBvEyIBiJH62PdMZGGwcFY+zJj201dJDf2AENHpMFvxAKGR4FCNdXrVolbf2FF16Qtr5m7VqZbfhiFts6M1Y2MXOmxt2mTa7JN+o+tm5MG7y7Hfu7v7/ECYwegUjG300ss2jt81DV5T+VH9lLnQ2CO8xmoq6bTFyAMsYMVsJYgZM8YwUIAnqHkdTpNdCmUBYQCtSdsWPH6jrlS6+McQfInvfEukT59zXpA5I4KImfbisj9In4e8IuED+V0f/21emcXllzxP/xj388aPwZ8VO3IFAGMGPDiXkRf7kfCZ9rnOMIE1Jvbm6Wdr7JCZtfiL1m40YRN3mPv5qaGluzZo2tXLlSjoFNiBxiYUYO5aP34LLygJAi+aDJMoOHmTbhvECDoGGpgwJ/VzBn7evQF8KefyI+d5rt5MWomunXVebK35DH5Olmf4Z81j2/BoHzLOXGOT1FxgxoVxA+PQHOuY6jl7D//vtrjAGBQfnE8DgmjL4EaRmUxM/HFwWehiuvTMS/NXaF+KXze55CMF1PR8QKH8E5GAzEr6mNTqakiUb6sY99LEf80gAdfIiElk4exHyg4Wog1e9hR4fcyYN61+44r6uvD3Pc65kaWWe1tcxzrxXxL1y4UPPh0QQJgzAjCUStkPCHeCUnChBPmwsBiIb8YwCzuKhEcYqCg1gxN14E79cIh+thxk2RC5Gk8nchlGGs1xSpuCorX+pEW2uLyJE85S+WCb9AQiMj7XiNY64DruH4DuHYY4+1o446yo444gg74IADZCYiLMqH8QOe60sQm74i/oLKqqrPZse9gL/AQ4+ZSSLJJGxq2M+OOOJwO+nEE3OZtNMgbH/0zjvvsocfebjPM25gg7zYfn7QZYXcxo4do/KA9HlG8511tDV6ymPmXj/99NN2/wP3i8B6encUBFvf6S+gMnU6kRaL+I877jibOXOmVbhmFgG5o63j0MyZHbNixQrZ2xcsWGDPPPOM8uG+++6z3/3+93b33XfbHXfcYX+44w92l9fRP//5z3b//ffbww8/bI8//rgIgfyKpE87oI2I7Mln/uk3tJ0wcyfcwxaN2UA25lGjZXYgfvV19eoR8AxfnhYXl/oh5otIVv0z9/c04KHIO5F8MaWhnIbjdglaviWQtuJZh7/Yq6MMEKqa6eSIvbt4P/8XhxLAoDtCnnOULsYLiEMse8pH5d2HoE7+7ne/U30I7duR9w7ep3X3doD+RfwO0pCIvyeQF9vPj62IX973TeLXh0jNLWrI1NEDDzxQjZPGSKMlXTTan//85/Z7J3UcyxJcf/31duNNN9otN99it99+u911l9dFJ/alS5fKVo9gQEjQE6D+Y5YpLnXhUlaur1wb6htU/+n642L+0kg5hoAamho90/BTYePHjbXZs2ba4YcdZieddLKdccYZcocdepjaFV/WMieenjUfLZWXl/mjaHtB8+yfub/nEUiZ3g/mHmZhBc290Mufr4DJP45Z4mKo52N+vScfI0nzS1i4eE3hZEIhOq7zTYRmV3mZYv9n9hBmxXwBBPLf9XLRV8SfBncHDMiLWMDdi4zzNLi7JTBxhUaLJn/44YdLm4awo5aGeQazCvZ6rmHCQcsGNG6683wsJA2vsUnXadSEqQZGvnqeRZIo9TzHL5ol9+I7EMhTp06VO9QJ/uRTTs6REjZ7tNCSkjL5Qxgw3/3FxYvsu9/9rv3q17+2DRs2aFCysalZAkZhu1BAEDA4mbB9qFqrnDpk6iHvcZSllpjw3hODwRHR1h+ESTAXxrbBL9cAdQQ/kP5b3/pWu/TSS9UGgeqF+4PDoiB4uSAGfWXqScyaMCiBckIjiDZxbO/PPvesPfb4Y/b0M0/bkqVLNOjKrBuIFfKnIWNuiQN4AEHBPZYJICwIA5kHWYjkM62OdzEzp6qyyk4//XT75Cc/addcc416ED/96U/tq1/9qj4ie9Mll9hcF8zz58+zg+fNs7kHzXWNf7bNmDbNxjNjpGqYBACDui1OUswHr6god0IZ67+VigfarOah76SCNZghZZSCcfBRGdo/DiGs8R6/TtkhzDGrUZZhiWi/40WoX388Ej49QupNFOrxHmFQT+KUUPygNKD54w9HfeG3r+fx9yX6BfH3lDXkNS5hcIBGSWOCLOlqMziZ6z1645B2pYaGuuLaujdK/+eH3vC45pWBbnpJSVi8S3Umu6f7WR+EZ3DSxr16w8usC8NKkHV19d5QWW+GLzmLXEMvdwKHxGnYHie/hhvKnHDi5yGqHhJHZom4w1/sAUXHNRz3m/09M2bsZxdddJGdceaZdvY55+iXMYZDDz1UM0EQDixZoOUFnITQ2iETSEXpyqD16v2X2TsdnlZ60uoFY67AL8cDGCLKSKwZYn3IOb/WiWa7lYPM8xz2DXcc65f7eU7s7tdZfiKUY1Z+runnl2G8zjLR1BXqR1ERX/sO9WuEEfK+1esqBI8AoJeIAECYAAREfhr6I/pNzcnPHqqBXF6FSBjYoAFoyh1k78eQf2z03kw0CKuG49eypkgFUHe5HYHR3ib/XGev1+CCQOAawiAIikAmCBEaJg6CDwOp2H/R2lkuoN2aMevQMImLP0rDxl+bP5tbD95JAuKlhsZ6yTFEAPGKfD0MrrNWDPPyIYMJ3v3HT0QkAEiBtDLdcHuIs054F3Fh6WTMO8RK8fBbIS4DGJ4AmrgEQExMyKa8e1SJQN45p5SHuqDi0zNc9fL1Y4ok2Pgh6cxlRSFB7//xC+nzcBDq1EI84RSyh4YZyK+4sCDDqT9cpw5RVyB8BHY0B6kX4eFJgGfl3V/RVTMTEnYzsGdL4/JGIe3JAUHT+EaOGmkHHnCAHX300XbkEUfa3Llzbb/99rPx48fL/EJjQquiSy0CzJ4HamRq0MH8gj+RPguVZf7wg6ZGOPiTrV+LlfXCINoPAQXBWwMeIkgn2Yz59cs//5VTSt0P/jJHWUrw+m8Q+DwfB2Tlu4vwRfr4xekVei78hmP98qfjYPPnvfRK8Ul9w5MWq3Nyh+BLXHgPZCTiH8wIbanfQI2mKPtoCUL2htUG8XrrGjN6jL3jHe+0m2++2X75f/9n3/rWt+xTn/qUveUtb7EzzzxTgoCPaCorKm3ihIkSCNjiNefdw4Loo10WwmBhroqqCtnqaaho2CXut7Kq0kaOHGljxoy2SR4OGlvC3oIYPrgMkXyDOTAoCoxnhAXaAtnjG2rG/NXuZY+j/FtaWM4ijMkwiEt9QPi3umbO9RY/htRx3aHeWRY+i+DpIzvGU+gqePyoQ8yUQxTQc6VnOJCRiH9QIzSR/gA0qjitVJqc96GZvSINq32ztHoGMTHfMPiGLfzUU0+1d77znfaFL3zBfvrTn9jtt99mf/3rX+2LX/yifeQjH7H3vOc9dvHFF2sw9ZBDDtGaK8x/L9G6LMyYKVQjXrN6ja1aucKWLV9qy5Yts9WrVmtDEfaZJR67BVvyWUIPCCtnhmmWTMHEBINdnRVEGdhu1rpEzfCxCNcrS6hH/qyc3ygcUqB6hAJQUlJqxV53CJNzHDOt2AimrLxCS17IzINz8maFU831b2uXoOBdTd4TLC4sthHVLN9QJaWCQfuGxkaZABE49CAGusbfr+bx007gBs3jfzjM48clAPJh+3mx1Tx+5WhoIKCnp3vK390xjx+NCS2f90G2dM2Zxsg14jlt2jQ74vDDbfbsWapT1CHIGyGA1s6c+CrX1vnlQxnMQHwtefDBB+vryeOPP95OOukkO/nkkyUw5s6dp5kw06dNtxEjR0ggjPZeBQKG9zE9kwbf5/ZYZ3vMVcQDkatxB8fOvmHd+vV277332YKFC9XOGNiVWapbmwjGiIEJhDymPtnInYijpMQ8E7R9ZlJhf+cWykIw5+CfbxtwYewmrISphdrID/eLv80d4RmepcbyXENdgzR5NnWZNHGS17fZmup7/AknqN6cftpp9upXv1q7tVG3ECL19Q3iOMaVEBY46i9hUq95F3WQL3mpr2B38dag/ICL+JKGRPw9gXzYfl5sTfwBUdPu6eme8ne3EL83Sr770Pv8H1oXa7Kr6+31iEWwDj/8MJszZ/YWcaLRxsauxuwOQYCDxCF05k6zXgph0FPYb8YMraFy4EEH2WGHHmoHzZ2rGTU4egWEj31fA80wc28S0Ft4fEX8p5ys05iUnX3FvkD8cYMX2dJxWdqUPv5x7OUTBnX9AZLqDrNPoddvviEKWzKWyMSHAOCY9fgnT5rsdWmOSP24Y4+TUnDqKafaOWefY2eedZadeeYZdpqTPNch7COOPEJEf5DXmbnuWN+/1HsQfLTHUhwtTU0qB4+UBBPlgeAaqMS/awydMDCg+rB7KuCuAE2JuqrBNj9nGmWY3eJKBMTuLhJ9RIx994bEOeEErTBssEFvgFUWR40era8oj3RF5JhjjrYzzjjdXvGKC+xVr3qVneKETG+B+dxxEG93of/kfD+FlzWEHr9Czi+J3KwpP0bgUc584wChz5s31050BROt/OKL36BxoLe/7e32jne8Q+7tb8e93d72trcF99a32lv/4R/kGEf6B/994xvfaK965SvtjNNPs2NcUM9z5WCmKwvTpk7VHsD0COKX14wTEE/GqJgppEq8+6rNHkEi/oQ9Apo1g2I0JBoxQBAwlY7GRDuC8CP5R9D4w8Ba+GgGB0QU3RyIAiHX6/Rz9m4dXj3Mxo0box4C4TEVr6W5Jfdcwl4AdcE1Z7ZNRGCP914b5Hvw/Pl2tGvQJ55wop1y8inSytHOzz7nHPVo3/iGNzqZv83e9/7324c/9CH7f//vI/a5f/03+48v/Id95l8+o2tv+Ye32AUu7NHC58w5QGadkSNG6ktsBvlLiqlPYcC2qKhAH8PhgmnJ45X1KoB6qn6NeoNACmMDA3tV1ET8CXsEzIHOJ2caPV1zOqyMQcgc5S52+XtCJHjZhjMBEbV+XHwu+uNt/La0tekXRD/8llWUdQmIgYhMZnXPr5jWvkdP5eJllv3F++SpBlZd4PKhGiY59cRGjZJZbvy48TLNHThnjh11xBF28oknSXu/7M1vtiuuuMI+85nP2v/8z//Yd7/zbfvRj36k5UN+/OMf21e/8hX7509+Uhr82WedbYccfLB6ACOqq6UYAGLAMuQa9HVHnyHGmmwqLIDUe07JZs82Ptwi+/BLvkLwfO+h2WL+xzUpFigv7ic/r3dfvvc9EvEn7BGgNTG7QkTMh1MOthhEyxeJ+zm2Xgh8W2RMo8PFudQ78pedWVlJSc5vFBIM7nb5GZjAVEUvik3HQ2+KPQY2a1YMvwhUBk2DhhoGJTdnDpB+/BQMDdMlI+KMF5wGXR3y5/mGFY6w4bhwLZSFHDZ7D4spt/Pnzbfjjzte5rV3voM1vD5pX/7Sl+2HV//QbrrpJrvtttvsV7++yX72s5/Yd77zLfvC5z9nV3zwcrvootfYcccebfvNmOa9s2rTl9pehpB5kYevBdfk/F1+rS/BcA+CgV+WwWb6p2aHuROpU0n9lzFNhAC2fqZ9kvb8ej0QBEAi/oQ9hqh7dW8Xu7uZ5PP7QCf7LeAZh+BkmiGpwmzBgDkEjKDTGIqTJFsPlmdr1BT4fQQuA9vhC1YGzIPpAs0WIQyRIaQrKius1H85Z/ZVS3OzzZk9y844/XR79YUXyo7+8Y99zP7rv/5LC8r97Gc/sxtuuN5+7r+f+7fP2ZWfutI1+H+0t7zlMnvlK863E44/1uYedKBr6RNt9MgREhCMtbCgIHGjl0AaovDf62Xl+ZeLA5XWXU4ARGTHA4Hs85GIPyFhgEK2aCdJaeB+jobOPr0scQGRNzH33LX/xqZGrbLKh00ICuzXYaoss2JK9N0DH8SdecaZdsH5F9gll1xi733ve53UPy4C//KXvmRf/9r/2je/8XUtPvf+979fK/Fe9uZL7TWveZWdddYZdvJJJ9qxxxylKbnzDz5Yy2DPmjXTpk2d7GGPs+EjRrowqdR7IVMtl5Cw15CIfzBDSkj/1UQGmJK009jdyZOpxjVjTUv1Y8wTmCDYE3bq1ClOutNs2rSpduSRR9ipp55i55xzjl30movszW9+sxP3u+3y919uH/zAB+Te70TPrJe3XHaZvelNb7I3vuEN9vrXvdZe99qL3L3WLn796+z1F1+svQKYrnrwIYc6sc+2SRMn26iRo9Q7QJAwOBo2OWchPDT3Luu/lGd30qI5TthrSMQ/qAH19GfiH8TM70nb3ckj/zDT6AMmmXY2W3lFueaiv+KCC+wiJ+2LnLSZAfPe977P3n/55XbFFR+0D33oH+3DH/6Quw/78YftH6+4wt7+9rfZaaeeascff5wdPH+eTZ8+TdMa2fglzroCkLqWUHDyxpQUXHbTAacXYCeH8P2YWzEf4HrGBRjAj/cT9g4S8SfsNQz2hr+7kwfxa9DWyT98D2E2vHq4NPw3velSLXcBoZ9/3nl2wgnH6wNLvlSdMIGF7yo0mI5Nn43cMRdB8ph+mMaYs21nCKQdSD06DYRy0dFdxiEMcJA+v8yWyS2X4I7r/i9hLyER/2CGGm//LeLu5DKo4Enb3clDy2fZC+z87FXAWjPMMql28t9///1s8qQJ2tqxalillZY6obs/yJaJOvxC3iXFhU74pbrf3uGCxB33o4O0t+X8XxAGXsXyaxmk3tHOzCBmHeELP8yD55sMdwgM8kd3EvYGEvEnJAxQoOUXF5VIg7YhTN3ssJamZmtsaLQGd3X1jVbvju8eIFmRdMa2kdQDLQchBSHHee7R8Uy+8385//EYEA5htjnZs37OFiQPy7hnvy0/CJe2NpbgiG9P2NNIxJ+QMEDBGjbM3mHZYXpPhaxdUxpWo+RrWBYYY8AVoRA5FsKG/HEcSzv3m1EzFzh0l/3IRfBMvgCI4JzraPZa1oALmcs7DALE/2MO/KDu8e0FsEZPb9bpAYn4ExIGKPQB1+Y2zZ7p6GjVTBpaflubH7MkgZYjCAOx+RzLsRzHctn97m7Lwx2CMETqfhCfy39W5/jB+X96Z79FZNHMRVaNzq+FVWY59kt5idkTAo039OSGhujsEIn4ExIGKkQ6m13LL7K2djaEH+o9gDZramoUuUb+4Tc73ArcwxQjIua8m9td2J1h9wmUAV0kvwXpZ9fyiX9PI7+MurveIBF/QkJCwj6GRPwJCQkJ+xgS8Q9mZKaA/gq6yoMWnrS9ZAVISNghEvEn7DUMdl5MvJ/QX5GIf1BjZ4Z79jzSB1wJCXsHifgHM0Q8/Zn4s4NBisT7Cf0VifgTEhIS9jEk4k/YI0D73XrOc9CJ96RmvLfmXe9uYDbLpS3/OOFlgXykZ6rN37Oa2j1ngx8+SNt9NVnl6Y6/3Hk+drK4E/En7BGwkBhb07W3tWuRGNaP4Rrg830qMpuE7Cri86w2yTIG7BgF+JApB28c+NFmJIVsI7iTraUfgnS3tbV5XhZZY1OTn2/WJuItbewTG/Ya5q/Df9v50tdd2Lald9DzWd7iOO4Nov/857q7HWFH/noTRj7w39rWaq2eL22b2z0/OpQv3UNhtVMc8WbzGjZor6yqVD1lzwMcy2GDmD42mGE3MdCXAoCyam1vtaaWJmtsbtK7UZVatY+0Gbuj8T1Zp8dBH+1pYaQdIxF/wh4BK0Oy3C/rx8Rlf7VpurYN9BpLA+yhIXMt+pPj2F0kkwjCY7VKnLbuQwPz6/hga8K4MBiCh2fZY7awkA26+66R7mmQNvIgpNvT28lyCZ5+JwPlgTtpov5HfrBHLffRXePzEEu71vQPRNYdej4vbznuDaL//Oe6ux0h+tGOYu66l3v3MLgeHf5UV7J6E55vD/v1sk/wkIIsP0IYygcXBKxuCuIy1ygRbDnZ7I7wyNeS4rBNZE+IcdsVqDzDYQ6UVZEL9dLi0rCtpissRdkGNypr0iDG9zT4wyzj0Rsk4k/YI2DFRhrFEK/a3uzVaKVreaXVejJODttqMmgxOefP5TuQ39AlJLJ3AXyIfPxADcSPAZpxh2t+Wze1AQRF3QndiZ6TuDGKJ07XIQbyuNXJC80Vxzo+kJvyXr6CUFB5+HM7cr0B/vIFNWVC+ewM8t+HAMsJsbxy7478+zgJnMyFReHYHN3rhzT6PAEi5/75kzAI9YznIXqOwzcn7os65HkXNO/wzoje5k9PiGVHCDEUfhHK9FBaWluCwkJekCZ/Lb7DE36ieIR20Bsk4h/MUA2K1WjvAq1bGpgaXFflVEPzytzmlbuhocHq6+v129TUJNMQZgyeA7Ex0sCo4BAKXdwtkLVDNhZpcaJraWl1/+FZkYD/8Tz70zb7O3aWkHYGuz3nszSxuTpp9FwJafO0o93qCjeymMAN+UQVjrgXdtMir6OAIO/RcikH9uvFUS74Ud5vx6El17vfhuy5WJZB8IT9gPMFQnQ7Qox7LH/CICz2FUbI5IcVSVhCXy4QZqwfud8MnCp8uXDMM5hwMKdET1yHbOk5chxdX4BQoosI51veUYmqnOmheHq9PXX56x0KKquqPpsd9wIesL+VF5BYMhiJiARFa2OHn5NOPDFk8C5AVdBfceedd9nDDz/cp5k68BGKdnuoqKiwCy+80MaOHaPyiPoD5Ap6erqn/KXRPv3003b/A/erofb0bvR2sPWdnjHEKyqxiXGh4urV7qhPbChSWlIislm0aJG99NJLtmTpElu6dKktW7bMli9fbitXrrQVK1bY+vXr5TZu2GA1tbVWV1eXExbNzS1hLAFycS0NWyhpRKuF7FeuWmlPPfW0Pfvcs078zT3uNvWy4OliT9qTTz7ZGyTpDZd39g3rPH333nufLVi4UO0srMDpAtDjGuMrcvOXsBViJILq4dU2b95cO/LIoyRQIYX21mDqYKct8rexscHqNtUp7zZs2GjrNqy3NWvW2ArP41WrVtnq1auV1zG/uU7+4+I5ZbJNl5VZDIuwo1u7dq3cunXr9P5aXE2N1W7aJKEfBT8OoYGZRWXnaYtkzi8CP/4itLiPi8Ik+iWvtihfv6z6QK3jOvfDZf0fainc1qkyePSRh72+PKV6hX+Z0JzfwqNBieDaUUcdZcccc4wExRbv6yV4Rs+RJncxDWFD/UKVMbefffZZu+3224IA7gi9Z+LMG0O8ONrx+4eMmzAxpLlXcG3LM4SXoWkweFRUVKwBk7KyUu28/8lPfFyVdFdAQyHen/rUp+37P/iBEqHueYIDwox50b3IOO+0MWPG2NVXXW3z5h6k8qDRUykKhoSdl7rnpCqWKkpAbCyrVq+x66673r76v19V46PEQ9XqQtAxXKj4/8FI0z1OWwKtFAUhetPgK402nFqlCy3Wccf8QkNCy2IAluf4xTbLddyMGTOsvLxcdlZ+EXjRMcDG9bFjx9nEiZOsTXZdGk6xehUQ6Z1//KP90R0kQxc6prsv0Oka2Ac+cLldeeWVqs9RB+qe9zvCswuesy996cv2m9/+Vr2lklJvZy7QCDCWGWTe5j2aqsoKb4+hzY0bN87OO/dce/ObLwt5WDDESXa9iDSQftDc42+83uTnNRtrRDg4SDRq5jLZUF4OiBrNfXsg/6mLIJYZpJR/TBpGjBih8uMahIlj68d4zPXKykqbOXOmjkkPYYd0hbBiXpAGyDC+J4aBw3/0R4sIfnDZWIjMO10lhCBpam6yZ559xn78ox/bjTfe4IKpLtQ3b1dwnlca+el08iX8yy+/3Mv9A6qDhLkroBYq373O0msjzmEzG4RJuPfrX//a/t9HP+JKTrN6HYEfaceh5weodztCIv4Bg10gfr8GpxV4PuKje07uSeJH+GCv3IJkI/ETD/2g5TDwGrrnxE3x4x+aj4fB+SbXDgENLjoaJS4SAhrapvoGEXFZRZlVlFfYsOpqvX+da5wrlq9wMi3RjI38PHi5yBH/p68kWR52uL6zb+gN8fNTNNTT7uRGL6fJ07zZ/U6eNMnmHTzfNes1epa9ddFgw4yUYG6RycWdzC/ejmnXDGhG0s8n/3gMIDbye3vAP/EB+eXY3cVyxlFmsSxjGWKXh9zoHehaETuOeTm7i4SOH4h7woQJNnz4cF2nHqAAEFcEC8cIFMr/0MMO1XOc08Nk4xo2q4HHPKaKc2MTO5fV26LFi0W0t916q7R/TIfKGy/jzs4ODbiSVuL2comfVtG9jqC0cZ13UG8pv1tuucU++c+fDOXoPTjaOPHBI0IiYMfvT8Q/YDCwiZ9NwRWZrEx5LxWWhktDFMF4o6K4IQLQOcTj75VC8eR93HP/pSWlOqdBRFLiefxF0kKbK3QtH2EjU4Ff4zkaOQN8aLqQQpzy2FfYk8RPvId6mx/qDR4zFoTT6uQPoY0eO8ZWLFtuhU6CjGVA8kDjHO6v2EkUGzYRJDhIL85kIdwenf/R84rlsy3gl/IAubjm148sM4gz5QvwFx3Px2uA83hM+UsoONlH/wCNn3dGISLt3MsXB8kj4JU/ng9o+6Rd4fgxdQkExcPf7f+Ki0vUQ33hhRdlHswJG38GJUR2dc976hvhQPw49Vy9Pu8KSDXTRAlT9Zh3ePrU63W3qW6TXXf9dfaZz35W8ZBA8B6HBuvJI9KivNrx+7dfggkJfQSaFg2EqXQQDI1NxA3504D9j8qLi+RNdyDc8T/3o8bufy1ObjR0tEo0V/zHl/COqDXSQCEqzjFXMAYQu8j+AuvwZ9XQByDITwldzxcEJheCBgthbXaSCOMe+ONaGZpvuWu+9HLYoN3zJGjb+AiCsfsArMqAdzihRLMJULltx5GnPCNSRci7o8zD+4KGjqNcYrgcx3LLP1ad8fvxGFDexI94El8c/iF4/BAHynrjxo0ak2C86IXnX7AFzy2wBS5Qn3vuOdnKn3n6aXvqyafsiSefsMcfe8weffQxe+SRR+2hhx62xx571J5//nmrqdmoPA6b2nvPyekZxUF57iBtyuQ+AMT+/Asv2F/vvdcF/m/s+utvsJtuusluu/12+8tf/mILFy60jRs2WqOXaxCsIW89erk49LY+J+JP2COIjT5U1FBLg+YfiASgjeqCk0L4DS5cD66zc4gaHlowMxoYwFV/gPAhB0jDtTPOIbOoxUEIvA8tarN307kf3xvhoWzxF8HzaGJdxMZzaFakIRCjSMHvhQ/Dwowh9ygBFZ4nrkGLI8YakMyudTnihusUaRHnYVVV6rFtzjT6ItLo58zfRogqizw2ECnvUN56nCDDYid5sg3ihPCj5otpKBBxSKWcAoJYQ+/Oo+DhZXEkn90xmKhfTz5+uE9PTv79pSjvuu+hUA5MIw0DzJlWmr0HDVbkrzKLDu0708CjI35ZfckRLMdKI9eyMnfHIL3ShtnGXaETNX4CUbfLKhE/eiLeKg/lNekJZQJCXQsfSCEI0awRmLJi+GvxG4ROEDwcM6+ftCCQeD5X3ggIwtZ5ppxk0L1MeOBn7br1dt0vr7Nvf/s7dvXVP7Sf/exau+bHP7Gf/uTn9qMf/th+8IMf2A9/+CMJhVDWIR2Era+KcfypDHeMNKtnwIB82H5eYF/cclZPQBy46unpnvJ3t8zqyd5DA1Mj89MgCEJDyT+Xg7F4Jt9l4H6cnhf8xvvRhbqU+/XwA0HgV5cDwfizejeesgey29lppAMalx/Fm3pN9gD3siOIFIKdc8ABNmv2LM+7Vlu5coU1NjbZuvXrbM3atbZq9WpbxgwZ10SXLl1iS1wbXbR4kb24yN2LL9rz7l5w99ijj7qG95xmwjTU14uApQl7OjohGH8p6acNqsfkjuMIyBYyZNYLUzsh6CC8IIuM6Ei7x15hOWFgGgt5yjXyn5CUWGUI5E54oYw8Hv484fEhHM9xTpCYkgqLCjRrii9eeR/xJxz8IxwhPuJADFyWh1/+MsFHT5BnOBfp6/2Zf3fhrOtYvQDSiQAlfe4AaQvx9TQpjroshPcFB+TX/6McuRLjzLMSFvj13+DXr/svvcdhw4Y59x1hhxxyiAajQQxXddOhcvI8i6AHSkjcr6mpsVtvvd2+9a1v2T1//rMtXvySrVq5Sj2V9evW2UtLvI4sWuy9lOc0s4r81ts9gBD1UF5ci+/bEZKNf8AAYRrzonuRcd6/bfx7GttqBGqQeXGlQSuTuK7L2T3Iwn9wQwu8HhYG0shNIxS5hGfCc2ZVfNbvz51wwgl29tlnq7EznZH2UFu7Sdo/5pf1rt1BUi0tYZ58k1/nnswsrczoaFdZQvqrV6+SYlVSXCotFk2fQT0ED3ZfXq20higIXCONodTNBVDQPMkPOW9TInj8QBhc0x+zvyC4LgGiIDzwQCyB6HSekSFAGLkHabCqU7TZIZuttbnVRo4eRaZZa0urtXi8GSAtKy2WIJKG7/HYAlm+EjahE1SYRQM/BO0cJwHBMXH1fzIHeT7zDM/nCgXk6gHmQgUlBH/ZL+fZHQbD8RviEeLDOfkUZgO5cxLH7k8ZUVbvec977B3veIeNGjVKQigoGSFtMRyU5IigUDH21a7pxe+//AP2nAv6stJyKy0t1bcJ5FW59zYwbdKTIRz89wUS8Q8YJOLfHaCbTkqkZdLIRTghLdRz0MG6Lh1MYaSnQR2lXgbSUs+B6+61tq7eGurqNKVywqSJtmH9equvr7OSklIRPNnL1NIITE495Rx5yuBiQ6Nr+k4i5WUVMtNgRgH0JKJG2+zkCgJ/BnIKZUocww1dU1r8TVk6/Z8DUuOSl6P7Ky7yOpOFyzVpt3gA4QXhnHsculMeeOLl3y/wasJvaGzQGErlsErX/r1H4O8nPMx0w6uHSZtubW1R+nKAKP39MWwCDPb1Us4EwiclW8AvwkGErXh08HRIRz7IB6b1RpAKpYSIO+ITZV5e9K6Imxy9JfdHHpJWCSw/RuDxvcKUKVM0sPvWt75V2j/CPTdTKOZbBvKGeKgn5gIdk96f/nSPve9973flosCqKqtE+MwqKvF8Y3B67dp1ngfBjCWh2gfYMlYJgwuq0Fs3gH0BEADmAnXRIbBtgIEyGhm/2OU1aIzzxtfsxITTzCAau5M8BEhokAEaOuYMhGN9Q6MIbfiI4SL0Na7pr/DuelNTi7Rd4kPjLXKtva2dKZRMDQzEC6GgZWK/x/5eVFSisLkfzTuQZENDnYfXoGNszGiUvK96+DCrdMJgRgkaogZwsXPzrMLNBkqjsOKXtERt3x32e9LPl85ooxIyzjH6lsLjRLxKPf4l7lD6JCQ98hCh8hn/DpGr+x0/bqxNdOFHuto9LYQZxmWwt7dJIJJGmU/0ZABpIp6kWWYtv7lpU42m8FJO9fV8EdxkjZ7vzd5jonzoOQH8k4cIV9IbyqzLEW96U3JeRhJyvNzfKVNX9l7qAO+L3zhQF+hlYfPHbMfHb7UeJz4ixLzKdwZ8WwLpk78MsvdE+gDCB4qP/zV4vcEcOHzECE1E4GvnurpNnk9tGichzoVelowzkK99hUT8CYMSEFAgO4iki+C2cn6PRhgJjoFBtGsITlP4vDFqUS9+i8IXlDRqCJyGKHLlWQ8jkDFaHYO6YU494dA952OfhoZ6mXWcEeQgTfzjIDjkE4SKJki8CJ84dJkwmKvtBFxaJk2Q+2i6mAX4KlcDmNkxRMV79W4nExwkBgHTWyBPCBuzgqY9VjDrp9wFSIUTWLWNHDHSxo4ZaxPGT7DJkybblKlTbeq0qfroCiEQ4hO0YOnNRE6/YWCZ3g6kSF6yMF8xeYoWDJm5T2m+/gfJE5cgkCDgLE8UHB8wFdrIUaP8vcM9XlUSbJQD7yItjY3NErrKe7/KM/4vZGo3cAWBx3t4N1cQPGj1EK2Ek8edsKk7vJtyJg2lLkzpRfP+Cs+r0rIyCQa+H5g/f75Nnjw5Z8pRD8ffQZ5EB/KPBY8jecV3CghFTDoIJaYdV3gvD8HU5IIG4U3Y1Ne+QjL1DBggo2NedC8yznv6ctcrGpXYNRp8dM9JKmF+ZYqVcrCYekLj7oJiGBte/HXiIQtUp7ns/6mBOjEF8w95hGbrfkTUwRGY8pdwME9kyiP+IGc05qbGBhs1arRrpq6Vtjar8SJIeC4ixlBXCE9nDj+GiHiGnoJI3bXxsrJyvxYEGQIB8pe92f1Q5tzHQVCQFXGpQEj4fTR9fQkqYRWEVvh61cODXIYETTkINxds/gwki1CTgPT0//rXN9vf//6gTBSQt+zRTlrkVyQn0jDCeyEXv+FifyYQLfEjta2eDwguhNAWJOhQvndzCC4IVuTsxxAlzwZHD61V19dvWK9BcD3HH78QSoaYzwz8huN4JUBF6oUfyjqkAwHMuEVHO1q6h+XXNBvJ84t8K/e0H3fccXb++edrXAchQJmRVtJMvIAEjT9LfuWfk6YFCxbY9773fbvuhhs8/o3eW6NXVSK/LLPtB1m+UkYeyS2jvctIxD9gsAvErwawj9r4PToQAKnOJVFR9BP+ZWnt9AYVDjgPTygf4v3s2lAnBBqeZkjxjN8PA4zhNzzSKaKEOGj0tI8xrjVD/NKwRc4Qcqm68WjO6l34OT0D2hIzcUT2fp+pqrwTIoaAMJNoTCIrT8iZWSRMj8S8g+aONlpRUanrvAs/fNGKth1IOOvdiPAh9UDMEgp+LgHAuccBgcA9gfT5z7/92+c0t5x1fNCyy/0drB4JQSFIlN8FQ2zm/vvZN7/1TRs1cmToOTG90vON8QnSrPRoplEgQ+Wz8jI4tF1+Ma+sXbNW/tCG4zTL8E1G10J+DKLri249n4Wo33y4MPVyoTpAurGHJFMOJi6/x/W49hMmNcKXJu5CgAyI+VftvaKzzjzTjjzySDv88MNl5yeviQvpI9+6Ez9hh7wOeUqaIP5vfvObdpMLVL4xiUKXtNM7pO3SC0XoA97dF0jEP2BAZYl50b3IOE/Enw+lhQqlhqYam2t0aE+xXtEYQz64V657w4PASjKy4lganmvKECKkjJPJIAoNTzuph8y4RxuBTLD1jx41xo9bnCBdE3eCx5Y7ceJEaeNVVcOsurratWPs9MM1Z7+8okICYkT1cE2LBHT1lcO58uKMFHWBsoZIApFufZ8Y6oo/TxhqWx7/fD/bgtJGj8bf/+Uvf9luvPFGY6phs6eRpTAgSAQpJg78tDsfjJswzu66805P/2jPh1B7EGIc0wON4UZsGdcQX5Wh/3pOywPxJ52UGdyD4IFcOa90YYdA7Qndw+acZRn4yI21h5hOyW9DfYPKigFbFpLDXMY4AmMIvEfcR7552WMKu/RNl8rEg2ANQs/DzvKWcuA3H8Qz+gOkj4+yvvb1r9uvb77Fey8uYPw91NFgLvJ25+/kGfyqfOla9gES8Q8YJOLfFUBukHG5ExRaL41I5O11lHvYoSPBo02jNVc5AUPI/HI+fES15+1oaXKcM4jHvXi/uNC1WQdmBHoENFARkmuJ5aXl0tzQ4nivBjedUKjXioe7bREwPQUaBL0BGjwaKRohpMgTXYInED/lF8qZe/y/c+ipjkTE0v3qV79mN9xwg741wNxS6elHa+7094mgPO0Mjo8eO9oeuO8+jQnUNzaontE7iMRPeDKV+d/24kuaWEuID7pYq0k9rm4grBBS8J8P3huf4CiWUTyP6PHdctkUyry4AsLFbAcgdPIA0MsC5E0sc0C88ok/CGizF154wb72ta/bzb/5nd8PpizqBnUNrmXqL8+x6iq9QY77Aon4BwwS8e8MSAvr5vCLrfrzn/+8nXDC8U7W4QMbNWD/JxJwR2pEEnKhZ0DdC3XQj5148EW955nQc4j+eXpLxLzkXn4+62p2L0Rh62cj8sMA+eHsLfz3l77sxH+jLVmyJCeImEZJb4jYhjhv9ro4yv5yz1/Uk1G8eZi88L/e9TO6oDD92b2VcuKsxOXDI5Mfo50pq3y/LB/xla98xX77u1tDryJ7UXw2Ej31rS/Rt6ElJPQT0HDiYCxA8xzP/Prx42283Didjx071sa6wERojh49Wh/gjBw5wrvv1TnNnl5BWWmwzQdbfNDkIvn3BL0/u5fvh6N4j7/tIT8MkH+8twBpReLyg/AbofNAePlxlTb/MuKu8LLjvQHeHtOUc91iFK9H5B93Ry7/MihPs7+ImM9BAel7mk7EnzBowUBctMVvryEm7AIgr24EljBwkIh/MEPtct9snFED0zS4gkwbS+SfkCAk4h/UgPT3Va0MovfqLb7nP/3bAklfTdhXkYg/YfAjMXxCwhZIxD+ogY67jxaxbNBhVo8G0/RvSwnQvQeQkLCvIBH/YMY+zGyQPHOlmdLJAmJMQ+7G+wkJ+ywS8ScMSqDl60tHyD/703X9n5Cwb6PfEH9+g0RRlUuzMBJ2Eao5uc/bqV3Rdf0k7Dr4Upd1jvRpFsf+G65xDK2EtpvfgjnOP99XIFOjI36tG3mN6xzH/Y/5qjd+H6C1k/g4rr0jW1+Ir5v7jq77BfH31A7Jmyx/EhJ2CaEOiZLkdE3/h+PYIBN2BZA8xD/UNntGRyHAOeS/TWrZx7I81rHYAwXdFVpWV+Uaf2xQo9VA9Zjnpz8npwt9l3n9RuNPSEgYSOiJiJKmtj3kE348RhiwphOaPcswsx8AS+G0sOS0n/OlOOshcZ+VSfsKifgTEhISdjMgesw5+b1MkX5Hh8Qlax1h2mGZEJYOGVZdrWuAnkDQ/HXaJ+hXxN+XCUtwKENTpiYk9AdA/ppskBEdv1xjJU4WumOXNLZiRPNvbWt3dg6mn6aWFvlhddm+Qv8i/tx/CX2HlKEJCf0F+Ro/YME/FgZkxzR2TqO9spNYQ32deghsyNPqxB/2NO47U1q/In6ZvfoubQnKzJShCQl7C2j00Z4P4nEUAOxRwGqx7M/Mjmdo9qz8GrfnZEOWOA7QXWi8HPQv4s9+E/oIytCUqwkJexMQdiRttPho8gEVlZXZRu2F2ukLxOW/ZRbyczZgYd+DaPPvC/Qr4k9ISEgYbID0I9FvpfGXl9v06TPs6GOO0R7M2vjI72ECYh9gdmtjz2J6Aiwx3ldIxJ+QkJCwm8GWlPlAEODYX3nmzP3ta1/7mp1+5pnasQzSZwtHdntjc3r24UUgxO0d+wKJ+BMSEnYBaK7JjNgbYN7h69x8QO44wFe61cOG2aev/LR965vftE984hP2xje+0S666CI7/bTT7NDDDrOpU6doJ7j2tnZraWrRMXvVbsZl61HpmDWpeoFE/AkJCbsACKZ3JJPQZeKJ4Dxe46egcKjtt990O/bYY+ycc86xiy++2N7znvfYRz/6MfvsZz6jPaPf/va328EHH2xl5WXeE2B/XsLoMiURHmMBvUEi/oSEhIS9CMQnX+YywMuHW5MmTrRZs2bZ/IPn2+GHHSphcPJJJ9v5551vxx9/vIi/saFRPQmInj2Nnf3V/+rtOEC/Iv6kP/QxlKEpVxMS+j9CO4XEi4oK9bEWc/iZyAOZYyqaMWOGHXDAHPR8a2xqsMLCAif+Ir9foG5D/iDyjtC/iJ+0J57qQ6QMTUjo70BTZ6G2oX6A8j7UDwrccSyoCXdaZWWFVVVVWktLi7V3tGuaJwPAMhshIfy3vb1dj+wI/Yr4ExISEvY1oKm3tLRZW1vYMCiqa4zT8osAQLvnAy9W7mR2Dx95ofm3tbVJyw+CY4jf7yDIHaJfET8ST+IvoY+QMjQhob8Djb20lFk+Tt5o+lzTDTNWamCVZn47nNMRBph2SotLtcBbU2OTtPyhBazr789j9ukFksY/mBFrT0JCQr9GnOGDuTs6rmSXs1bMom6u/Q8daoVO8BA+LvQKnMo56CUS8SckJCT0Bzip57jbjyF72f39V9f5TyzPiR+6+o/AKMw2cqEH0P1DsW0hEX/CHgEaCU5rknuFbW9r80o91FqaW3SfY9Xn3Ah/N9eJ/TM4/G3p8v0FFz6JD9vaVVRW2ZIlS23hwudt2bLltnFjjZa/xa7a1NRsra3t3mg6vTvt8fJ+df7MCI47vJ+d94ac647s1T2C67LZ9uCBK/F+dAor3N4KXWFlF3aA7YW1PfBMdBHSLB0iGC8TNNAh/LovkRTbXaqMQqkQT5YW5sMixQPHdZ0He/aOQBgxvT3551pP17cHwlK4/p+cH+9sGIB8oI5EF9FTOe8IqstZpeYHxGvx1zNYC7YN8cz2N1pBkZdHgR93dliHO/npBRLxJ+wRsNogLggApp6ZlZWWivglDPwCGov73NrlSB+NJjiuRZe75xVfTsdZY+4cYkXFJfanu++x62+40W6+5Td26+232x/u+KPdddef7E9/usf+8pe/2n33328PPPA3+9vf/mYP/O1B//27Pfjgg+4etocefsQeffRxe/zxJ+zpp5+xBQsW2qJFi23psmW2ctUqW7N2ra1bv97q6hus0QVJs6eJNVaYmy1C8HiQEgQe3EDao1O+ROLB4c8dQihcD4SZD/nx/+IKjt0R7+dcvNgDuJzz0xPkIfcjYgl56+Tuv9pw0QWjiJ/7fq3Ty7HLdOHC1O9D/gBbNe8LhBuOCbc79D78cT+6cCvcy3PxRvazBRRXD0RbGmZxABxxSnwUDz/nHRE6j87/6+5QBjZt2hRMLX6Bcu6kPmbger4g6C3E7eEwBwQq0/Ox4/vbPdwOG1pY4GnwfC5k68vN1rbZ4+G3ud4bDBk3YaIno7cI2hrSnOlDbBFWVFRsrW2tVlZWau9+1zvtk5/4uEagdwYxAmQo9eXKT33afnDVD8IUpYQMalbhMJdjEZx32pgxY+zqq662eXMPUnl4VVSeFkC07iM+HUGFjQ0UcA5WrV5j1113vX31f78aFo3yJ3H5oKnzTmJF4w9x2DaaW1rVEMpLyzRHmd2GKisqbPny5VZdXW21tbXW1u71qLw0eyIPHjRxo+6BICCoK14P8+K/5Tld383S6EFlVZVVVJRrNgQzITQlzhsnn75zjfiwEFZRcZHex5eRzKLQSokslev3S/23srJS8R0+fLh+cYTBmiusssiiW/Fz/GIXOCy8VehhanqeB0wWe+dC74gxDZ/0E4eCbBofcSc9fi+LW6E3cGZtSHAqrC0RciaAd4gws/yCNEK28LwuCfKX/XJ5qGuTAX4W/m2F//qvL9l1119vS5cuVXkyj7y1tUX5Q7xFdh7guPHj7U933WkjR47QJiPEmHQi0ApFYJSj5wd3eFfmQIg/5R3OC9y/7ofTHsEzudi7R9UXv0AZM9OFusBfkWcGYYceXtDS1XuhtSgQhFoIB3DI5Yjgx5TmxYtesEMPPVS7ZsV6RxpBU1OT6gR1q69ANG688Ua7/AOXeyJJhys43MjezTHvHxqax3aRiH/AYGATf2lJqRqD6o4/CvlC4Js21dr8gw9Ww6yt3ejXW+UnH9BDbHA01NiYiHt+/PPPWf9ks6tAzU2NIpsSEXixQmZji0j8BNvc3CgyKHMCrx423P10Wm1NrcKpGlZlxf4c/omXNsb29yMUWCaX99DYeC0EQy4oDlk80IDRjoPmnpmN/BjBQJ5EQTLCBcnwEcNFIgib/fffX8KFxbrww3VcVSbAinaijUno+juJu6b99UCkxKu5tVUmN9JF24vpypIisHTAjTfc5HVktdJVMKTAn3Pi9zwJeR/qwYgRI+22399qkyZNyPGBRyFH/JjUmMGCi4BwWXMmaOeht4SgqygryXzsGLwdDb/NuampsVl1Dkf51dXVeY/taS/vJq9rm2zjxo22fv06W7dunW3w47pNdZ5XzaqXOwJC/ZD5c+2SSy6xI444wtM7IhPQYcmERPy9QIwAgteDTcTfI3aB+L1hcqfAKwm/ee1X2JPET4UkLBoCy8yqgXe028jRo+z//dP/swMOOMAbCl8qqnZlTwUE0of+dRLelsVVyK6RFq7jIJgWJ7yGhgY5GjPChgYJAXCN+dCPPvqovbR4sTf8DQQjYqXBNtT7fdVv19ad5HlWrxJxQ1Loj/4u2MovcMYUu60+mee2/KFdhvyGfEkimrvI2NsLmnPsKTBjgw049MWm34dMyDcc16T1e5jkEz0CcktE7WEHwo6EGhxCBGKi54JQQZiE31IJH3o5VVXDnKQnifj13vgu/XXhX//t3+w3v/mN1dTUqEy525IRP2VAasvLym3O7Dn25f/5spYfIJ2YvSgDyBxTBaYwygES1sJjXhaRpHHNzc3Kc8wpzz37rPKXvM+ZbTws5Slv9fwnDPU2PD6YPPDbvtm1fb/eJq3fnd+nbmB6YowJJYM6gPbOVocxfvltQqDA+dH/AapnHv5rXv1qO/300+3II4+0qVOnKl8BcVce9iGH8f5BSfxeHoxT2JVXJuLfGrtK/K7puVaGj27VWZV3jxG/V1QIAhKD+Gl4aF2TJk+0b3/7O3bsMcdYqWt2WndkO1CDiw0x/5fr4SQXE7RcTDYIALRtGjUNstm1v1a/xtePt916mz3yyCP2jGuCy5Ytk7mp2MmQRosGT68AcE4DU430X+Vb9su1Tv+Vpujv5BYNM3jx+36ci2v2H/e6YpqB6/z6TcwjIaxA4pC9wgmvFRCepI/TQPaQvr8XwnFPYTwlbPaBmSqYn4qDY0kA/y1xzVXCDW3Vn6PNhd5M0OCVTo8XFAueePwJW+yCkjyMC4KRR7yX/FV983Aw6V3opIgACyQbPjTCH/7l19PHL+fch4TRzKknbRojCdcREBK0lIf7F0F72WlFSq6TjVn+kuAQ5ywzyTCPE/8Lnk/Ba1c9In3yrGd5NO+e4Md5XhVvj0PNxvU2Z84cO+mkk+y1r32tnXjiiTL1yR9+SC9hepr7Arx7cGr8foCikjT+nkBexOrbvcg474n4aYYQf6Dm+HQElVONJEOs7LuL+CEzSAXip/GuX7fexk8Ybz/5yU/smGOO3q75YsuGuCV0T2ntQiBMGke4H0gs3ENrRBDw2NNPPWWPOZnde++9dv9999mLL74gchk2rFomD8iIuLJ+SlbzPfBwFJGfhxEhLvgK747xV1R1LdzVNf78BkQmLdaPIeIoBPXj/4n4OdRV2ksgzXA7i5uERHRo5ChUTtoeZrgW4qC3+q+IgnzyPIFweSfntD38Eqbihmd39DAgcq4hOOI98kqE7nHiPe2ebxMnT7H6+jqROGlD8y8tLZG2H8HzcAp/gOeVQr8OiAtCCj+QbbTL4y/2thC61Cl6KITHtZhmEhHTTV6EUPOw1QUHHjNk0cg/yA6JT7vqx0EHHWTvfve77XWve53Mcnggn+hlkI+koS/Aa/uK+PsVs+bld0JfQBnaP3KVxocWCflrnZEC1/ydONAO+aXC5trWToBwVdk9HMKKLjY2Uh+0X52qdXAsgnN3yCEH2xlnnG5nnX2WC59jbNKkyYob9zCNoMEx+4hrKDSEyztFeE4uEAyEh6kBoo3vlp2cd7oTufFqfiVwAnmJpOQl+4OoM829Kx30NELeBNLDZBI+3IGsMREVZgt1DcE0o5cG4SZ/7hC2UavnHcSG+LY5aWHTbmpu0nEubf58iCuk7vEMV7go0ifuxJeY65j85Fle7N7o1ZU7AdZs3KhB+6Ymps4y0ymMNWB64X1NrlRgUkO5aG5qthbMOy1B0ydc3scfggLNn+vRHMNsLUiVPNK2hOSXn9PzycVf+RV6CIxh4LaAktTlT4LFHddi+raAX+cZrlKXR44cqXStXLlS4wRKX34YWX72R/Qr4k8YvKBRYstGC5L91nuLgEE8mENtiha7DdCAogsN3xtsnusJXKbdyekCGqW/s8MJrB0zCUKoQz2lQw4+RNvfzfKuOwPBENIm2aCZ5x/szy1OTu3euw3a61CZMRAO2MzLKypETE3uXyTnjrTGuInMIV7/lb0bs4W/O2i43A92/ZKSYIMH3I+DnPnphLwJT3b8mMAI9yK/PEMPwh0zmxogV48bxA14V1lFuWz7w6uHW2VVpQeTH1Z4V4TyHsHCexFIWe+MNJLRQbgGulQ++/shdj4uKi0ttyIJ9zCWIZOS+2Xwetz4cTZm7BgbOWqExldYcriI+x4MQkLCzXtbGjh1rR4LAwOr9Bzo1ZYhmD2/EKbku9ap92MJO38n/tjQHFda6vlKsrKkEYeQFhccmdN4iseT3pWUA+VzSHNMf3BB+HOPcqe3pJ5Q9sdL/PF+i0T8CXsEzBhRY6BJw3VZ48Nuiw7KTA9vQzsEjS1q1TiRTV4LiwSp6XruIPoIvHnbdfIZ6uRR6ERQpA+5/AGbMX26bLTHHXusjoudMAiHhyCQsrJyEYcIzAOBXDRe4GTayAByfZ2EG5tkS7t2ssKfNG8nQcgB/4BeRKmHB8kANMQw0Ngi2znCg/CDbd8jTTw8DJwGOBEYclGbRThgegj38KNnMmiZX+Ll74O08IvWzfcGaNv1Hn+08viOrvcEgQMgQsaKIG3CKfIeEFGTUMJDLAP/pXwgY/KsSrOUShRHBAGafuhFmGz369ev14yamtpNVu/3EZhUDwSLBrr9V/Z/uWwg1nsprQhYHOceJvEkv3N55uA9sYx4N2ncIu887jH/5DxP5DjuJE+3vB/zF4fgJu8w7TDzi7EShAO9L+o478URRn9EIv6EPQY0XQ0wlhRLk6Vxo71Cznk8tV3kkzygYdHApHk6oiBg7jcOpZjw210IMHOjpdUJxOMR38e3BI3MJGluskmTJtpJTv6VFZUe1zb1UND61OidRKIDvAPBo4FQJ1Zc55B800hAGHTtcp5SDw9TBvENdvegUWZhZS6mkx8RWg9OaXU/DNxGUw3ko7dnYXIsU0ZGWLLV63Z4TxCeIf/JS5FdnpNJqCUbdHXC5T7po/xwRUyR9QDUgyONHiZCRbOm/Fog3CblZXllua7l3u95Rn1AMEWnvPR7gPeLbGMFiYWmTCHfMs088x9vB209OOWR0sfzmKGCySvkX7iudEPmpNl/eYZNUchL4oIfehc8T9r0GvcThSIzj0g/vT9Ab4r3SAHw9/RHJOJP2GNQQ4GpcPrxA1qf/4Ym1DtA9GjQEFpopKEHkA/MJGiJaP28gfZHI0SDVGP2a0RHRCsCGRK0WdeMIW9II66BEjrv4S8fRD0QS3C9BfkQSUPoFk6PYXGtm4v2cvyT/kDi4RjSGYpWrnwJ+csg6NYIcQkDr6VdDo3df9HaozmFa5rtwx/v8TzSeRZuvIaAi1NHyU96NsFcUyR/IJeXSsqWaVdc420/x0wD8RIe4aonADGTXgJwJ4HleREERVdPhfuEIVONx6sdgQXJu0DDQfjRrz6i87CpW63eG9rsv/ilZyGB4IoEpibiwLgU4QLeSaRjHYzpQKkhBv0RW7aWhIQ9gaxR7ypiw/L/9CsCcBe1WhGZrnNf3nTOX/d3c6rdjoqLAnnQwN0bZIX/HgcF+yHYlIP4Y/agZwU0lbW1RXkjsvQ0SUhmmnCYKRO0atLYCuG50+ArpgoGVT288BumW6q3kj0Tn9uMSS13jTIIPYVo3pKZxp9neQ42Cuc3jPOEQVwRNVp9hlB2CPMwjoBJhV4ZzwQ7flgOQwROmTmZ80xUADgG1INQph6fzC/CXf7kgjCi7EtdsPD9AV9hjxs7zqZOm2qTp0yxUSNHKm5M/yVdWdBeb3quxPHd8be/IhH/YIbqZs8VdCAjElh+A9dgJr+Z9sYdHA2US1zN3Xen+/4fBKKuv5MM9nVmoUBwChtP/qR++iGIYzSLoHlDpKQHjXTM6DE2evRIGz1qlLFrU3l50ODDGAT5lxGk54XIkfzzcGIeibyd5DFhiLw9TxAi+IuZK//5Ts+G32AvdyGAf7+LECWuuY/VsqUxJDicWHkGP+qteHmw1AUCmcFu0kOPQ185D6/WR39jx421CRMnOjlPtqlO0PPmz9fg/LHHHmcnHH+CnXLKKXbGmWfYueeeYxe84gJ71StfaRde+Cq76KLX2GvkLsqcH7/mNeH6a14dnB+/+tWvtrPPPtsOYUmG6mEkKjiPtAROJlzJw3w3UJA+4BowyO82di+yUCH78wdcNO7QOIiHh+fvQgtkGYJf/vKXduSRh7smmnneAfLjzXF0UdvjOGib7VbgBIK9NqZAjxGP7NlG10Dp3kNuixcvsttvu92+/a1v2/qNG0SUkFX+7Jv+BOJPvkKSfqipmZhDZs+abYcffpj8MP2TAVTs7JC2bPaQuec9xM45RAboFShM6o2Hi/+owTPYCegtRPDOCJ7z/3WMH4g9zD7CzBLs7TmNXOXEsgbNKieuscY8AlhTMzPBznVMKnx1LJOclyNxZIyopDgswcH8fYQJ6ySNHj16CyERlreo0EyhYhd2EUSV9MXoUxe0jEU41eqttZs22bp16+3e++6zH159ta1Zs0ZCLNYv1WVvBTH+V1xxhRzv210gvunL3X0Oifh7CxojiLNmAEKgw/NjSDYzhfiitVFXWd5h0aJF9pe//MV+//vf229/81sRT0VlWHxNM3iyMPsTICI0fMqg2AkfLRsCPP/88+0Nb3iDiA+iHDWS5RqK3T9jH5A/5pfWzGQSiJ91a5566imVC+H25LiHqSUKiohYbyKUd06AlDdExPmWLtRllpIY5T2SnB8vCw2KOsGrRyKO6bCamo25cIO/ICCC2SaMY3SwOqXHgyokfkJAqb6pwgn8QCnbqmaqxf5ffGT9+g32xzvvsi9+8Yu2bOlSvYe40rskDon4+4j4Y6anL3d7QmgsAd2LjPP+/eVuXxI/5KNw/D/CiWFDcmqYWTrwFIPMXePtfpFn0DjXrF1jK1eu0rINEP+jjz0qIRAXa4PkCLu3y93uSSh1nqw219yZMsm3B9OnT7c3v/lSe+973+taMYOp2L6znpCfkQ0IOg1c5hE6wq0r+0NehSwLxyA8j9+uayCehvteH/xdcQXOmN9dv8APOPYL6hXoXjhmrnyYP68nPEzKIPS2eJ5rIZyuX/7lIpGDbuZ+AF486d6L2+LyVtA0YPfIAm53/PGP9q//9jlbtWpFmLLpcUTI6KNDDwQTGArGBz/4QRG/vtzdTSCFg/LL3YQ+hurD9qr4wIS0PdcM0fbitDkaH+aM+vp6aWE03PY2BnrDMxALRFfn9xctfsn+eu+9dvPNN9vXvvZ1++Y3v2nX/vxau+eee2zFihVauAzBGR70f9JQ+x9IE1qyfoeyFV+bvilgVUrMUy2tLCnAXPKQCdQEOKLQGQs7f2lJkZXpA6dSqygv19e2wVVp8xp6DMzDjw4hHVcS3cKNCG5k5kaMqJbf4LJwqiq1ZlB5RaVWQS0rd1daZmWy44fB9eLiAi2bHJZhJuNDGlEk5bLegsjN08C9zJuTHvp3lxOye13OCR3zlvci+IAPAegcv5UjUOLAgLlm8Hj94hsOTEiYmQpU54rdY0AUhvlCsbtw7G9IxJ8w4KC56lkjo0Hz0c8LL7xgv/3tb+2qq64SkX/jG9+w//3a/9p/f+lL9rl//3f7zGf/1f793z9vX/7y/9i3vvVt+/73r7Krrr7abvnNLXbffffZwoULbGNNjcgEEqTdQprQBVMH+yOYzcIHTdjhEXxOg8oT7NUlEobBfAI5RogA/T/Z3p1Ag+3cidRdIMcuF/7b8lp2aQv0dA3a64n68sMReXscmGaJiyGR9zjkFb89gctymT+QH3YWVM5PCCcMMIceBbnF35bPyfl/1AP8YFoilHDdhQrCQooFPSW/qLvhbyAhEX/Cnget6GUialRxLvuGDRvsuuuusx/+8If2ve9/T+773/+Bffs737Fvfdudk/13vvtd+9GPfmTX33CD3XnnH+2hhx7SoB29BMLBXMLgaPgIic/vQ2Pvi/juDpAHkNAQtuNzTRZtNJikQlow9eAg+B2BJMK90cVk43aEfMrbnn+F5//l3hEubxM7up+P/HBx20JO0LknsiX/megIS3TuJM9ublqfyIUreR12d9vsPSrqh/ct3DP5iyCIY0uxbvZnJOJP2KPo0rNeHvKndNIVHzt2rD377LPaGYoFs9a7IKjdVCvzDw0RzRcwJZFP95nRUoKZw7V7iJ772G1BmF/e4ffD8gzdBzP7CyCowuICxbO5pdGJv9DTGpYSAHuKfijNnPP/8s93hHy/etbdVkSc3c9HvBb9b/M+jvuZ6w3wRp2B4MnFDif5IDsZ1PX65vnMMVo+pE+PkJlPDJZTH3lWCkM/RiL+hD0KGktfakRBI3dRku/0l5CQsC0k4k8Y0IDoo+ZPbc4XAAkJCT2jXxH/ADCNDSwoQwd/pkby53sFut6J9BN2OwZ4s+pfxJ/7L6HvsO9laCD+RP4Juwk0qUT8fYfUXvsaKUMTEvocg6BZ9S/iz34T+gjK0H0vV8Pgceo6JuxGJOJPSNizCFPt+nZ2UELCvoRE/AkDDtsj/SQQEhJ2jET8CXsUmmP/MmfdMHMnf/YOx3x8xcwevqAE+8TMHk8ju2q1e5rLyyusualZFi4+TGtubfbDIAD5AI2F3LT7lAvF8OlRMIZt4XohMPcVoUqdAlqNtDPsvkXa+VBLmTXAkYg/YY8CyomE1JfIFwT7msbPMsEIAZaZJguCAHSSYmkBJ3suskIrK0uGr1z547eby/Jve9gnBGoetA+DVyfSrZo7SOpWIv6EPY99i5d3O1hTRiuSOilBUFEIRoIPi5JFwYgLWj+khmOfAhFcN0By0nJdsGitGndxGWddy9y+JmgHAxLxD2aoPaZGOVgRaNz/WJsdzZ5zNFPI3Elau14NDV81d9WCcARXcxS12G1xt+5l5B7WrsmudXM7g115JqFv0a+IX8urpvrQh0gZOtiBNo9pZ+iQAu1LwHFLS6tt2rRJGySxGB0kG3X92A8ooBeAYGBHMhcOce/efMTeg7ZCzPZAUE+Cd3Kdr6V5d96zvSH1GEbC3kPS+BMSBigwszQ3N2nwkbX32favuLhEq3MuW7bMlixZYmvXrdOqkfmAlqOphz2cOOavJ0Qij47ln9nwhR5FTwSfSH1goF8RPwNPUksS+ggpQwcz2IGsoqLSSp3sEQINTvjPLVxoN950k/3bv/6rve9977N3vOMd9sZLL7HL/uEyu/yDH7DP/Otn7bvf+6797ne/s8cee8xWrlghQUHPgBksOLYTbKO3wJ4ETu6RzHFx1zM2w8kneN6Pf57FJfRvJI1/MEPtMhH/YAVkyy5hLc0t0uoxuWDrX+9a/jPPPGOPPPyIPfroY/aYu7///e9299132y233GI//elP7Otf/5p97nOfs4997GPaL/b973u/feADH7CPfvSj9vnPf96+853v2k03/cruvfdeW+jCZP369drbQAO8mWNjkrgbFUJg6NCwRSLmH/xFx/2eegcJew+J+BMSBiikcLtjC0amb/ItA/vnQr7Y99HaMeFgDsLmj9ln2dJl9txzC+xhFwp//etf7Y9//KP9/tZb7Te//a22rmQf4htuuMF+8Ytf2DXXXGM/+MEP7Nvf/rYLiq/b1772Nfvv//5vbWf5NT+/+uqr5ffOO+90AfOovfTSS7Zu3XpraGjII/2M+BP59ysUVFZVfTY77gW8lnnZeadPEp4ClXT3wmXz5iOOONxOOvHELQZ7dhZU5jvvvMsefuThLbqSCVkr3w6w8V544YU2duwYlUdsZgwAgp6e7imP673hPv3003b/A/dn9uGt3x2GC3u60zNo87yL1+mdft7RsVmbWb/+9a+3iRMn6N6uAEJBG/3Zz35mNTU1qn9hX97MwyAF+YiWrTLIBmiZ4UP6Oad9lpSWZiQM+QY7fRcoD/eblSD32traZfrZsGGjrVi50l5ctMjrgvcenNgffOghFxb3er14QL2Jx594Qj2LBd4jeOH5F+z5FzL3/PP+3GL1FBb584w3rFq1WttjIoAaGhv0DqJCbGKUtPduOMzVXfnpZBQi1J2IeH97VSb6AdGfJpAAv7CtZ2MeEcfnnl3gaf6LC88WYqDr3FZd9j/ylOOjjjrKjjnmGG3IHur59mK26yC/MdORGQh1Ie9dend+wreBpPEn7FGE5rJ7GsW+BpGiiMeFnP+2tzPgyvUh1t6GMlZiba3M6gkCItrno+Mc4qdU5BAC2O4zxzlEyZfBbR52C5vPo9T59cbmZlu1eo096ULhzrv+ZNf+3//ZN775Lfv8F75o//ypK+2DV/yjffjD/2Qf+9gn7V8+86/2n//13/bNb33brvnJT+2G62+yW275rd19z5/tb39/yJW8R+3Jp562BQsW2osvLrIlS5faypWrbM3adbZhY401NjVrplI7wov0xbRnju8X9MGaO0ib+0J2PzsMfvHH9XgtcyAeIyRx7S4weXdJSZmf+z3PRyhzM/npeU49RrgyPsIWnXHrTsh3SwHb/5CIP2GPgmbZ3xtFwssHSmhza6ut37BePYD777/fbrn5Zrvq6qvsy1/+ssYX3vOe99gb3vAGe/3Fb9Dvmy+7zD7wwSvss5/9N/umC5Frf36t/eH2223JkqW2evVqq63ZpJ5dm4fLBugMJjc3t/q1FgmiJganvcfinJ2LQ/6evZwXFjAVNRBf7ro7Eb4/F1wQIlyE2AH6NT0qpsyWFBVbUTa1NdwbeMpMIv6EhIS+hQt2rWnjwHwT5/sPgXEdEHYL5J0NDjc1NmhAerFr+w8/9JD94Y477LrrrtMYAmMKl775Unvta19rZ597jp16+hl21jnnubC42C6//AP2hS9+QbOUnnrqKa1V1OQOE019Y5M1cO6CoaWl3Xss3mvxODX69WZ6D07o+eoHtF3o0SOKxUV8E0GPxwmSHo6DQfRmFy7NLnj4RchERNNOdPFaf0a/Iv6kCPYxlKEpUxP2LKhxHU6sOW3ZSRDiLyostGLXlDGJlOJKS628vNwqKyutatgwq/DfItemGVdirGbFihUaH6jZWGPrXDBwvujFF+2pJ5+w+//2N40F/va3v7Nf3fQr+8y/fMbe/ra32zvf8XZ717vepVlK//ShD9unPvXP9vkvfN7+53/+x378ox/bosUvqQexfNkK70WstY01tdbQ0GSt3lMg3tA1PdKg9Sv6VlxSEhYBxETmGn9hUaELiK0Jvr+TfT6GjJswcSeYYWiwKfLnkhDJTUExg6CsrNTe/a532ic/8XHNKtgZxAigJHhPzK688tP2g6t+oHckRJAXsWJ1LzLOO23MmDF29VVX27y5B6k8+EAH0wpfZ8ZKnQ8qeH5ljSYYbLfXXXe9ffV/vxoG4fxJXD4267xTsfJaoePtga4z7+J11B/ehRY1zBv8L3/5SzvyyMPDdxy7AAiG6Ybnn3++BhMhGRoojTdhL8CzHbs7oOaoanjB6wrX3WXDtaoT2MfjIHW4DePqIdUTJo9wn0kK1GfKO9QnNHTvTbhACdNK/RoDxNSxIUOt0OtBaWmJvnVg4kNVVZVNmTzZCouLNKmgtKRUg7G4Um8vpX6t0MMaPWq0DR8xQgPRf/7zn+2W39xia9eu1ZgI9xVJYriZj9na1Su44oor5HjP7gJvvfHGG+3yD1zuCWSsgc/vHCTYwbEmNoTVO7aLfsWsin9IQ0KfIWVowp4FZA5BhllGof6JrF2zCz2BMM7DNWYctTl5YreXc2USP9RbFMih7lpaW0SwPKNlJpyAZToiXH8eez/3AumH9+EfpYWew5o1q235iuW2YMEC+9WvfiXyvO6X19m1115rP/nJT+xHP/qR/fDqH9rV7jj+8TXXaIbYr3/9a5meNm7YqJVPEUhMT1UaJJyQAZkQ8N94PBDQv4g/+03oIyRJmrAXIPoLqqhXwTC1ttDJWgOjxa5pl5daeVm5zDzsI1BRWm5lpaWyHqDBAwSCZvK0tVtZSZkV+7MQO6SrgV13CBKIHiGg6072robrHP9FrtlrWqsTMuEgVGSz7xyimTgMFG+qrZUZaeXKlbllLu67/z5Nmbzrrrvs6WeesYb6Bphd1g6mu2KKIn5gIJF9PvoV8SckJAwCOPm28wGZE620eSdKOdfoW117Z058U3Oz1dXVWd2mTdbY1KiNYpyVrcA1fIQE5I0JCLUFkofYESIaJyguDjZ3J/ehfs71YhcaCI8yFyiYcRAyCJ9Wf7axocnfU2eNTuBabI6w/Rn0Iog7DjZrULiuXvGqqa1Rb4HrpeVlGofgHaHHMdQFWJi6CaK2H1281p+RiD8hIaFv4YyKiQZTjYjaCTOSNYTMdRy2dbR+7mPv7+gIa/0gMJhDD3mi5ZeUeG/AhQFf/waCbrKGhkbNrkGgcD0uIcE5mj8aPsICDb+4pNgqKr1X4e/ieX3R7MKJMcSCIu+JZHHD5l9cWmZVlVVW6T0RhBAY6nGg18BzbS64eBfCJkfy2d9Awl4j/ra2Di9kLxzvrpGBjKozdNPS0qaKU1QYpCvQxxTSGIKjUDvzunkULr847IdUALqMaA6UTXwuYe+DBh7tsLsTcRJChTfgDq8v2JtzC4h5nYAcMDsQI0wG2Juzdqx6F+se4aB3FheVeD0rUL2LdVGaaDvr1kA8hBHs1oTNfQav+d0s+3CID39Afrd4LnN+Tn3Pckp+u4Pr+XHsz4ikmP8XkX8t2swh2eC6xgfifX65V1RcaCWlTtZO6GjfnoNkChYcJ/sOkX8YEKaHAC+E6QfY5xFE9CQgcvKZ8gK8ig1ptNCcP4+DRyIIDyGkwV1/WXNLs8qLXgI9DIRXNP8QBgh1qiu9/Ql7reaocOnKkeOeOZA5INOUWX5ZBZhlJl8aMq0K6Y901qwifwY7HQ7pT6Pe7IVFY43SH+mMQKBwEvY+YkPf3aAOUQcYGKSRMrOjurpaWh1k3VDfqMXNqB9hkDEQNs9Q54hh+No1aH3ULeqbiMJvBnIKSgd1GIddWTZsmRzQZsuC7bq4SP7Ce8L7AM9Iacneg3DiPCyxsXU+kSZc+FK1i7T6O0JKwl93dL8e81JZkCHfTy7PsvziPNwIPzGP+ONWDE/5luW/CB/h6td4UEI0KwPMQBqPoAfg2n+5lyMfaylsfPs7IX/GI5g5R9ixjkSugn9y8dA7+h/2IvFnGlXITmVoOA8kz8g9XTi/ozJVBsZMzApTLk878CN1JVmfhAGl2KjzCyehH2APtAURqCsWaN004v33398OPeRQmz17to0cNVI2WjTBMJXPGzf2Yq8nVDERquqa1yivN+HDIz/3iijSkZ04TO2jXlEHqZMiY+pcpknSOxBJ47jnWiPhirTcBRs27wzPQUgiC6WgZxAtmTYIn5OEnUDgDMoQgtfsoMg7kDWOY/73f+oVeD6jQLa2eG+xJSii4hN/jmPCQtAj3PNB2YiT3PVH7DXiVwX2/8hcGg0Nia4TGhfaOXNulaF0zfw+mayuumtvFASFMxTJjOR1yYymhd2QAR8auhqlng22uNj92qdALQ7/7XMIxF8IrdrIESPs2GOPtVe96lX2mte82s4//zw76+yz7PQzzrCTTznFjj/+eDvi8MPtgAMOsMmTJ8s/dRCtHoKFnEtKGTAs9muZdufX6TlEUw/1s4UvOul9ymXry3h9Fkl73aYoAmnQU3BC8HOEAX7U29gc7NI0DppFBO/nj7ocyaR/0kk/B/I566Uh0PmFe8RDXn4yJ2XHYRC6OYwjuPJA+ZHnFAvjD1zfWFMjhWHc2LE2etSonFUBTkvEvw2Q5+pW0ZA8k2g42P0ZuKkeVuWa2Szbb/+ZVukCgG46g0BBsjLlC2nLWuQt3tAaJQjohlMYLAnLqHyjNz4ynQaLEMD/vgeqaR6D7ENQ43TyRUsrr6iwww47zEn/Qnv/+99nn/nMZ+wrX/mKfePrX7f/+OIX7bN+/pGPfMTe+c532kUXXWQnnXyyzZ07Tx/7IASGVw+3USNHql7yQRAEjM2XDxdRRlT/nLhlBsh6nBWVFTasukofqFWyWUpJqTRMiJ0ZLa3NLarzEA8KCgSiQVA/RgmKfCHK9xOZI9xFcxC9EPU0EnoNBHBzY6MEc2sLexgE0zCgB1biZUD5whmMH5S4o9wqqyqteni1l2cwFULszTzvZT/WSf+gg+ba9Okz9PEWhE8PTmXUT0kf7LVlmT1//Pmg2Uj78UrNGhlV3mCmTptmJ3vjO+GEE/QOuuZI3IaGettUt0k2W4QGhTFyxEg1lPC1X4ifCtULBcKnEAk/NMyB3FCI+/bjv/WyzIH0IQzQ09M9Vc7dvixz9gTCGC1pdyzLrOl+Xv709DAdnuj1csaM6V6/KtWgh3lj5pdGPdwb9PjxE2zWrFl25BFH2BneE3jVqy+0Sy65xN7yD2+xM888w6ZMmWrz58+3/fbbzyZMmKB6hw2fmR+qx94GEDDUMXaxqq/3ulpf50TTrLrnkdKn/vRKyYdgJsoI34+JM3Ucvy2e50PIMKBMoSTDX8jDXcyofRzkcQWziLzc0fipiWj5rGoqcw7Oyw5/lA89uZbmJm8PdZrLj7UBlLtgHzFiuO3vdYHe4inea5w3b54NHz5cdRFH2e6OcuqrZZn36pINsW5TsVtd29eouzcE7GkQvr/C1q/fYBu8MT/5xJP2+OOP23PPPacNH/iEurauVhKbZVODaafAyiSRN2s+Lg0eYgnLqzL63jX3duAB8o4F3L3IOO9pyYZAFgVO/PjoXg1jdzSCczAYlmwoKvZy9waNZjZy5Aj7/L9/3s4660zvko/UM8S2o4MVF0M6SLoaUn4yFFcLUwizzUVYDbLBe6WNjQ3qXZI/CB00f1ahZBVJHOvKrF23VvPHNTDsz1IvGQCudAGBGYiFvqi/5Af2fpkf/H0qFyp/D1AeDmgFZu+CeihQ4Fndj3VS7cXrEh93YY7DhIyQ0Ewhr6uAa8Oqh9mkSRPtda+9yKa5krrffjOk+bPfMXUELqKcqJehzvdNeRHzvlqyYa8Rf5inS0TDYAuZRNg0AH4BgqDWGw521WYnbj6qWLtmnb20ZIlW40MQLF26VKSuWRoukVlvA7MQ+48SLoKEsOleowUPXOwC8fs18rjAKwY+ule/QU38Xi9ZQ77V6yj21//6z/+y0049xbWy6uyZTq3gyI5V1JMs6SF+WTy4pjzJT5rf433UTRo5Nn7qMqbG9Rs2SCBgrkRQYG5EKCAgNtW51ug91sWLFtuDf/+76if31BP1FxJnAt/spIP2WeSE4y1DwgIyCvFwRx56RvUVmexLIA9RBgDjhuS5FlzzXwwGbe2s5NlqVd4LnDBhos2YPt1mzpzpvdGJ4hQmBKA8YspDeM+aNVOTA7gH2RM+ZYW5DyTi7wGaUuUZRaYUatZEAJyvdPg9ul5N3oji6niyrXrDqHNtfvnyZfbii4tt5eqV9vzC5yUEFi5YoAZGYdDdJiB9YefhQTIyKQ1YJOLfFnoifrSvdn8n4z7Y6VkD/lQn/mFVVR5Tj7dHpKm5RQ2Zj3Fy0Sd+WTzIDuVJ7l4Wf6WhC3ghDoQbzzWpHI/OKEwphfwxF6CoPPnkk2ozpB/ih+jr/d769WEFSnqzmIq4LuGSuVA+no/e9hRnvWtfHLvaNVD/4BGmhFd7vaO9jBs3Tr98tDWkIEwiwRw4ejT3xrpmP1m/mIhQIjXLS+XqdcgrLOUXhLbDr1FCUZEN9T2/prw8EPZeIX5In11o4vzZZq/Q7PDP59ZlpSVO/O+yT37yE54RQYOKaabCKlIxgpxw6L/hOlfDsZ7TLzN+XHpmmaqVFrnnYfjrwzXvqtMto4v98MMP2yOPPOLHL9iGDett9Zo1amyhsdAwQxcsNqAQjqfD/ygkunP8Rttc9EOXL9ynIEPGcp1rexaDiPiJj5/vbuIPA6ktVuXa2Ve++hU7/fTT/X1Viip1tDeIqYpR0zn/kQ6Oe4CqqjvSGtOEohO1++Js6h/+6DGg+bMt4TJXZugRrFq1ylauWulKT6MEBGvM86VqQ2O96jTKEOYjlj6ghwFUjvpHWREB4uD/OWhHnIf8z8iIX93tAr4pl+hfkCf+ixfyEcoz154kjEJbhyMQXHqfZwL2cvxBvLk26Nf54ziGEd4X4qHr/kcb5FjXFbreLL/xl8u0TcJH8WO8iwF2PuArKw+z/jD7Ut/Q0EePHi1NfuqUqU7uk3ROm4nKod4SXpW9JyCWLf/BQ5H4eXc+qJO5vO4j8Nq9QvxMtUTToHvEW9BgyFwaGJUZ4r/yU/+sCEDKUZOPU9T0CbT/eh3wwiRTdPtlI1YcZvPQ8B966CF78MEH7YUXXlAjqq2tVUOh4JtamqyjLQgBDQB6oXEvutKycqWRNUbwwzOM/tOVp6Lin8JMxM/5zhM/wj/m38sl/hwZ+C8beZy3xbLMzKDxFuDFRDl/85vftNNOO03ThAcK6N1C+gxYs5DY8uXL1WPgl14B1xhPIC9xEKoGKb0e0+Pll2tbKTtZGeTIyvMdAkWpo97LDOvhqazw47/+AicaD8MLibJ0z2FMws8xn9DLDx86ueBwv8XFhVZbU6tyYLaS4uLlMWL4CNUp4oQGTTwgT57hmLIDMT380g4B8eVYA+KYXLAEeNhc4znOGWAdP368puVif58yZUoYjB85UsKAujBQQW3fK8TP7BlIPFYkCoyvIdFMeDUbIHz605/WPSpeRUW5F0ioXH7Jnw1zZNndhkLuK1CpCI8KAXj/xo0b1RN44IEH7N5775UpiMZC15/7+EUzoLLwbKxkkD7LR2Cf5QMc1u5mbIBpXIApglTciqrdt+52zxgcxM/rAsm8fI0/xpffwUj82wLtTqtTerqpsyg8KDhMekDZwZEPmI0QGhAjmjKTJqj/tE3qOyRBOwirWHopkl0eHioNeUjvN8xC8uvtYTkDCkljDpRnHvHTznkPZRyWsmhT3SF8ypixO+KN5s0696EuhALPJ/lI7iJ1LzeurfHeO7OvGECdMnmKzZgxQx/kQexo7XBQ/M1Hft0eDKC27zXipxtIQVMgZCzT4jYxg8Yrwfve+x4n/ivll8YILaiS+DkVRN0ov97XBRIJABAv3kFmIBAYUGNmEI2CXgDLrrIu9+LFi9W9xg+VPH5mz6wNFBq+5izxBiH7LKv6eYYy1oDGg1ZFBu9ZJOLvjhhffgcb8UOScYoy2QIxU+fIw5huP1CuU+fxn6/t6yMy/43mFoSDdrDy/EEhWrToRW1ojoJEGUPyI0eN1nMoPZiYeI4xPBQff7veKwJ3ko6CIxI/v/ADkSW+FeVligu97RhnzLJo6IAp2gihOFuGsGiDI0aMsKlTp4rYIXg09+nTpytQwpe27+WJYIjCgfLmHYBfDjE7hbGQLgEz0EFZ7xXix05HAfP1GwVJhUMTbmhs0JoW73nPu+2jH/2o7Jbl5aXUS4+M/sv8d+Y0iL4EFYzCRVMQ/F3qouqQj8NClzlu38aUUNyLL76objMaBRWUiojGX1xSpm3gmPFBw+EePR3iTsZS6alsexa7QPxOHNwZrNM5Y3z5HWzELwUmDz0RGIKBukh+krFRMPgNL3uEfnCAeowSVFNTq14AgoCxBa4TBucvvLhY9+g9aLq013vKH398lcyMF0y7hBgFCgoRQieYQYMJuK2txbX+VplYGJPAH4RN+8TcgmY+YeIEO3j+wfKjXkd2HzJncHUEH8y5P/xTR2I6IpQf4UDH5Bd+lH4uZ/dAblaUn+/5dtt3IAf2CvFDsEhdBs54DfObNdPGGxja8msvusguv/xymzplshdgsVeaJi/MYCoh4zH1FBZ65QzB9RmoeIBC1Xu8IoNcQ/C4xnoDuaPp49h8AfJfuHChegEIhTrX7psavZK7pg8Rsbws1EbY2DzRdsiHPT81dFeJn3n8ni/uo3u+5zcUoMbhSMS/9xHqcCg1ZYvyLrgI0g3hbet+dwRBEcYDQPSPo5zZi5YprjUbNlrtplrNLIK4+cU1NjTagw+FXjO9CZAjfg9DH0V5lNs72qzY2w1fQbOOPeTNLxyBVs8xpI6pZpRr/vAJxB/jrrCyY3KAdgzy73dHPvFHB1RH3OnXr8WwBiLIi74i/p36cpfGS8Cy23tGQoKy2buk5pfrdNVmzZypxoZgQIMWaXqrVmFmZbZ10b08UNCxkNF24jXAdSo93wOgUVDp4gBQvqNLOXz4CFVg7JTNLa4Ree/FH9XXcDE8JSM73nPgfdt/Jw1s6y93uxpRT0/3lI6B9uUuYJwp/8tdfQ+i+hAUggsuuECmA943EBDqLOUXoHzOyyDucabphZ7ekLc9Z2BXOEHjzXfKK3eQLzNbxrsGPm3adJtzwGybP2+uHXrIIVru4lB3hx9xuOoFxB9MUYEP1N6y+PAfZt8J48dpD9pTTz3VjjvuODv66KNduB/pWv58O/Cgg/QFNFNrGaSFK2ibxJ+6SryoDNFMnJ+ubaWT9h3T2d2PrmbnPT07kNBXX+7ulPhj5k6w6bVZO5qGvwRJy2yd5tZme/Kpp7Tr/f0P/M27iZs0xZNCpTIgNKJ2ApHm6mIfgHCpiNJkPE68Ew0iv2LTM+E3gkqCP7qahx9+uIjhsssus0vffKm94Q1vsFdf9Bo75dTTbPas2fooDM2H3YKY2VSs2QsDAKoQA7ui76ug7tJbxvyhxQb9PJIWdZe6juM4320L8d62/dBT9vbjYRZ4r5x1a1juhKmPw4cPs7Hem5zobYUPl6TZExcPCyEea1h+HGh/c+bMEcEzKKsdrLy9kRbShr+wAQqTK4L5lJ40s4rEEx4+H0LFdhzb8raIG8GhvOqWTzjlFUoqPcAEYaeIn+lazHShi075MvCDPd/ltIiVgaI//elu+8IXvmj3/PkvtmrNWgs71vARS7s+dQexwvYVKPB8sidsCFozH7ywqQhUuAjuIyiiiSgOKiEETj7pRPuHt1xmH7riH+2j2cJd5553rs0/eL6NHTdW4VBBExJ2J7bVPqjLECB1PgqDfBfB89HFZ6IfrnVvg1xnth2uMLO5uRd9BLe5M9wrKyvRDCB9xyMfXSCkGBrhQuT0QGmPmFfpkYWtF0PbySdo4kb7RcjQFmlj+fHsDfAbXQRhxLxCiCBIEwJ2ivixGWuer7uCAjRrFsFCQndYealrBsOG+/WhtvD5hfbfX/pve/c7321f+er/2tPPPO1ac6FrC+UKJ79w+gr5BU+BU3ko7PwPsmIl4pzKgKCIH4hxP05zo2czZuxoO+Tgg137f7197nP/Zl/60pfsgx+8wo455hjXhMr0TELC7gJ19OWA56PrDq51157pkbe4QtfWThvCD/Z7V6pcCHAcW6ye07WuZznPB7N3GCymTQHMa8ySC+QbFDAUM0w53RHbMIjx3BHwj9/oEnaMnSJ+SJFBM7qAZDbSu9zJnOMOBhqGoB2EjQuYPvnU00/Z//3yl/bpT/+LffSjH7errr7aHnnkMdn+GXjrSZpzLV8bib87QveC51fxUhcvdB3jPZA7z65xjCCIDQKBwAA1Mwz4ZPuQQ+ZrUabPfuZf7Fvf/Lr3Cv7BTj/tdI0LoK0wv5+F4eob6o2t9lgqgrGP+B6ZmvKcrmd6k7rYjpBUF1rebUUjonEwk0JjDFvpWP0D4YvU0KuSZuWO+BNf0qMvMN0Pi5NhMuOcMgGNDYEc2GM1dcN3HuR5X4Gw2Kaw0BW6/GA5judUT8YT6MFj7tUGNX6T+o4fzfjLfjH/xvjRpmK7ikQexya6Az87m66d9Z+wk8RPI6XgojkFQkUQeNPWeb7TnqMuAFYsX2733Xef3XDTTfaTn/7UvvPd79rXv/F1+/3vfqdlFvjYhBk20exCIep5fzZOGdsRIBIczwVbXpdmH8Pj/o7CipWzOxhwYq0OVuQ75JCDtUzvZW++1N2bNTB5/vkXaNnfAw880MaMHqP385EKghECpMVwDa0q5g/X/EhaD+9kthTvh+xZGpYvhcMHNDF/txaS/QFMcUXwkaRmVpxsDssJBGHrHkLyw7K2WTcf/8zwGOppI81x4xIESMLeAWUV6n92YRugPqudeV1WW3HHuep5Bq4zuB7Beb6L1xL2HnaK+HuLSG4UrcjMSXfDxg1aUfN3v/2tXXXV1faDH1xlP3VBcPPNN9tf//pXe/bZZ8N0Su8iRiEQKtiOxwNy9/Hvjuf1fq9cvB9EYdAXwA550EEH2YknnWivufBCjQm84+1vt0vfdKmde/a5NnfePAkAFoOShuSkrRUcXUuip0NsNe/Z7yl+fp9rnEP0aEMIG365Rrq2nwN7D+Qz5Uue80tEpfF5ww9EEsgh1879N5RrpwQbZjWe07IeCQkJewS7hfghLTRZzaP2ho4JhU+1MXGwPDKDwPfcc49df/31du2112oa3i9+8Qu77bbb1AtgPRJm0UAmkcS3B5kXnCQDwYTlF3gmOq6JQPsIhNnevlkzHFiL+7hjj7ELLjjf3vjGN2rjDmYHXfTa19oRRxxpkyZO1KYd0oo9T9DkZdrphBwLw/omnjwGviA/8gptmBkPmD9iWnaJ+fXMrjzYe1A+UZMv9TiXl5VL4KkHgx5I3nvZsGkOecA6ScwZZzOd8tIyLZmsJW9LWHMljLckJCTsXvQ58dPIIS6NoDu/Yf9z5pK9m697+YBmePUw91Mqcmde6m+9F/D973/fvva1r+n3hhtusLvvvlsfVYkksi8M87V2kWGGfIJHy8Q+j1/MJhpE8nuagtZH4NUQsr6OzM6ZNz9u3Bg79pij7OKLX2/vf//77d3vfpeEwVlnnWXz5s61kU5y2L/bnSjZO4DP4tH1y8orJLT4KKauvj73VSWCElMaL9g1U49iFw53EyorqzRdb1hlJTSv9WCIe/zsH1D2CHzKknyjfiAQDzvicDviyCOd/EdLUOSXaUJCwu7DTm692DtAwJ3u/J9MGt6rD5qhkzcEAJFD/JhMIGpImilf9ARWrFyhWUGPPvqohALaJEsq8ItmH6ds8g4gctdAcRdpyFzi4XIl9hi41lfg3XyBjEmDl5AupriCYPMucgFXadOmTZXdf+bMWZrPzBok48aPc6Iv14BmzcYa27h+vezbxSVF2s6NKXAxP5iZhAat3oyT6o5osecPuOiBBfkecmxLxHzMx858wNXica+r2eTxbQpCzOPL4nxo9wwCUtbY9xFeY8aM1vaFZ555puL5ile8wntFR3jesBaL99Q83buq9Q+2D7j6K/74xzvVLqmf5LHm4Hsbix+RRVAH3v62t6uNd0dPdS6hd+irD7j6nPhpbEz5JC5DhmQfUBGZzGH7xcTB2h+QeewhMDsobGQctk1cs3qNLVu2TAtKsa4OxyxBS8Om0hEWJgIqnN7hmnR8P+cAP5zzyzV++wKE2drqPRknftniPWzSQdp4Bx0TVvjkGr0cdn2aPGWSzZ17kM2ePVufqo9xLZklZIcNq9aMl02u5fNJPDFkrrTH3oVWm0g79FYQoNsv0a2JP4A4gp5S31Oe7Azxo80zWwdTDemgZ8LMprr6OuUBQo7NLiDe0047XaR/2mmn2uGHHWZTpkzWhhcMnMcy2lWTXCL+PYNE/HsX/Zb4/bX6C0QbSFJmEXe0wkiSrNXPLxHFD3N/0RA5huy4x3No+xA+q2kiBHCMAbCAFNo82jG/IIYX7eIch3iE375DyOgYZiRBoJ6H3ufpUi+EfQgKpQlXD6uSvR8ihPz5shENmE2+MY8wE4hBYMweSoenDbJnhhSESiPbHrYifkXL4+JhhaOtwXu6Y2eIH7KH/PlQj7WZmNVD/MdPGG9HHXWkvepVr7JL3vgGkf7hhx1qc1zwjXOhR35gDgwCckvBuStIxL9nkIh/76LfEj98AOl509MpjQ9yDh9rZETsf2EjlkD6MtU46eOPazTUOKceEofYsXuzyxILq6H9Q/5x/XEaO8+hXfOhCK2dNi8CyKuQ8fflgmBE7E7G0cKUHzTzmyExpd3v81599OL3sNmXl1faqFGjtPMPZIQZiM/h+SaANYQwS5FebP6MVzAgjOks9GpiqfJLiPF8d2v8ASEVATryPOhwPwipiopKmzlzfzv+uOPs7DPPsvPOPU9TX4879lgbPWasjRg5Qh/xQRYMjlM2LDSFoGCZgBjPXUEi/j2DRPx7F9sjfv4Xu3ZRwjaxW2z8Qla2KmT+eQWBLKkgQGv6M7vF71GBcjNzRKh8/RcGTzH/aE3wYhcEHhZEtGkTa4uvtAULF9pjjz+ubRZrvAeAuQSy7HBS0dRIJz/eRzho4hBCBO8A+XWwy5QSMpWz/Eqauw388uYOv+D3SReCTOnzcx7hKYk/f2cQhF3AT1xbpMwbxvARw+2gAw+0Y485xg484EDZ+hEcbBnHGiewF0ImClF6T8Qwhs19ZgCVlpbYa1/7Ohs9eqTCjlGPachOFU4+uJ+75sfY5Pn4jg1sELrEJZIyApxy41wfuXm5YLKaOWumnXzSSbLbo+WzEiarhI50sgcdHn8yMORPyCu+/OZDt0Agfl0+tw9iGXpS9K5CjwiwD/MNN9xobLtJXaOXRZroLTHL6Jxzz80+tivRM7n06Hk/Dv96RPYKskaI5yD/WjwezMgnfjZiEfFTH6mHfkwukg2B+N826Ik/v27EahFTl6sn3POTcB74IULc5K4npUfeYxgOwmDa+62/v1WrDMQlKMjx8OeEvgXTbBu7j/gdgTxDzGODj5CGgMsqC76C+cCd/Pp1/0WTjCYPzjW33Rs1v1xCgCxbvsL+9re/2513/ckeeuhhLRAXlmtgOWIPrxOi4V0EEeJAeHl5quvtTmjhNu/1+/7eqLnzLhyyiuci0Qey55kAvSPvWO2hB8f1+DzHaE0cMwB62CGH2BlnnG5HHH6YVVcPC9q7vxzC73SCZ+onvxAv8SBirEuE2eXSN12iMQWewWRGuni2+2+IXzCL8StTnP9SAVmC96mnnrR77rlb14sJy/NPvS8nUt45rLrKxowaaXPnHmjnnH2WvemSS/RR25FHHqEvnbH5E1YU9AjiaMohnRxHeApyeQZiueRfiyDqrVleaYkB7w1RV9auW2933XW3rVi+Ug+WlJQpvjW1Ndpg5NRTT7PpM6ZLiZA5rdDrBnXLhTd1hHj5vy0Q46G895O4NAFKhD+q98QGq/t+2C2IQYH8NOWI34lniPfUqBfkJ3t0eG7ID73TyvIKJ/63Dmrip35Qf8gg0kTdxMV60DXhhHZGnUHRzXjIr3Kb6yizzPaTzyxveJKw8KP654+y4sEzTvx33nmnrV+7zoZXj5QShIZPG0C36kmA9ITdSvx7ChAgYAbJylWr9C3AXXfd6cLgb7bWMwitGUJtbGzW/HiRjzsKhoFoMhgigpwiAYjYRfqE2xKWTuBdToJxEas+BfHxlylunh5MXYwF8KHYsccea/PmzbMZTlyQamdnh8xefPGMSYjGh+mIXYuYOjqsapiTNUvdhoaYq0wkxhGEYLgGsUuI+jHX8FNbU2NPe+NmOi1jD3H/AoTL6NGj7Oijj7JXvfKV9rrXvVZrrrOJOeMUmFEIOyyMF+z2eofX2vi+3gCfiqof5D/FpdgQKB+InYsIgfUev9/85re2avXqIGRcOcCchNBnvOGsM8+Sxo8mSryIU40rCKVlJV5/QmPsjniJuPM+znG8T6Y7v97lZ8u4DlZ01/hpR2x0FAR8yCHyorIcjX9wEz+poC5IwfFjETQEn9VJnPLD/2dts9BzDs8BsoF6RX1saWG6ela3svC4H4KgXW6WiRtOe9KVMibIYNqVKZbG4v9onxIirtTsKI8HBfFjeiDzmOXDDBHIp2ZjrcYBZKu+7z671x3TRREEcR14uv0aZKbSekap0DzzKRryLWY+BQYRoyVyLRZQXyIWFFooFYiGRDp4LwWM7R8b9ezZs2zOnANEtIwRsBcp5hiIGZJmSelh1dXaJjISf4TC9ffkVwrGVyJBc533I0wwo/F9BQTJe1i6GoI///zz7ZxzzrHjjz/eDjjgAMWLWVmETaXDEQ5hxvfkv6+38Hrc9Zs9ntVvLzMaFWQdCP7/t3emTV4d1xlviUFswwADkthBtgRaSku0WZbKOHmjD5Ry2VbyJi+cTxJXxVV6YakURxESFdmAJMcGxKA4KQuxCrEKBLMww4xEnt9z7pm5DEPYxszfM32Gy//evt19eznn6dPdp7tZE/Hfqud33nnHjRbuADP+adQAexpFypHIqE+GmDC7jZ4HjS71GvXvxkVu/h7u/p3ojtMbDA3OHsmg/fH69nP610U3B/4oh7kA/BDblIyI5xl58OiElDJOvAsAb3iilV0UTXqqV66EMYtlRWUHH6aJOPjEiYGMXJwRXjGveeLEV+W97du9xomDo4iSnj+nH6KguodNffDdSXI/Fc0K4OewFFo7AJBuJ0IaQM0WyqM+Ro6TmTALZTKYgjx/Ps4aRWukwLq6GJoIQYcoQG5pDCjYqEiKO9wTBO6WSGsOt+TluHUBurwnUQA5i99WrOj1wdKYhQL+GzdsLL29vQZfDphhfJ1f7OhvBfgNaAbRcCNvrKo9c+asJ88B923btpXXX3/dwP/SSy95MprTvgBSwlLuxJPzNAn6XE6/qP3NW6EIFURQh25+ifKqh+/0JE3o3Nfny67du8t/fvhhlKX8uBFiiwx5vjI84rJEY+IQEc5gZozUJsWN0BIz6abIaDSI2t9tLmt1+iVdfJtf8uQ06B9kv3E7a6kC/wRl44/yGMOuAeD8whcoEcGryPh3PsPE5tnpD1zRM/7oEXDe9xlh1ecHvyj79u4rv9u5s3zw/vvl3ff+w7sa7N61uxw9csS8vaR76TjmgXVY1sXwdcj4zei2jl7sVKLbQwlTIAgyWqttyxumw31Ywu8CE0OuXLXS4Ll58yPl0UcftRbNMEDvihWeqATQ2H+cgqFiAZMEyAC16RPwYIrQuidXWAI/+YnWPOcbIi05DMO5wbnNBQDN2QIA/1Tx4dZ2x4248h2EWSmTSH19fQZ4TE8pr4w35wPwn+nnvp0H4su4uW6HAlzjnujaucB5aGhE9cN2F/PcO9nfd8AWPb9+6y335NjkjmE/95rEGzyTDyaTOepxgxpL6ptJ9dUPr3bDyXtOoOpRD4pGlIY2tpHIbb2bj7cS49vJz7OUmuoob7zxjz7+7wLWU/MfMMjR44I/1Tzaz333XS0PS8Z2/vZDy1Ob4Jfkkb928jyg8uNhQOUJBQJFk+wxmgBDOK/yAyh7KJdwaihRPDB/RmYvfnOpHPisz0YVKKSnz5z2ucf8fn3ua8sjC19tVKFvMYzL+pjBgX5h2pj5FNkD36gnFNWb0awAflo8g5cKnrF4H/kod45185YHelKZu9AAhBE1ArSMFB6C/+j3v1+2Pr61bNi4wZr0hvXrywoxLMMomIhia+4KVuF6D5rbw7GbUlsYuL+G9IxL+32mJYlWn8VwVDzAnGPtGVeGbYM71L5P8CYcXcjzFy74HhBEawMAk5iIlmf7J4ZMcTsffIsGi3QGKNwaTcTlTzj+yTQwMGRmZ7Hf4cNHyvbt75c333yz9O3vU6O+ypo8W0awfTi8Mdg/YGG4fHnI6eteInBX3VNWgD3XmjWr1bit8/YTzJdkY8DkOj2o7qU9yo/yJx7Sv8h3q3ybbM9aynqpwD9BWSbBCzGMc/lynNWNWTkGGOSVPCOfA4NDKrcLBnOvTzp1upw9d7acVe96566dbgyQPfDLvVUBPV+hVwCDZdlhxME34XF6XMgmaQEHPEl8C/g0K4B/CIHW38KFizx2S+EAZF4UxjisCAZlkpcCpet/WcxKQV9Vdw0zSE71713Zq0bgUfcCGBNmmAPNcGl3gIStiRQPNJ2smwACcd9+1oOf+e51AMq75jaFKbVsKOPJd5RJvoPSHWoDP+Fy0pdvmBq/GcbpBNz5xT+XgT7G3okHv1y8b3/r/6NWzq8rY0UT39J3Rkev+FD4Tz75fXn77be9txMCtGbtGqeLnh8NIMBPz4j0IFRESvrQrhAUzpCAZ5YsXqLuc7cbBXoC0SPcPLHWQvyAabGVATUa8+llklrik7Cpp654I52zkbJeKvBPkPlRv2QneZNLDBhDzOfOlcEh9hobLt9IkTrx1Vcenz948PNy5MhRL0y9dPFiaO3CoIiTnnLItcuK+PiALkrNZadrTPyvt4FLkjmUEita4vdbOdtiVgA/GimtoltKXYAWbSWEwHsDMBUKq33RFBkrX9yMTwP+A/39+lVBqpDRmtFyN23e5FW17CWDZQ3DHVjZ0HgwuThdxDdTg24PlUwmwA4izUmES6BH8KYC2fZzAn/648r4uIfSL8+UBWWZ/mj42pr/rVDEc0UAfP3Q01TUZsb0bSEQY2OlQx4uXrroldz79u3zLq9YOjA2OqyuM4vE6OWRdjQmyhS+WNh0hwFv8sCWEvAMjQMNwGW63UODPju6SG4WC+AfVE8AzR9tjS75C88/74nt1157rWzetFF8slD5k3crZsxxULZO8qyjrJcK/EHUO/yYdc54P2DP/BiKBnOJ+/fvL7/98EPPLcJDuGMqPSJ5QJ5QVDE8YIfeUydPuVzu72K+kYsjLhlhaJQoXZQd30XmR8Sn8+4Lv6OSCXAPjJNnu92MZscYvwoIIUebtwDa7hzb99BIYU6EHn9DEm4PBUnoWRTGpEgUKO2nalD/ALvQgO+3dsdZu2yv8NJLL5dXXvlBeeKJxz0WPF3Et6G2QGSaoGsERW7WrAFg/DTOkEFav+Q1qR021gpMMJHjkd/8DuTv0pjInckj3jsOXRkmG5vxsLpC8CN8EuF4piyDGVv5uAG185O+9blgbqWHVcy//OW/lD1//GPpO9BXDh857LUFDz28WuAcQzn3q2Hmm4y5ovEjFAz12PpL6SYvQ8NDpae7Z6LRpVz0yz1ZYByWBoFeI3lAw0chWILSIEUDvkAR2Kpe4csvv1yeeeaZsm7tamtgs5GyXirwB5GP0VFwYqx8dfJk2bt3X/n4o49sBu3zhcWrGBGgTNhkHCZWGG/FLtxhyNCYJd6Ep1FEJV3mUeMPcgYjcjXlZdnSfRfyq/fzpcQw1AOfkg78ooMw/3UzmhXAD2BTKIz5QgY3C3Bkjfcem5V77Ievimj82a/+xkm3hOMQeQCOeKgoegmM/TIezJbCr/7wVVu3eFJ4Za8nk23h0RBmXnTBco0BNCXD8y19JwGpTZn+3MzOY3mZpyniMnOJbmTORViHasL6eapv4q44iG9yXLzPcFz2L2rHA+hm2ZFm7hEE7rNRIhzu1xM9n/gmMbOD6ZGjx2xJwtnNR3V/qDm17ZI0fya9+A5AbOsc0tMkhS5zWFdEWrzit3mHGSuaVrqF1Q51oJdygpcyH1DwiYh86j3P9DQZ/1/1oHoGK3rde1i7dk3Z8tgWDxPSa4yzGJiDUgPaRD+Z+AZKCmRDBRHCT9m3y3Wqsk7KPE71bjoovjwzwJ/5hm4U9k7ynzxIiFRc4FPqNvk0CX/0+hiewTIMK8Hf/9ce1dNY6Zf7OfU4mYz95puL5huSASC74JwmZC8wKCdf+X7yGBO2qHG4XXvZa0N6UFzwKrcRDzIYCq594N7CoRvRrAD+e00IPFstb960yQLOfMD6desMAAAB5/TSWmc3rU1ZQVAyKW7ct5mXe5gCjRUGmooZO4UyreSD9Jph5WYmVbpJP27ZcKVf54nykT/cIq6r3n4DSyVOZGMs9ODBLzwuirCdYYEWvQeF6TRCsAG6NWvWlLXih9XqEaAo0DNgzoDFdw89+KAUiF77J/+UCUR5IM00ENzT2wL4qfMbgRn+KHv8tHnnL0HJtZ0E/G33jHdy3Nd8T/dWsho54p3f656ypgwxU00+9Tbx4kGAHsBn0SS/mIOfPHmqHP/yhPnc9vu6CE846FbAdyapAv8dEJWLdsmkYJo7Wvt/ZHPZtHGTGoLveaO0ZT097voj4DBfMhpXm0nzHZo998l4ACbhAUXi4OpEguEBKho70tvOG/mwto+wyY2tpik73scCqi7nD2srJsMQpmPHjpcDBw6U//nTn8qx48djcZoEEn9Mds1TVzbj7yRiLgkindQdvQbmFGgIHvneI+YNegQPPbTKk8nwDgvgmEegx5K8knVPHtvAjzsXlG5M5GUvIXsN7rk0NF0NQoLEvQZ+/Af/EybykeGzLJLa8QLIBmLd456yQ0/KwC834oU3kTsAnzlAwB5+4/ec+PHQoUM2bT7+5fHSfwnzyTgQimvBwsVOg58brTt6kHzv7sr7L00V+O+AqGDvE4NVkP7o4i/tjqGgDes3lKefedoHsDzx+Nayds1qm3bZNrwR7MlEfDAnE816mNhnqHGHKXlGm+5EIp3QZIHkmXsELHoAzt74O8CNCS921ETY2G/pdzt3la8lcGhaCB4ma8QB2NMdpgGhzDuRAFyXgdJL3kZG49B8Ndk2LV64KMZkBT82I4ZHMBygx4j1EPzDkCL8lCa01Ds8Q7wGMsVNDDkM5Gf9ZnkSvYeVuBExsU7DcLdKQ5b4vQZ+8hxDneT3xj2g8bLRO66cp8ONvLsMdeGPckqgR4uHzzCvRLOnp8khUPwSBv8s9CQMz8hg9tKY1Ff0Kht9W4DPt+zg7916HmeCKvDfAcFYyQBUOOA0ODDgYwcBdxaIMeTz6g9fKc8//zfjJoH8otkl83LBLDA24ZLS/XasYWaKSCfCAcMz4WzmbxECwyKr1GghJlRxO3L0qA/gx/ohDtz5czl+PASuS70BdtVcsKBZo6FyxmpiVGAawOaoOopYJAhP+HQ5gTdAhUYOf1zWOyahwYMHFrAN9byyYH6st4CXAEhOaMuGgPUkNAQsJqQxQHHAb/INF2XL4jTCe7JflLySv/AWaSLs3VDWaidO7hInCgTlQVm4PJQe3JM/0dRZ30HPEdv5g58fNO9Zm1evEvBH+UAJobxofIkjZTXLMBsNDERY22FzcXieK0n+KvDPQjIjSIsC9NuTgK57/TcmYQfc2NWS8VyGgTANfeqppzwZTNefbj6rSN14NMzJ5BGMhpBDPMfq0QC/TiXSTxlAAI01NKXXWquEkPeUGQKDJsXmb+yhxAXgY5pJ13r+AwsEdLEUfbSxpiGetgCi7iJ8vOs0sv216jHHe5VIa/jzVYc0evRY5Fg4tIb0j30XZqReUKhnTIXXr19v/gC8UB5yPQGNAvcMC9kcWTyCn9T8uYgDgKN8KC/ACzeX211SlvZMaPz0hF3/eiYsshDfC0reyzJgOBELL1a8osnDc7HfzZdlz969jg+jAbT9PNAJmWsrZcSJPy7SkA0K3+Ydtvc5xHYdkb4K/LOPYIwHBMZ0Aa+IyWBCL+hpGAbmQeO7+M0FCwUCzXYHTPJt2LDBC8QwD6VB8EHlagB4b8YVkyVjExf3CDNx0kh0KiFwEELCZbZXftBImaxl4QqaFTbNaFp5gA7WNYkqHNUpWChj34bZJnMGACd5R0PGHJfy4BD3/F4n0fgYv/JkszyVA/VpsFIeXKcCmdErwwYRgAZwhkbUGNAI0GjiH6K+4Z2cIKZB4OIefmFu6dlnn3VZUEY0LuYhykYX+1bBQ7jzPinjvx3K0p6JMX7zU5Mv8sMv5sHj80NSKFCSAPGzZzmy9YTB/vTpU+XUqdj+AC0fjf781+ddHjap1B/hiZ+y5hvc0xDwmwTPUX78ZtpJg3d/nZyX1nPc0ij7saOoAv+dEHIlxjAwiyHY6jkA+oqEl/H4sP9nLxm6+jAmXVGYCUHOCWE0ObQ4LrZeRqh9MIniyu2jIRgRN65OpBDOby1IlAf5RBAZp6crzUQtppjnzsZYKt1qFrKQnxzLJgyb7WHbjLvBXpd32ZQmHSAWprgdO/wlvmini7kI9wrbIKLXzL3SsEGTQYhGnvIk74RLYCJetFK0fUAfQIWPGD5k/oDfrVu2mqcYIoKPEGzCUp6ZLn7b97dKMwX8pB+tm3IiH1EmY97nBl46KIXi0OHD7jEG8J+1ds8vPEhY5IfGmDKnYYXnsjdE+UL3zWv4TH5w51tZblyuS9IOjzfvrowqrLNyfX7wC0V433YUVeC/A6JSOdmJPTMYyoDQ8GAu3lHnMOjiRZweFpsnwYAp1DANQkwjkA0B2x4jtFz0CDaqZ4C/ND/jvhOJfBr0YXD9nVP3maEbNHy0e4Zz+D1/4fy4FpzCRp5S08It9iZpBEvuLFRBaggD8CPALKiK8fPOkybWfpCssNmP+sLShnybKUQsLmSzOJbxoxBkGXA537qy0TOfNbyDX8qIfOfkL37gOXoP69ett2kxc0nwE3tNrZYigdUQZqX4d+JEAUYT163QTAI/ead3HWaUJ604APSYVjJUiJkvwzo5zIh/yo2wWZ5tjZ7yAqvx4zpTa2w3kZWsZpKetELE0W7Ew118qjhvRDn2T9y3k997RRX474CodxgA4GeMnzFahBKtZEn3EjFI8WTv8PCQ/bMPhyc3JSgwEAwHg3rVnhgPxmJCcGlPjw9c+fG2beXFF18sy3rYHGypTUNZ3g0DTeahrLzJrNWu1KnY7mbvkzKvEN9vj13izoQmmhUaPOB+oO9A+ejjj0rf/v3em4ThCxoGejAIF8M1lJm1sKYBwM15UzkwIYq7t9emIUXA/N0QYNRl4rs2B51BYblEWskPIBg9IYAC0OBdHLwRmivkvMuN51g0CLhHHiPP0SAoqMvEFaIyMZgIYHEbHWG48f5xrZhyAnBpCOCnZ55+uqxauSqUDfETG8+xLxH8iF/qlPiImmghfybLOB1FP3/jH8pbv37LwO89ihSeobfgzUY5UeBVK5eX3bt2uQFq8w/3OTnvcsG9eQfR+NM77u+/5KNUhwaHDPrHjh8re/bsKfs//dRGAUPiudw7izkhJlv5ro9pVeNKumxfrzK1CXHDa25glU7VjPmMeiEeyg7CL3mPHj31GWGoJ1IL3yK3xL1oMec7TE1Z5xX4K01JMAjWHlixWDDEjAgQ3XkmhDlR65UfxDAQ5oAPqAdhRhRjU3HgCURnlH/mMeLhsXkGq5P1Gu9+l2GFGePvk3gVzB8mgaST76KtIjBMbnFYBJrX/0qj/2DHjrJjxwfl3Jmz8Q1FiNAxpk3Y+Qs62zppNhO9C6yD6E0+99xzPlOBOSbmDuhxLpJiAvDNm0cPVr0O+EeYZ8BWlcFrHuxQPf7s52+Uf/vNb8qli5cMuBgecPgIIEn9cgGOS3u6y94//MGT0SgHuMM/HFpCgyO8lr/oxcFPNHTcDw4MlS8OHfIpenv37XNv8csvjzc5qTRdVIG/A0iiZsFAE2ZfDwQK9AToaQB6pKHRA3jh+Rds9YG536ZNG2JRlIizgr0d9ciIN31Co0KrBPDvhGAIBBmrh8WLlkhTxLQtFhZhlnjo0OHxyVpsnvfpYkz1Uv9FCfWCmKdAq5J/tHgm4pi85LnSvScaaRpxhmUY8kHbpwe6TNo424/AU08++UT50Y+2xXu9W7x4kesNot44GhAt/xf//Iuy44Mdpf+SgF+8CvCjTcO7CfwAOafA7d610yuVeZazgZ8hkAR70vXViRPmn08++cR7L8FH9BI9DCM/aNaErTS9VIG/AwiQRLvynht6lvj4jy2DrwqAYX4sf9IqCG0ttoze5Ek9NDcEFeGObjQCGACeguYutr7jYQUESvHGt/R9gTpaHVcO5YDRNEAAPpo9q2pZUQvgf/bZZ5605UQrDo7APpo4utQbmC+tkW+xLTKCSxeZFbrcR8e+0r0mtHnAm4lLKxaqi7GxK97dkSEhthpZvmy5GuwFZbkUjXXr1tr4gPkCeIzeZk/PMvHNWPnpT39W/v3dd0v/wED5bhz4o1cH38F4fG/r1i3lV//6K2n8y/Wtbz0cyg6qrNno69vvFdn0Ghib57xkzn9gc7O04vJwl+L0vlqMnVaaVqrA3wEU2rFu9B9gb7oq8FZ32GAtYUCbpwEA4HuX95aHVz/srvtjW7aUrVse83YAdKsRZIaNYjw9x5ljQsrNieKiMfjWGhq9DZFu+A6gj69sLM6fjwMj2CsHoP/z538ux44esxtn22IrTRgWWgH8XhkpUEnQhxBiT9Leafej0l0TfAB/pXksE7EoCWjV8IXnEPRHnTMktGz5MvHRCikUK72/0OrVa7zSuLt7iSd2PxV4M+4OX1G/hIOIx0wl6l25ovzk739ShodZmX3Ri9gu6vfIkcPl8JEj5h8aoXHeVDgPJYpviYE4GbdnTQxulaaXKvB3ACGUBmkxP0KQy80hAJwLLc2AKoFg0ohhHoaA0MZY3EN3HQsOVn7SzaYBWNYTC31i/DYmEdGkrJm5EYiPI3yAgG3Jpd1zDfQPlN0ff+Rzd7+w5cShclqAP3x5RGkNIZ2wXAkW8iHko1e8NawBXxdSjFVL7CRYaSYIfkFp8ESm6sH8oPqDx8LAIHjKE8NdYUFGI0G9Uoc0BiulVPSoV3D23Bnbwg9LEYHgW8LDU7bsESuwPTq89nc//luPz6MoMM7vdEiDH9Y3AXN4BM6hETL46889TuRAfhk+QhGi11hpeqkC/wwTmIkAImAJpEx0cYxkjG8iDAhkaPCAdNgkS1tDkOfH8vJFCxf69Kgnn3rSmj8Lwxga4p4JPLRyWztI4BEkND+IibmxK2M+xSw3qWJhFUfEbX9vu7W1wUEslIb93fldcbQjq5IRdLQym/PRPRF5uGleV3xL6aVnQaNibbDSjBB1Ay+hNMA/ELyW2j/1ZIscMWMAflhdAeD80h/gDFnOsGbNgd+pTuHNceAXYHslK8Cvxh+epkd6+tSpMjDQr2d6B12F0+5QYrAwQhlAKYhvKW3ieRoA0oRiwVkZxMtQUqXppQr8HUA2G0Ni9A9BgvEBSo/Ho/kIcNmnBlC1pmSriBirR2gQJGtN8sszwEy3fMnSbu8CuXjR4rKg2T+G3gMCa2Wfj0vQmGRjKKlfAE8XnHFXGoLB/kFb4yyi0WisjphIxuSNb4eQhh26GxOlGWAhzTFfEVojz2ialWaG4pzoRqlIUB/hGMoYj8fcmMaBxh0zY+oWHvRwoX4dTvVOfdIjYMweYCdOLuKDH71yWYxFPAP9l8rKVQ+ZvzDltWJDQyP/rPXwN8QzXS0rtftZuU0DJaCHp634KDzKTaXppQr8M0wIAwKDVoNAwfiAMgJy3ySwdFcYzQwhBmAbcMUd4AVcPT7/HSsUR73IDAFDwBGehRJkLziTMOVQkon4RNmQWPvS/WI1Gvi35qVE5epHWx2RPjm6AVF8bSbyM/nguwBIY/JXaWYIW3g0evZ9ws6dSkurmewBUMdY9DAWT6NA3dHY++wDVa6VC0CYhiDrF7BGIxffwnse/lM44iQuNHg2RSMsvQDeMYnMt1FOUCIAefOdLsx/+Ri8T3q8Qlvxs06g0vRSBf4ZJoQJMGVFJ4KDkNElB4CBdawmGDYBYvGLUFBhCAuCi1aEIHpyVsIXlRlaNuRGhMZCQod7xsGVceCTsKm1I6AQPRE3SPhROHoj3iNF/pwGhF+/9DTYs4h0oEGSD4/nMmQlN+Jroqw0A0T9oySgtZsvVBcAeCgK0QOgfqm7b8WLVBYaP1XmHpzqnzpECYgegwAaPmoBPxo9PQR4DMVBHn1cJgAOPwD8fH9pz9JyqT+266DxgJFIh78nNwh30pMX4F9pemle99Kl/9TcV5oBCpCNLnDSVTsBlgB0w/QSEInBNQJhR/zJj+NxXFA8Ezbf+RVe+NF/TWg/TITHISi+FUNQeuu4HB/+9eewIgchqNzdaMhPODbxN0T0lWaImvrxbXOffOX6bF36L+rR9/hoGu50Gw/T9PgcpAmrCk+TZLOn3PydCBa8oRc0HjgSJHgKxST8EMnEn4jgeKw0rVQ1/kqVKlWaYzShZlaqVKlSpTlBFfgrVapUaY5RBf5KlSpVmmNUgb9SpUqV5hhV4K9UqVKlOUYV+CtVqlRpjlEF/kqVKlWaY1SBv1KlSpXmGFXgr1SpUqU5RhX4K1WqVGmOUQX+SpUqVZpjVIG/UqVKleYYVeCvVKlSpTlFpfwfT74K3y5CCkcAAAAASUVORK5CYII=;" parent="1" vertex="1">
          <mxGeometry x="347.87" y="280" width="82.84" height="72" as="geometry" />
        </mxCell>
        <mxCell id="RNJNpa67RIgomQQY6Ot4-6" value="Josef Widiadhi Supijo" style="text;html=1;align=right;verticalAlign=middle;whiteSpace=wrap;rounded=0;fillColor=none;fontColor=#FFFFFF;rotation=0;fontSize=14;" parent="1" vertex="1">
          <mxGeometry x="90" y="282" width="152.84" height="30" as="geometry" />
        </mxCell>
        <mxCell id="1848pwm6E1spGErkgIbe-4" value="Emergency" style="text;html=1;align=center;verticalAlign=middle;whiteSpace=wrap;rounded=0;fillColor=none;fontColor=#FFFFFF;rotation=0;" parent="1" vertex="1">
          <mxGeometry x="354.29" y="60" width="70" height="30" as="geometry" />
        </mxCell>
        <mxCell id="1rrXc0P4a3_NibfVCA2N-2" value="+628562331147" style="text;html=1;align=right;verticalAlign=middle;whiteSpace=wrap;rounded=0;fillColor=none;fontColor=#FFFFFF;rotation=0;" parent="1" vertex="1">
          <mxGeometry x="112.84" y="312" width="130" height="20" as="geometry" />
        </mxCell>
        <mxCell id="1rrXc0P4a3_NibfVCA2N-3" value="jodeqa@gmail.com" style="text;html=1;align=right;verticalAlign=middle;whiteSpace=wrap;rounded=0;fillColor=none;fontColor=#FFFFFF;rotation=0;" parent="1" vertex="1">
          <mxGeometry x="112.84" y="332" width="130" height="20" as="geometry" />
        </mxCell>
        <mxCell id="1rrXc0P4a3_NibfVCA2N-5" value="" style="shape=image;verticalLabelPosition=bottom;labelBackgroundColor=default;verticalAlign=top;aspect=fixed;imageAspect=0;image=data:image/png,iVBORw0KGgoAAAANSUhEUgAAAeoAAAHqCAYAAADLbQ06AAAL0UlEQVR4nO3cS25jORQFQbmh/W/ZNeipCqYhlm+ajBgb1vtJiTc5jwcAAAAAAAAAAAAAAAAAAAAAAAAAAAAAAAAAAAAAAAAAAAAAAAAAAAAAAAAAAAAAAAAAAAAAAAAAAAAAAAAAAAAAAAAAAAAAAAAAAADA/z6mD+Arn5+fn9PHUPTx8bH13q1e5/rnTj0vU8e3+37sNvVcrao/L7v5PX2t/j36b/oAAIC/E2oACBNqAAgTagAIE2oACBNqAAgTagAIE2oACBNqAAh7Th/ALvVlmVX1paTdS1O779vUctpupzzPdfXFu6llt1Oev1OW2LxRA0CYUANAmFADQJhQA0CYUANAmFADQJhQA0CYUANAmFADQNgxy2SrLE3xeOx/Dur/j/dMLZjVfzf8nv4Mb9QAECbUABAm1AAQJtQAECbUABAm1AAQJtQAECbUABAm1AAQdt0y2W2mlpJWP/eUhaHd57H7+k3dj9XPrR/fqvr94HfyRg0AYUINAGFCDQBhQg0AYUINAGFCDQBhQg0AYUINAGFCDQBhlsn4lt1LTlOfu3tBardTFqmmrvMpy1+nnAfv8UYNAGFCDQBhQg0AYUINAGFCDQBhQg0AYUINAGFCDQBhQg0AYdctk9224LN7GWr39ZtaHJv6f6t234/6c1D/f6t2X7+pZbxVt/2eTvFGDQBhQg0AYUINAGFCDQBhQg0AYUINAGFCDQBhQg0AYUINAGHHLJPVF3ymTC0lTS1N1c+3/v92q59v/fpN8Xva4o0aAMKEGgDChBoAwoQaAMKEGgDChBoAwoQaAMKEGgDChBoAwq5a2+HvphaabluGql/nKZ6r1045D97jjRoAwoQaAMKEGgDChBoAwoQaAMKEGgDChBoAwoQaAMKEGgDC8ms2uxeVphZ8ppahTjnf1fOof+7U/1t12/WbcsqS2Cm/z3XeqAEgTKgBIEyoASBMqAEgTKgBIEyoASBMqAEgTKgBIEyoASDMCsxf1Jem6v9vVX3Z6LbFrLpTFuqmPrf+/V1Vvy67eaMGgDChBoAwoQaAMKEGgDChBoAwoQaAMKEGgDChBoAwoQaAsOf0AXylvnyz+//tPt9TFsx2qy+E1Rekpo6vfh71577O/XjNGzUAhAk1AIQJNQCECTUAhAk1AIQJNQCECTUAhAk1AIQJNQCE5ZfJVk0tf+02tRA2tTh2ynLQ1HNVX4qbOr7dS2en/L7Unxde80YNAGFCDQBhQg0AYUINAGFCDQBhQg0AYUINAGFCDQBhQg0AYccsk9UXkKbUF7NWTS2i1Zecpp5ny1WvnbJgtqq+eLeq/jx7owaAMKEGgDChBoAwoQaAMKEGgDChBoAwoQaAMKEGgDChBoCwY5bJVk0tL9WXb1avyynLVfXFtqnltNvu2ylLhbufl/p53LYA540aAMKEGgDChBoAwoQaAMKEGgDChBoAwoQaAMKEGgDChBoAwtIrRN8xtfg0ZWq5atUpC1K3XZe6+jLeKc/Vbrc9p7t5owaAMKEGgDChBoAwoQaAMKEGgDChBoAwoQaAMKEGgDChBoCw/FrMKUtEq+rncdsi2qr6ctrUc3rK93fqfG/7Hk2pL6d5owaAMKEGgDChBoAwoQaAMKEGgDChBoAwoQaAMKEGgDChBoCw5/QBfMUi0Hvqxzf1ufUlsSm7j6/+/V1VX+raff1uW4qr80YNAGFCDQBhQg0AYUINAGFCDQBhQg0AYUINAGFCDQBhQg0AYemVpMfDItW7n7vqlOuy2yn3d9Vti0+33bfd6t/z+vGt8kYNAGFCDQBhQg0AYUINAGFCDQBhQg0AYUINAGFCDQBhQg0AYc/pA9hl96JSfbGofnxTps5j6rmqL4md8pzuvr+nLGatmrp+p/BGDQBhQg0AYUINAGFCDQBhQg0AYUINAGFCDQBhQg0AYUINAGH51Zv6Ao0lovfcdl3qz/Oq+nN/23NV5zl4jzdqAAgTagAIE2oACBNqAAgTagAIE2oACBNqAAgTagAIE2oACEuvsfwL9aWa3ctVU0s/q3YvXE2pLyrV/1/d1PVbdcp9m/qe159Tb9QAECbUABAm1AAQJtQAECbUABAm1AAQJtQAECbUABAm1AAQll5j+Q7LS6/Vl35Ouc6r6ud7yvGdor4suOqU7+8Ub9QAECbUABAm1AAQJtQAECbUABAm1AAQJtQAECbUABAm1AAQdt1aTH3B7JRlqPrxrdp933arP1e3fe5u9d+Xqe/bbbxRA0CYUANAmFADQJhQA0CYUANAmFADQJhQA0CYUANAmFADQNhz+gC+YmnqPVPnsWpqQaq+5GSh6bX687xb/Tmdctv3yBs1AIQJNQCECTUAhAk1AIQJNQCECTUAhAk1AIQJNQCECTUAhOVXW25bhqof36qpRbnd6vfD9+O1+qJXfSFsaiHxlM/dzRs1AIQJNQCECTUAhAk1AIQJNQCECTUAhAk1AIQJNQCECTUAhKXXWCbVl7VOOb5TFq52f+6UqcWs2z53t1Oe0/pzMMUbNQCECTUAhAk1AIQJNQCECTUAhAk1AIQJNQCECTUAhAk1AIQ9pw/gK1MLUrctZq2qL3rVF4ZW1Rezdh/f7vtbvy671X8ndz8Hq075PfBGDQBhQg0AYUINAGFCDQBhQg0AYUINAGFCDQBhQg0AYUINAGFHrLY8HhZtfkp98em246svwNWX7FbVz3fKKd+3+v3wRg0AYUINAGFCDQBhQg0AYUINAGFCDQBhQg0AYUINAGFCDQBh6TWWf6G+vHTKks7UYtGq+qJX3W3Pff186wthq+rLfVO8UQNAmFADQJhQA0CYUANAmFADQJhQA0CYUANAmFADQJhQA0BYfrWlvlQztahk+eu9z73tubrt+tVNXb9TFsxu440aAMKEGgDChBoAwoQaAMKEGgDChBoAwoQaAMKEGgDChBoAwp7TB1A1teBjcexnPnc3S1Ov1b9H9fNYdcpCYn2Rb4o3agAIE2oACBNqAAgTagAIE2oACBNqAAgTagAIE2oACBNqAAg7Zplsallm9+eesrhTP75V9eNbdcp5nLI4Vv9eTn3uKb9/u3mjBoAwoQaAMKEGgDChBoAwoQaAMKEGgDChBoAwoQaAMKEGgLD8akt90eaUZaOp87hNfZHK8b12yu/GlPrvc33BzBs1AIQJNQCECTUAhAk1AIQJNQCECTUAhAk1AIQJNQCECTUAhKXXWHhffQGpvli0qr6UVH8OVt12f+vLWqcsM9Z5owaAMKEGgDChBoAwoQaAMKEGgDChBoAwoQaAMKEGgDChBoCw/LrLKYtKu52ybLTKAtLvNLUQtlv9d6i+nLbqtt+1Vd6oASBMqAEgTKgBIEyoASBMqAEgTKgBIEyoASBMqAEgTKgBIOw5fQC7nLJAM7WAZGHoZ1jqeq1+f3cfn6W995xyHqu8UQNAmFADQJhQA0CYUANAmFADQJhQA0CYUANAmFADQJhQA0DYMctkq25bBDpluWq3254D9+M99SWs+vWbcsryoTdqAAgTagAIE2oACBNqAAgTagAIE2oACBNqAAgTagAIE2oACLtumYzXdi/4rP7d6ueesjB0ynnsvr/1811VXwi77Tqfcr7eqAEgTKgBIEyoASBMqAEgTKgBIEyoASBMqAEgTKgBIEyoASDMMhnfMrUINLUwtPtz68tVU3Y/V67ze3ZfP0t27/FGDQBhQg0AYUINAGFCDQBhQg0AYUINAGFCDQBhQg0AYUINAGHXLZPdtmgztTA09f92f+7UUlL9vu02dT+mFszq51t/nnd/bv374Y0aAMKEGgDChBoAwoQaAMKEGgDChBoAwoQaAMKEGgDChBoAwtJrLI/H3KJNXX3Z6BT161JfpFpVP75VU4tyty2Y1Z+D3bxRA0CYUANAmFADQJhQA0CYUANAmFADQJhQA0CYUANAmFADAAAAAAAAAAAAAAAAAAAAAAAAAAAAAAAAAAAAAAAAAAAAAAAAAAAAAAAAAAAAAAAAAAAAAAAAAAAAAAAAAAAAAAAAAAAAAAAAAAAAAMAv8AdDC9+2DNc2xAAAAABJRU5ErkJggg==;" parent="1" vertex="1">
          <mxGeometry x="304.29" y="80" width="170" height="170" as="geometry" />
        </mxCell>
        <mxCell id="1rrXc0P4a3_NibfVCA2N-6" value="" style="shape=image;verticalLabelPosition=bottom;labelBackgroundColor=default;verticalAlign=top;aspect=fixed;imageAspect=0;image=data:image/png,iVBORw0KGgoAAAANSUhEUgAAAUoAAAFKCAYAAAB7KRYFAAAFgklEQVR4nO3d0W1jORQFQWvh/FP2JiCgaZgQ7/BVBTCSnjwNfuiAX18AAAAAAAAAAAAAAAAAAAAAAAAAAAAAAAAAAAAAAAAAAAAAAAAAAAAAAAAAAAAAAAAAAAB3eZ1+A+Xn5+fn9HuY6PV6LX1305/f7s+x+u+t2v2607+PU3Z/b7v9d/oNAEwnlABBKAGCUAIEoQQIQgkQhBIgCCVAEEqA8H36Dewy/Zf9q3YvN049l9XPcWpxs+ppr7vbLUskJ0qAIJQAQSgBglACBKEECEIJEIQSIAglQBBKgHDNMmfVqaXA9KXFqYXM9Ltmbvnedpv+XHZzogQIQgkQhBIgCCVAEEqAIJQAQSgBglACBKEECI9b5vDeLQuZ6Xfw8G9yogQIQgkQhBIgCCVAEEqAIJQAQSgBglACBKEECJY5HHVq6QO/4UQJEIQSIAglQBBKgCCUAEEoAYJQAgShBAhCCRAet8xxV8p7u++aOfXvPY2/589wogQIQgkQhBIgCCVAEEqAIJQAQSgBglACBKEECNcscyw33rtlcXNqwbP7/e1+XT7DiRIgCCVAEEqAIJQAQSgBglACBKEECEIJEIQSIIxf5rgT5DNOLVCm2/15n/b8buFECRCEEiAIJUAQSoAglABBKAGCUAIEoQQIQgkQxq8Edt8dcurulVN3yKya/rqn3PKcT7nl8zpRAgShBAhCCRCEEiAIJUAQSoAglABBKAGCUAKE0b+G/41bliUWPH9j6fM30xcypzhRAgShBAhCCRCEEiAIJUAQSoAglABBKAGCUAKE79Nv4NNOLTcsbma97m7Tv99V0/9/nOJECRCEEiAIJUAQSoAglABBKAGCUAIEoQQIQgkQxi9zpi9Gdtu98Nj9urtNf93pd/Cc8rTn50QJEIQSIAglQBBKgCCUAEEoAYJQAgShBAhCCRBG31PxG7csAG5hKfWZ1121e+E2/fPu5kQJEIQSIAglQBBKgCCUAEEoAYJQAgShBAhCCRDcmfMhT7v7Z9XTnsv0u2Zu+f+2mxMlQBBKgCCUAEEoAYJQAgShBAhCCRCEEiAIJUAY/+v66XdznLqLZPrnOOXU38v0BdT0zzH978qJEiAIJUAQSoAglABBKAGCUAIEoQQIQgkQhBIgjP41/NfXueXLKacWPNMXQdOdWpZMf37TFzernCgBglACBKEECEIJEIQSIAglQBBKgCCUAEEoAcL36Tcw1fSFzKrp72/V9EXQ9IXMbtMXX7s5UQIEoQQIQgkQhBIgCCVAEEqAIJQAQSgBglAChNG/hufvdi9GbllknHouu92ylJrOiRIgCCVAEEqAIJQAQSgBglACBKEECEIJEIQSIIy/M+dpd5GsWl1GnFpQ3HIHz/Q7jFY97fPu5kQJEIQSIAglQBBKgCCUAEEoAYJQAgShBAhCCRDGL3NWTf9l/6pblki7Fxm3LDye9v6mf95VTpQAQSgBglACBKEECEIJEIQSIAglQBBKgCCUAOGaZc6q6Xe07HZqITPdqbthTjm1bLplUeVECRCEEiAIJUAQSoAglABBKAGCUAIEoQQIQgkQHrfM4b3py41Tpn/eU4uq6d/bbk6UAEEoAYJQAgShBAhCCRCEEiAIJUAQSoAglADBMudy7uqZZfqdNLc8592cKAGCUAIEoQQIQgkQhBIgCCVAEEqAIJQAQSgBwuOWOaeWKqecuqNl1S1LkOnPmb9xogQIQgkQhBIgCCVAEEqAIJQAQSgBglACBKEECNcsc25ZeEz3tOf8tMWN5dV7TpQAQSgBglACBKEECEIJEIQSIAglQBBKgCCUAAAAAAAAAAAAAAAAAAAAAAAAAAAAAAAAAAAAAAAAAAAAAAAAAAAAAAAAAAAAAAAAAAAAAA/zPwYn3h2qtmsxAAAAAElFTkSuQmCC;" parent="1" vertex="1">
          <mxGeometry x="60" y="44" width="84" height="84" as="geometry" />
        </mxCell>
      </root>
    </mxGraphModel>
  </diagram>
</mxfile>
